<svg width="19" height="17" viewBox="0 0 19 17" fill="none" xmlns="http://www.w3.org/2000/svg">
<path d="M17.8618 9.22778L10.7673 15.9998C10.3642 16.3626 9.75955 16.3626 9.39676 15.9595C9.03397 15.5564 9.03397 14.9518 9.43707 14.589L14.7983 9.46964H1.09293C0.528587 9.46964 0.125488 9.06654 0.125488 8.50221C0.125488 7.97818 0.528587 7.53477 1.09293 7.53477H14.7983L9.43707 2.45573C9.03397 2.09294 9.03397 1.44798 9.39676 1.08519C9.75955 0.682091 10.4045 0.682091 10.7673 1.04488L17.8618 7.81694C18.0634 8.01849 18.1843 8.26035 18.1843 8.50221C18.1843 8.78437 18.0634 9.02623 17.8618 9.22778Z" fill="white"/>
</svg>
