<svg width="18" height="18" viewBox="0 0 18 18" fill="none" xmlns="http://www.w3.org/2000/svg">
<path d="M11.5495 7.74961C11.7794 7.49213 11.7571 7.09704 11.4996 6.86714C11.2421 6.63725 10.847 6.65961 10.6171 6.91709L8.10714 9.72827L7.38288 8.91709C7.15298 8.65961 6.75789 8.63725 6.50041 8.86714C6.24293 9.09704 6.22056 9.49213 6.45046 9.74961L7.64093 11.0829C7.75951 11.2158 7.9291 11.2917 8.10714 11.2917C8.28518 11.2917 8.45478 11.2158 8.57335 11.0829L11.5495 7.74961Z" fill="#1C274C"/>
<path fill-rule="evenodd" clip-rule="evenodd" d="M9 0.041687C8.21873 0.041687 7.47277 0.297173 6.26949 0.709283L5.66329 0.916801C4.42885 1.33935 3.47617 1.66546 2.79419 1.94251C2.45065 2.08207 2.15531 2.21724 1.91748 2.35536C1.68862 2.48827 1.45902 2.65405 1.30303 2.8763C1.14884 3.09599 1.06911 3.36606 1.01901 3.62604C0.966927 3.89632 0.93552 4.22055 0.915249 4.59282C0.875 5.33199 0.875 6.34461 0.875 7.65805V8.99282C0.875 14.077 4.71502 16.5146 6.99861 17.5122L7.02119 17.522C7.30436 17.6458 7.57051 17.7621 7.87634 17.8403C8.19922 17.923 8.54228 17.9584 9 17.9584C9.45772 17.9584 9.80078 17.923 10.1237 17.8403C10.4295 17.7621 10.6956 17.6458 10.9788 17.522L11.0014 17.5122C13.285 16.5146 17.125 14.077 17.125 8.99282V7.6582C17.125 6.34469 17.125 5.33202 17.0847 4.59282C17.0645 4.22055 17.0331 3.89632 16.981 3.62604C16.9309 3.36606 16.8512 3.09599 16.697 2.8763C16.541 2.65405 16.3114 2.48827 16.0825 2.35536C15.8447 2.21724 15.5493 2.08207 15.2058 1.94251C14.5238 1.66546 13.5711 1.33935 12.3367 0.916797L11.7305 0.709285C10.5272 0.297173 9.78127 0.041687 9 0.041687ZM6.56718 1.9286C7.91262 1.46805 8.45188 1.29169 9 1.29169C9.54812 1.29169 10.0874 1.46805 11.4328 1.9286L11.9102 2.092C13.1707 2.52347 14.0899 2.83839 14.7353 3.10059C15.0575 3.23147 15.2909 3.34114 15.4548 3.4363C15.5356 3.48327 15.5914 3.52203 15.6286 3.55229C15.6601 3.57793 15.6722 3.59245 15.6739 3.59459C15.6755 3.59718 15.6859 3.61449 15.7005 3.65547C15.7171 3.70223 15.7356 3.76926 15.7536 3.86257C15.79 4.05143 15.8175 4.31086 15.8366 4.66079C15.8748 5.36178 15.875 6.3403 15.875 7.68057V8.99282C15.875 13.3054 12.6501 15.4279 10.501 16.3667C10.1914 16.5019 10.0127 16.5784 9.81367 16.6294C9.6236 16.6781 9.39167 16.7084 9 16.7084C8.60833 16.7084 8.3764 16.678 8.18633 16.6294C7.98732 16.5784 7.80856 16.5019 7.49899 16.3667C5.34991 15.4279 2.125 13.3054 2.125 8.99282V7.68057C2.125 6.3403 2.12523 5.36178 2.1634 4.66079C2.18245 4.31086 2.21003 4.05143 2.24643 3.86257C2.26441 3.76926 2.28287 3.70223 2.29952 3.65547C2.31411 3.61452 2.32446 3.59721 2.32608 3.59459C2.3278 3.59247 2.33983 3.57795 2.37139 3.55229C2.40861 3.52203 2.46435 3.48327 2.54524 3.4363C2.70908 3.34114 2.9425 3.23147 3.26466 3.10059C3.91008 2.83839 4.82934 2.52347 6.08984 2.092L6.56718 1.9286Z" fill="#1C274C"/>
</svg>
