<svg width="21" height="20" viewBox="0 0 21 20" fill="none" xmlns="http://www.w3.org/2000/svg">
<path d="M10.3752 18.3333C14.9775 18.3333 18.7085 14.6024 18.7085 9.99999C18.7085 5.39762 14.9775 1.66666 10.3752 1.66666C5.77279 1.66666 2.04183 5.39762 2.04183 9.99999C2.04183 11.3331 2.35484 12.593 2.91138 13.7104C3.05928 14.0073 3.1085 14.3467 3.02276 14.6672L2.52642 16.5222C2.31096 17.3275 3.04767 18.0642 3.85295 17.8487L5.70798 17.3524C6.02844 17.2666 6.36784 17.3159 6.66477 17.4638C7.78213 18.0203 9.04209 18.3333 10.3752 18.3333Z" stroke="#202939" stroke-width="1.25"/>
<path d="M7.0415 8.75H13.7082" stroke="#202939" stroke-width="1.25" stroke-linecap="round"/>
<path d="M7.0415 11.6667H11.6248" stroke="#202939" stroke-width="1.25" stroke-linecap="round"/>
</svg>
