<svg width="55" height="49" viewBox="0 0 55 49" fill="none" xmlns="http://www.w3.org/2000/svg">
<g clip-path="url(#clip0_34_175)">
<path opacity="0.4" d="M0.139404 6.02457V42.172C0.139404 45.4949 2.84105 48.1965 6.16397 48.1965H30.2622C33.5852 48.1965 36.2868 45.4949 36.2868 42.172V36.7875L36.1833 36.8911C35.7973 37.277 35.3172 37.55 34.7807 37.6818L29.3209 39.0561C29.1515 39.122 28.9538 39.1597 28.7561 39.1597C26.751 39.1691 24.7366 39.1691 22.7315 39.1691C22.1573 39.1691 21.6396 38.849 21.3854 38.3407L20.557 36.6745C20.397 36.3545 20.077 36.1568 19.7287 36.1568C19.3804 36.1568 19.0509 36.3545 18.9003 36.6745L18.0719 38.3407C17.7989 38.8961 17.2059 39.2256 16.594 39.1691C15.9821 39.1126 15.455 38.689 15.2855 38.1054L13.6947 32.8527L12.7722 35.9403C12.198 37.8512 10.4376 39.1597 8.44201 39.1597H7.67011C6.84173 39.1597 6.16397 38.4819 6.16397 37.6535C6.16397 36.8252 6.84173 36.1474 7.67011 36.1474H8.44201C9.11036 36.1474 9.69399 35.7144 9.88226 35.0743L11.2849 30.4146C11.6049 29.3509 12.5839 28.6167 13.6947 28.6167C14.8055 28.6167 15.7845 29.3415 16.1045 30.4146L17.1965 34.0482C17.893 33.4646 18.7779 33.1351 19.7192 33.1351C21.216 33.1351 22.5809 33.9823 23.2493 35.319L23.6635 36.1474H27.5794C27.956 34.6318 28.3325 33.1257 28.709 31.6101C28.8408 31.083 29.1138 30.5935 29.4998 30.2076C31.759 27.9483 34.0182 25.6797 36.2868 23.4205V15.052H24.2377C22.5715 15.052 21.2254 13.7059 21.2254 12.0397V0H6.16397C2.84105 0 0.139404 2.70164 0.139404 6.02457Z" fill="#0091F0"/>
<path d="M36.2868 15.0614H24.2376C22.5715 15.0614 21.2253 13.7153 21.2253 12.0491V0L36.2868 15.0614ZM51.8941 13.1505L53.2497 14.506C54.7182 15.9745 54.7182 18.3561 53.2497 19.834L50.4821 22.6015L43.7986 15.918L46.5662 13.1505C48.0347 11.682 50.4162 11.682 51.8941 13.1505ZM29.4997 30.217L41.6618 18.0549L48.3453 24.7384L36.1832 36.8911C35.7973 37.277 35.3172 37.55 34.7806 37.6818L29.1232 39.0938C28.6054 39.2256 28.0689 39.075 27.6923 38.6984C27.3158 38.3219 27.1652 37.7853 27.297 37.2676L28.709 31.6101C28.8408 31.083 29.1138 30.5935 29.4997 30.2076V30.217Z" fill="#0091F0"/>
</g>
<defs>
<clipPath id="clip0_34_175">
<rect width="54.2211" height="48.1965" fill="white" transform="translate(0.139404)"/>
</clipPath>
</defs>
</svg>
