<svg width="95" height="95" viewBox="0 0 95 95" fill="none" xmlns="http://www.w3.org/2000/svg">
<path d="M0.157959 47.0866C0.157959 8.30635 8.46968 -0.00537109 47.2499 -0.00537109C86.0301 -0.00537109 94.3418 8.30635 94.3418 47.0866C94.3418 85.8668 86.0301 94.1785 47.2499 94.1785C8.46968 94.1785 0.157959 85.8668 0.157959 47.0866Z" fill="white"/>
<g clip-path="url(#clip0_34_164)">
<path opacity="0.4" d="M20.1394 29.0246V65.172C20.1394 68.4949 22.841 71.1965 26.164 71.1965H50.2622C53.5852 71.1965 56.2868 68.4949 56.2868 65.172V59.7875L56.1833 59.8911C55.7973 60.277 55.3172 60.55 54.7807 60.6818L49.3209 62.0561C49.1515 62.122 48.9538 62.1597 48.7561 62.1597C46.751 62.1691 44.7366 62.1691 42.7315 62.1691C42.1573 62.1691 41.6396 61.849 41.3854 61.3407L40.557 59.6745C40.397 59.3545 40.077 59.1568 39.7287 59.1568C39.3804 59.1568 39.0509 59.3545 38.9003 59.6745L38.0719 61.3407C37.7989 61.8961 37.2059 62.2256 36.594 62.1691C35.9821 62.1126 35.455 61.689 35.2855 61.1054L33.6947 55.8527L32.7722 58.9403C32.198 60.8512 30.4376 62.1597 28.442 62.1597H27.6701C26.8417 62.1597 26.164 61.4819 26.164 60.6535C26.164 59.8252 26.8417 59.1474 27.6701 59.1474H28.442C29.1104 59.1474 29.694 58.7144 29.8823 58.0743L31.2849 53.4146C31.6049 52.3509 32.5839 51.6167 33.6947 51.6167C34.8055 51.6167 35.7845 52.3415 36.1045 53.4146L37.1965 57.0482C37.893 56.4646 38.7779 56.1351 39.7192 56.1351C41.216 56.1351 42.5809 56.9823 43.2493 58.319L43.6635 59.1474H47.5794C47.956 57.6318 48.3325 56.1257 48.709 54.6101C48.8408 54.083 49.1138 53.5935 49.4998 53.2076C51.759 50.9483 54.0182 48.6797 56.2868 46.4205V38.052H44.2377C42.5715 38.052 41.2254 36.7059 41.2254 35.0397V23H26.164C22.841 23 20.1394 25.7016 20.1394 29.0246Z" fill="#0091F0"/>
<path d="M56.2868 38.0614H44.2376C42.5715 38.0614 41.2253 36.7153 41.2253 35.0491V23L56.2868 38.0614ZM71.8941 36.1505L73.2497 37.506C74.7182 38.9745 74.7182 41.3561 73.2497 42.834L70.4821 45.6015L63.7986 38.918L66.5662 36.1505C68.0347 34.682 70.4162 34.682 71.8941 36.1505ZM49.4997 53.217L61.6618 41.0549L68.3453 47.7384L56.1832 59.8911C55.7973 60.277 55.3172 60.55 54.7806 60.6818L49.1232 62.0938C48.6054 62.2256 48.0689 62.075 47.6923 61.6984C47.3158 61.3219 47.1652 60.7853 47.297 60.2676L48.709 54.6101C48.8408 54.083 49.1138 53.5935 49.4997 53.2076V53.217Z" fill="#0091F0"/>
</g>
<defs>
<clipPath id="clip0_34_164">
<rect width="54.2211" height="48.1965" fill="white" transform="translate(20.1394 23)"/>
</clipPath>
</defs>
</svg>
