<svg width="38" height="50" viewBox="0 0 38 50" fill="none" xmlns="http://www.w3.org/2000/svg">
<g clip-path="url(#clip0_34_157)">
<path opacity="0.4" d="M0.875 7.01782C0.875 3.67613 3.5919 0.959229 6.93359 0.959229H22.0801V13.0764C22.0801 14.752 23.4338 16.1057 25.1094 16.1057H37.2266V43.3694C37.2266 46.7111 34.5097 49.428 31.168 49.428H6.93359C3.5919 49.428 0.875 46.7111 0.875 43.3694V7.01782ZM9.96289 26.7083C9.96289 27.5413 10.6445 28.2229 11.4775 28.2229H26.624C27.4571 28.2229 28.1387 27.5413 28.1387 26.7083C28.1387 25.8752 27.4571 25.1936 26.624 25.1936H11.4775C10.6445 25.1936 9.96289 25.8752 9.96289 26.7083ZM9.96289 32.7668C9.96289 33.5999 10.6445 34.2815 11.4775 34.2815H26.624C27.4571 34.2815 28.1387 33.5999 28.1387 32.7668C28.1387 31.9338 27.4571 31.2522 26.624 31.2522H11.4775C10.6445 31.2522 9.96289 31.9338 9.96289 32.7668ZM9.96289 38.8254C9.96289 39.6585 10.6445 40.3401 11.4775 40.3401H26.624C27.4571 40.3401 28.1387 39.6585 28.1387 38.8254C28.1387 37.9924 27.4571 37.3108 26.624 37.3108H11.4775C10.6445 37.3108 9.96289 37.9924 9.96289 38.8254Z" fill="#0091F0"/>
<path d="M37.2266 16.1057L22.0801 0.959229V13.0764C22.0801 14.752 23.4338 16.1057 25.1094 16.1057H37.2266ZM11.4775 25.1936C10.6445 25.1936 9.96289 25.8752 9.96289 26.7083C9.96289 27.5413 10.6445 28.2229 11.4775 28.2229H26.624C27.4571 28.2229 28.1387 27.5413 28.1387 26.7083C28.1387 25.8752 27.4571 25.1936 26.624 25.1936H11.4775ZM11.4775 31.2522C10.6445 31.2522 9.96289 31.9338 9.96289 32.7668C9.96289 33.5999 10.6445 34.2815 11.4775 34.2815H26.624C27.4571 34.2815 28.1387 33.5999 28.1387 32.7668C28.1387 31.9338 27.4571 31.2522 26.624 31.2522H11.4775ZM11.4775 37.3108C10.6445 37.3108 9.96289 37.9924 9.96289 38.8254C9.96289 39.6585 10.6445 40.3401 11.4775 40.3401H26.624C27.4571 40.3401 28.1387 39.6585 28.1387 38.8254C28.1387 37.9924 27.4571 37.3108 26.624 37.3108H11.4775Z" fill="#0091F0"/>
</g>
<defs>
<clipPath id="clip0_34_157">
<rect width="36.3516" height="48.4688" fill="white" transform="translate(0.875 0.959229)"/>
</clipPath>
</defs>
</svg>
