<svg width="20" height="20" viewBox="0 0 20 20" fill="none" xmlns="http://www.w3.org/2000/svg">
<path d="M1.5 5.59389L1.14645 5.24034L1 5.38678V5.59389H1.5ZM1.5 18.675H1V19.175H1.5V18.675ZM5.4189 1.67499V1.17499H5.2118L5.06535 1.32143L5.4189 1.67499ZM12.1107 1.67499H12.6107V1.17499H12.1107V1.67499ZM12.1107 5.89646V6.39646H12.6107V5.89646H12.1107ZM5.72148 5.89646V5.39646H5.22148V5.89646H5.72148ZM5.72148 14.4535H5.22148V14.9535H5.72148V14.4535ZM14.2785 14.4535V14.9535H14.7785V14.4535H14.2785ZM14.2785 8.06425V7.56425H13.7785V8.06425H14.2785ZM18.5 8.06425H19V7.56425H18.5V8.06425ZM18.5 14.7561L18.8535 15.1097L19 14.9632V14.7561H18.5ZM14.5805 18.675V19.175H14.7876L14.9341 19.0286L14.5805 18.675ZM14.2786 1.67499V1.17499H13.7786V1.67499H14.2786ZM18.5 1.67499H19V1.17499H18.5V1.67499ZM14.2786 5.89646H13.7786V6.39646H14.2786V5.89646ZM18.5 5.89646V6.39646H19V5.89646H18.5ZM12.1106 8.06433H12.6106V7.56433H12.1106V8.06433ZM7.88916 8.06433V7.56433H7.38916V8.06433H7.88916ZM12.1106 12.2858V12.7858H12.6106V12.2858H12.1106ZM7.88916 12.2858H7.38916V12.7858H7.88916V12.2858ZM1 5.59389V18.675H2V5.59389H1ZM5.06535 1.32143L1.14645 5.24034L1.85355 5.94744L5.77246 2.02854L5.06535 1.32143ZM12.1107 1.17499H5.4189V2.17499H12.1107V1.17499ZM12.6107 5.89646V1.67499H11.6107V5.89646H12.6107ZM5.72148 6.39646H12.1107V5.39646H5.72148V6.39646ZM6.22148 14.4535V5.89646H5.22148V14.4535H6.22148ZM14.2785 13.9535H5.72148V14.9535H14.2785V13.9535ZM13.7785 8.06425V14.4535H14.7785V8.06425H13.7785ZM18.5 7.56425H14.2785V8.56425H18.5V7.56425ZM19 14.7561V8.06425H18V14.7561H19ZM14.9341 19.0286L18.8535 15.1097L18.1465 14.4025L14.227 18.3214L14.9341 19.0286ZM1.5 19.175H14.5805V18.175H1.5V19.175ZM14.2786 2.17499H18.5V1.17499H14.2786V2.17499ZM14.7786 5.89646V1.67499H13.7786V5.89646H14.7786ZM18.5 5.39646H14.2786V6.39646H18.5V5.39646ZM18 1.67499V5.89646H19V1.67499H18ZM12.1106 7.56433H7.88916V8.56433H12.1106V7.56433ZM12.6106 12.2858V8.06433H11.6106V12.2858H12.6106ZM7.88916 12.7858H12.1106V11.7858H7.88916V12.7858ZM7.38916 8.06433V12.2858H8.38916V8.06433H7.38916Z" fill="#202939"/>
</svg>
