<svg width="14" height="15" viewBox="0 0 14 15" fill="none" xmlns="http://www.w3.org/2000/svg">
<path d="M7.21828 4.24121C9.12551 4.24121 10.6997 5.81543 10.6997 7.72266C10.6997 9.66016 9.12551 11.2041 7.21828 11.2041C5.28078 11.2041 3.73683 9.66016 3.73683 7.72266C3.73683 5.81543 5.28078 4.24121 7.21828 4.24121ZM7.21828 9.99316C8.45949 9.99316 9.45851 8.99414 9.45851 7.72266C9.45851 6.48145 8.45949 5.48242 7.21828 5.48242C5.94679 5.48242 4.94777 6.48145 4.94777 7.72266C4.94777 8.99414 5.97707 9.99316 7.21828 9.99316ZM11.6382 4.12012C11.6382 4.57422 11.2749 4.9375 10.8208 4.9375C10.3667 4.9375 10.0034 4.57422 10.0034 4.12012C10.0034 3.66602 10.3667 3.30273 10.8208 3.30273C11.2749 3.30273 11.6382 3.66602 11.6382 4.12012ZM13.939 4.9375C13.9995 6.05762 13.9995 9.41797 13.939 10.5381C13.8784 11.6279 13.6362 12.5664 12.8491 13.3838C12.062 14.1709 11.0933 14.4131 10.0034 14.4736C8.88332 14.5342 5.52297 14.5342 4.40285 14.4736C3.31301 14.4131 2.37453 14.1709 1.55715 13.3838C0.770037 12.5664 0.52785 11.6279 0.467303 10.5381C0.406756 9.41797 0.406756 6.05762 0.467303 4.9375C0.52785 3.84766 0.770037 2.87891 1.55715 2.0918C2.37453 1.30469 3.31301 1.0625 4.40285 1.00195C5.52297 0.941406 8.88332 0.941406 10.0034 1.00195C11.0933 1.0625 12.062 1.30469 12.8491 2.0918C13.6362 2.87891 13.8784 3.84766 13.939 4.9375ZM12.4859 11.7188C12.8491 10.8408 12.7583 8.72168 12.7583 7.72266C12.7583 6.75391 12.8491 4.63477 12.4859 3.72656C12.2437 3.15137 11.7896 2.66699 11.2144 2.45508C10.3062 2.0918 8.18703 2.18262 7.21828 2.18262C6.21926 2.18262 4.10012 2.0918 3.22219 2.45508C2.61672 2.69727 2.16262 3.15137 1.92043 3.72656C1.55715 4.63477 1.64797 6.75391 1.64797 7.72266C1.64797 8.72168 1.55715 10.8408 1.92043 11.7188C2.16262 12.3242 2.61672 12.7783 3.22219 13.0205C4.10012 13.3838 6.21926 13.293 7.21828 13.293C8.18703 13.293 10.3062 13.3838 11.2144 13.0205C11.7896 12.7783 12.2739 12.3242 12.4859 11.7188Z" fill="#4B5565"/>
</svg>
