<svg width="21" height="20" viewBox="0 0 21 20" fill="none" xmlns="http://www.w3.org/2000/svg">
<path d="M7.59295 15.7591L7.97987 15.2682L7.59295 15.7591ZM10.1248 4.58386L9.67445 5.01736L9.68298 5.02588L10.1248 4.58386ZM12.6567 15.7591L13.0437 16.2499L12.6567 15.7591ZM11.3496 6.69195C11.5938 6.93598 11.9895 6.93591 12.2335 6.69179C12.4776 6.44766 12.4775 6.05194 12.2334 5.8079L11.3496 6.69195ZM7.97987 15.2682C6.71683 14.2726 5.33573 13.3002 4.24008 12.0665C3.16585 10.8569 2.4165 9.44542 2.4165 7.61425H1.1665C1.1665 9.83553 2.09192 11.53 3.30543 12.8965C4.49752 14.2388 6.01714 15.3127 7.20602 16.2499L7.97987 15.2682ZM2.4165 7.61425C2.4165 5.82186 3.42931 4.31877 4.8118 3.68683C6.15489 3.0729 7.95956 3.23548 9.67453 5.01728L10.5751 4.15044C8.54025 2.03627 6.17825 1.68782 4.29214 2.54997C2.44543 3.3941 1.1665 5.35419 1.1665 7.61425H2.4165ZM7.20602 16.2499C7.63288 16.5864 8.09112 16.9452 8.55552 17.2166C9.01972 17.4879 9.5495 17.7083 10.1248 17.7083V16.4583C9.86684 16.4583 9.56329 16.3577 9.18618 16.1374C8.80927 15.9171 8.41823 15.6138 7.97987 15.2682L7.20602 16.2499ZM13.0437 16.2499C14.2325 15.3127 15.7521 14.2388 16.9442 12.8965C18.1578 11.53 19.0832 9.83553 19.0832 7.61425H17.8332C17.8332 9.44542 17.0838 10.8569 16.0096 12.0665C14.9139 13.3002 13.5328 14.2726 12.2698 15.2682L13.0437 16.2499ZM19.0832 7.61425C19.0832 5.35419 17.8042 3.3941 15.9575 2.54997C14.0714 1.68782 11.7094 2.03627 9.67453 4.15044L10.5751 5.01728C12.2901 3.23548 14.0948 3.0729 15.4379 3.68683C16.8204 4.31877 17.8332 5.82186 17.8332 7.61425H19.0832ZM12.2698 15.2682C11.8314 15.6138 11.4404 15.9171 11.0635 16.1374C10.6864 16.3577 10.3828 16.4583 10.1248 16.4583V17.7083C10.7002 17.7083 11.23 17.4879 11.6942 17.2166C12.1585 16.9452 12.6168 16.5864 13.0437 16.2499L12.2698 15.2682ZM9.68298 5.02588L11.3496 6.69195L12.2334 5.8079L10.5667 4.14184L9.68298 5.02588Z" fill="#202939"/>
</svg>
