<svg width="14" height="14" viewBox="0 0 14 14" fill="none" xmlns="http://www.w3.org/2000/svg">
<path d="M3.10451 13.5352H0.28908V4.4834H3.10451V13.5352ZM1.68166 3.27246C0.803729 3.27246 0.0771661 2.51562 0.0771661 1.60742C0.0771661 0.729492 0.803729 0.00292969 1.68166 0.00292969C2.58986 0.00292969 3.31642 0.729492 3.31642 1.60742C3.31642 2.51562 2.58986 3.27246 1.68166 3.27246ZM13.6094 13.5352H10.8242V9.14551C10.8242 8.08594 10.794 6.75391 9.34084 6.75391C7.88771 6.75391 7.6758 7.87402 7.6758 9.05469V13.5352H4.86037V4.4834H7.55471V5.72461H7.58498C7.97853 5.02832 8.88674 4.27148 10.249 4.27148C13.0947 4.27148 13.6397 6.14844 13.6397 8.57031V13.5352H13.6094Z" fill="#4B5565"/>
</svg>
