<svg width="246" height="61" viewBox="0 0 246 61" fill="none" xmlns="http://www.w3.org/2000/svg">
<path d="M95.6333 32.47C93.7916 32.47 92.0782 32.1443 90.4951 31.4949C88.912 30.8455 87.5125 29.9355 86.2965 28.7669C85.0786 27.5983 84.141 26.2402 83.4797 24.6927C82.8184 23.1451 82.4868 21.4751 82.4868 19.6789C82.4868 17.8826 82.8224 16.2126 83.4975 14.665C84.1706 13.1175 85.0983 11.7594 86.2788 10.5908C87.4592 9.42224 88.8409 8.51225 90.424 7.86282C92.0071 7.2134 93.7186 6.8877 95.5622 6.8877C97.5934 6.8877 99.5239 7.29433 101.356 8.10957C103.186 8.92481 104.692 10.0638 105.874 11.5284L102.295 14.8229C101.445 13.759 100.448 12.9576 99.3009 12.4128C98.154 11.8699 96.9084 11.5975 95.5622 11.5975C94.4292 11.5975 93.3889 11.8048 92.4434 12.2173C91.4979 12.6299 90.6767 13.1984 89.9819 13.9189C89.2851 14.6394 88.7422 15.4842 88.3514 16.4515C87.9625 17.4207 87.7671 18.4945 87.7671 19.6749C87.7671 20.8553 87.9685 21.9074 88.3692 22.8984C88.7699 23.8912 89.3324 24.746 90.0529 25.4665C90.7734 26.1869 91.6183 26.7535 92.5855 27.168C93.5547 27.5806 94.6049 27.7878 95.7399 27.7878C96.8749 27.7878 97.9487 27.5628 98.8942 27.1147C99.8398 26.6666 100.635 26.0507 101.287 25.273C101.936 24.4933 102.366 23.607 102.58 22.6161H95.2444V18.151H108.071V19.7104C108.071 21.5521 107.757 23.2477 107.132 24.7953C106.506 26.3429 105.637 27.6891 104.528 28.834C103.417 29.9809 102.106 30.8711 100.594 31.5087C99.0818 32.1463 97.4276 32.4661 95.6333 32.4661V32.47Z" fill="white"/>
<path d="M111.579 32.0809V7.27637H123.661C125.363 7.27637 126.855 7.60207 128.144 8.2515C129.431 8.90092 130.436 9.80499 131.156 10.9617C131.877 12.1185 132.238 13.4548 132.238 14.9649C132.238 16.4749 131.8 17.912 130.927 19.1279C130.053 20.3459 128.884 21.2479 127.42 21.8382L132.911 32.079H127.171L122.317 22.5823H116.719V32.079H111.581L111.579 32.0809ZM116.717 18.368H123.237C124.394 18.368 125.321 18.062 126.018 17.4461C126.715 16.8322 127.064 16.0288 127.064 15.0359C127.064 14.043 126.715 13.2061 126.018 12.5902C125.321 11.9763 124.394 11.6684 123.237 11.6684H116.717V18.366V18.368Z" fill="white"/>
<path d="M133.618 32.0809L143.823 7.27832H149.777L159.84 32.0809H154.277L151.76 25.5965H141.484L138.967 32.0809H133.618ZM143.077 21.4493H150.199L146.691 12.3079L143.077 21.4493Z" fill="white"/>
<path d="M161.928 32.0809V7.27637H181.062V11.7414H167.066V17.5883H176.385V21.8757H167.066V32.0809H161.928Z" fill="white"/>
<path d="M184.569 32.0809V7.27637H203.703V11.7414H189.708V17.5883H199.026V21.8757H189.708V32.0809H184.569Z" fill="white"/>
<path d="M207.21 32.0809V7.27637H212.349V32.079H207.21V32.0809Z" fill="white"/>
<path d="M223.616 32.0809V11.8125H215.254V7.27637H237.08V11.8125H228.754V32.0809H223.616Z" fill="white"/>
<path d="M239.95 32.0809V7.27637H245.089V32.079H239.95V32.0809Z" fill="white"/>
<path d="M86.4148 53.8832V39.2661H93.1598C94.1211 39.2661 94.9561 39.4477 95.6647 39.8089C96.3753 40.1702 96.932 40.6834 97.3347 41.3427C97.7393 42.004 97.9407 42.7738 97.9407 43.6502C97.9407 44.5267 97.7393 45.2472 97.3347 45.8946C96.93 46.5421 96.3714 47.0533 95.6529 47.4284C94.9363 47.8054 94.1033 47.9929 93.1578 47.9929H88.6059V53.8812H86.4128L86.4148 53.8832ZM88.6079 46.1354H92.9505C93.7993 46.1354 94.4744 45.9124 94.9758 45.4663C95.4772 45.0202 95.7279 44.4161 95.7279 43.6502C95.7279 42.8844 95.4772 42.3001 94.9758 41.854C94.4744 41.4078 93.7993 41.1868 92.9505 41.1868H88.6079V46.1354Z" fill="white"/>
<path d="M106.48 53.8832V39.2661H113.079C114.054 39.2661 114.907 39.4477 115.637 39.8089C116.367 40.1702 116.938 40.6755 117.349 41.323C117.759 41.9704 117.964 42.7324 117.964 43.6088C117.964 44.5563 117.69 45.3814 117.139 46.0821C116.589 46.7849 115.868 47.2823 114.978 47.5744L118.215 53.8812H115.771L112.765 47.8883H108.673V53.8812H106.48V53.8832ZM108.673 46.0525H112.911C113.774 46.0525 114.463 45.8334 114.978 45.3952C115.493 44.957 115.752 44.3609 115.752 43.6108C115.752 42.8607 115.493 42.2843 114.978 41.8461C114.463 41.4078 113.774 41.1887 112.911 41.1887H108.673V46.0545V46.0525Z" fill="white"/>
<path d="M133.438 54.1122C132.394 54.1122 131.409 53.9207 130.483 53.5378C129.557 53.1548 128.746 52.6179 128.051 51.929C127.354 51.2401 126.816 50.4387 126.433 49.5267C126.05 48.6147 125.858 47.6297 125.858 46.5717C125.858 45.5137 126.05 44.5287 126.433 43.6167C126.816 42.7048 127.354 41.9053 128.051 41.2144C128.748 40.5255 129.557 39.9886 130.483 39.6057C131.409 39.2227 132.394 39.0312 133.438 39.0312C134.482 39.0312 135.509 39.2227 136.435 39.6057C137.36 39.9886 138.172 40.5236 138.866 41.2144C139.561 41.9033 140.104 42.7048 140.495 43.6167C140.884 44.5287 141.079 45.5137 141.079 46.5717C141.079 47.6297 140.884 48.6147 140.495 49.5267C140.104 50.4387 139.561 51.2381 138.866 51.929C138.17 52.6179 137.358 53.1548 136.435 53.5378C135.509 53.9207 134.51 54.1122 133.438 54.1122ZM133.48 52.0869C134.232 52.0869 134.93 51.9487 135.578 51.6704C136.225 51.3921 136.796 51.0052 137.289 50.5117C137.783 50.0182 138.166 49.432 138.438 48.7569C138.711 48.0818 138.845 47.3554 138.845 46.5757C138.845 45.796 138.705 45.0695 138.428 44.3945C138.15 43.7194 137.767 43.1351 137.279 42.6396C136.792 42.1461 136.225 41.7592 135.578 41.4809C134.93 41.2026 134.224 41.0624 133.458 41.0624C132.692 41.0624 132.003 41.2026 131.35 41.4809C130.696 41.7592 130.124 42.1461 129.638 42.6396C129.151 43.1331 128.772 43.7194 128.499 44.3945C128.227 45.0695 128.093 45.7979 128.093 46.5757C128.093 47.3534 128.229 48.0838 128.499 48.7569C128.772 49.432 129.151 50.0162 129.638 50.5117C130.126 51.0052 130.7 51.3921 131.362 51.6704C132.023 51.9487 132.729 52.0869 133.482 52.0869H133.48Z" fill="white"/>
<path d="M152.69 53.8832V41.2085H147.554V39.2661H160.019V41.2085H154.883V53.8832H152.69Z" fill="white"/>
<path d="M174.093 54.1122C173.049 54.1122 172.064 53.9207 171.138 53.5378C170.213 53.1548 169.401 52.6179 168.706 51.929C168.01 51.2401 167.471 50.4387 167.088 49.5267C166.705 48.6147 166.513 47.6297 166.513 46.5717C166.513 45.5137 166.705 44.5287 167.088 43.6167C167.471 42.7048 168.01 41.9053 168.706 41.2144C169.401 40.5255 170.213 39.9886 171.138 39.6057C172.064 39.2227 173.049 39.0312 174.093 39.0312C175.138 39.0312 176.164 39.2227 177.09 39.6057C178.016 39.9886 178.827 40.5236 179.522 41.2144C180.217 41.9033 180.759 42.7048 181.15 43.6167C181.539 44.5287 181.734 45.5137 181.734 46.5717C181.734 47.6297 181.539 48.6147 181.15 49.5267C180.759 50.4387 180.217 51.2381 179.522 51.929C178.825 52.6179 178.014 53.1548 177.09 53.5378C176.164 53.9207 175.165 54.1122 174.093 54.1122ZM174.135 52.0869C174.887 52.0869 175.586 51.9487 176.233 51.6704C176.881 51.3921 177.451 51.0052 177.945 50.5117C178.438 50.0182 178.821 49.432 179.093 48.7569C179.366 48.0818 179.5 47.3554 179.5 46.5757C179.5 45.796 179.36 45.0695 179.083 44.3945C178.805 43.7194 178.422 43.1351 177.935 42.6396C177.447 42.1461 176.881 41.7592 176.233 41.4809C175.586 41.2026 174.879 41.0624 174.113 41.0624C173.347 41.0624 172.658 41.2026 172.005 41.4809C171.352 41.7592 170.779 42.1461 170.294 42.6396C169.806 43.1331 169.427 43.7194 169.157 44.3945C168.884 45.0695 168.75 45.7979 168.75 46.5757C168.75 47.3534 168.886 48.0838 169.157 48.7569C169.429 49.432 169.806 50.0162 170.294 50.5117C170.781 51.0052 171.355 51.3921 172.017 51.6704C172.678 51.9487 173.385 52.0869 174.137 52.0869H174.135Z" fill="white"/>
<path d="M197.354 54.1121C196.269 54.1121 195.262 53.9207 194.336 53.5377C193.41 53.1548 192.595 52.6179 191.892 51.929C191.19 51.2401 190.647 50.4386 190.264 49.5267C189.881 48.6147 189.689 47.6297 189.689 46.5717C189.689 45.5136 189.881 44.5089 190.264 43.5969C190.647 42.685 191.19 41.8875 191.892 41.2065C192.595 40.5235 193.412 39.9925 194.346 39.6096C195.278 39.2266 196.28 39.0352 197.352 39.0352C198.118 39.0352 198.866 39.1358 199.597 39.3372C200.327 39.5385 201.002 39.8287 201.622 40.2037C202.242 40.5788 202.789 41.0387 203.26 41.5815L201.778 43.064C201.235 42.4106 200.574 41.9132 199.794 41.5717C199.014 41.2302 198.201 41.0604 197.35 41.0604C196.571 41.0604 195.854 41.2006 195.199 41.4789C194.545 41.7572 193.969 42.1481 193.475 42.6475C192.982 43.1489 192.599 43.7331 192.327 44.4023C192.054 45.0715 191.92 45.7939 191.92 46.5736C191.92 47.3534 192.056 48.0778 192.327 48.745C192.599 49.4142 192.98 49.9984 193.475 50.4998C193.969 51.0012 194.553 51.3901 195.23 51.6684C195.905 51.9467 196.626 52.0849 197.392 52.0849C198.241 52.0849 199.048 51.9112 199.814 51.5618C200.58 51.2144 201.227 50.7327 201.756 50.1208L203.197 51.5835C202.723 52.0987 202.177 52.5468 201.559 52.9297C200.939 53.3127 200.272 53.6048 199.553 53.8062C198.837 54.0075 198.102 54.1102 197.35 54.1102L197.354 54.1121Z" fill="white"/>
<path d="M218.256 54.1122C217.212 54.1122 216.227 53.9207 215.301 53.5378C214.376 53.1548 213.564 52.6179 212.87 51.929C212.173 51.2401 211.634 50.4387 211.251 49.5267C210.868 48.6147 210.677 47.6297 210.677 46.5717C210.677 45.5137 210.868 44.5287 211.251 43.6167C211.634 42.7048 212.173 41.9053 212.87 41.2144C213.564 40.5255 214.376 39.9886 215.301 39.6057C216.227 39.2227 217.212 39.0312 218.256 39.0312C219.301 39.0312 220.327 39.2227 221.253 39.6057C222.179 39.9886 222.99 40.5236 223.685 41.2144C224.38 41.9033 224.922 42.7048 225.313 43.6167C225.702 44.5287 225.898 45.5137 225.898 46.5717C225.898 47.6297 225.702 48.6147 225.313 49.5267C224.922 50.4387 224.38 51.2381 223.685 51.929C222.988 52.6179 222.177 53.1548 221.253 53.5378C220.327 53.9207 219.328 54.1122 218.256 54.1122ZM218.298 52.0869C219.05 52.0869 219.749 51.9487 220.396 51.6704C221.044 51.3921 221.614 51.0052 222.108 50.5117C222.601 50.0182 222.984 49.432 223.256 48.7569C223.529 48.0818 223.663 47.3554 223.663 46.5757C223.663 45.796 223.523 45.0695 223.247 44.3945C222.968 43.7194 222.585 43.1351 222.098 42.6396C221.61 42.1461 221.044 41.7592 220.396 41.4809C219.749 41.2026 219.042 41.0624 218.276 41.0624C217.51 41.0624 216.821 41.2026 216.168 41.4809C215.515 41.7592 214.942 42.1461 214.457 42.6396C213.969 43.1331 213.59 43.7194 213.32 44.3945C213.047 45.0695 212.913 45.7979 212.913 46.5757C212.913 47.3534 213.049 48.0838 213.32 48.7569C213.592 49.432 213.969 50.0162 214.457 50.5117C214.944 51.0052 215.519 51.3921 216.18 51.6704C216.841 51.9487 217.548 52.0869 218.3 52.0869H218.298Z" fill="white"/>
<path d="M234.502 53.8832V39.2661H236.695V51.9408H245.088V53.8832H234.502Z" fill="white"/>
<path d="M0.911621 60.5V14.3314L14.7431 0.5H38.3593V15.3993H15.809V45.6007H46.0123V23.0503H60.9097V46.6686L47.0782 60.5H0.911621Z" fill="white"/>
<path d="M60.9115 0.5H46.0122V15.3993H60.9115V0.5Z" fill="#0091F0"/>
<path d="M38.3612 23.0503H23.4619V37.9496H38.3612V23.0503Z" fill="#0091F0"/>
</svg>
