<svg width="163" height="41" viewBox="0 0 163 41" fill="none" xmlns="http://www.w3.org/2000/svg">
<path d="M63.1479 21.8566C61.9201 21.8566 60.7778 21.6395 59.7224 21.2065C58.667 20.7736 57.734 20.1669 56.9234 19.3879C56.1114 18.6088 55.4863 17.7034 55.0455 16.6717C54.6046 15.64 54.3835 14.5267 54.3835 13.3292C54.3835 12.1316 54.6073 11.0183 55.0573 9.98662C55.5061 8.9549 56.1246 8.04952 56.9115 7.27047C57.6985 6.49142 58.6196 5.88476 59.675 5.45181C60.7304 5.01886 61.8714 4.80172 63.1005 4.80172C64.4546 4.80172 65.7416 5.07281 66.9628 5.6163C68.1827 6.1598 69.1868 6.91911 69.9751 7.89555L67.5892 10.0919C67.022 9.38259 66.3575 8.84831 65.5929 8.4851C64.8283 8.12321 63.998 7.94161 63.1005 7.94161C62.3451 7.94161 61.6516 8.07979 61.0213 8.35482C60.3909 8.62986 59.8435 9.00886 59.3789 9.48918C58.9144 9.96951 58.5525 10.5327 58.292 11.1776C58.0314 11.8237 57.9024 12.5396 57.9024 13.3265C57.9024 14.1135 58.0367 14.8149 58.3038 15.4755C58.5709 16.1374 58.946 16.7072 59.4263 17.1876C59.9066 17.6679 60.4699 18.0456 61.1147 18.3219C61.7608 18.597 62.4609 18.7351 63.2176 18.7351C63.9743 18.7351 64.6902 18.5851 65.3205 18.2864C65.9495 17.9877 66.4812 17.5771 66.9155 17.0586C67.3484 16.5388 67.6353 15.9479 67.7774 15.2873H62.8873V12.3106H71.4384V13.3502C71.4384 14.578 71.2292 15.7084 70.812 16.7401C70.3949 17.7719 69.8158 18.6693 69.0763 19.4326C68.3354 20.1972 67.4616 20.7907 66.4549 21.2157C65.4468 21.6408 64.3441 21.854 63.1479 21.854V21.8566Z" fill="black"/>
<path d="M73.7782 21.5974V5.06097H81.8332C82.9676 5.06097 83.9624 5.2781 84.8218 5.71105C85.6798 6.144 86.3496 6.74671 86.8299 7.51787C87.3102 8.28902 87.5497 9.17993 87.5497 10.1866C87.5497 11.1934 87.2576 12.1514 86.676 12.962C86.093 13.774 85.3139 14.3753 84.3375 14.7688L87.9985 21.596H84.1717L80.9357 15.2649H77.2036V21.596H73.7782V21.5974ZM77.2036 12.4554H81.5503C82.3214 12.4554 82.9399 12.2514 83.4045 11.8408C83.869 11.4315 84.1006 10.8959 84.1006 10.234C84.1006 9.57209 83.8677 9.01412 83.4045 8.60354C82.9399 8.19427 82.3214 7.98898 81.5503 7.98898H77.2036V12.454V12.4554Z" fill="black"/>
<path d="M88.4709 21.5974L95.2745 5.06228H99.2434L105.952 21.5974H102.244L100.567 17.2744H93.7164L92.0398 21.5974H88.4736H88.4709ZM94.7784 14.5096H99.5264L97.1879 8.41536L94.7784 14.5096Z" fill="black"/>
<path d="M107.344 21.5974V5.06097H120.1V8.03767H110.77V11.9356H116.983V14.7938H110.77V21.5974H107.344Z" fill="black"/>
<path d="M122.439 21.5974V5.06097H135.194V8.03767H125.864V11.9356H132.077V14.7938H125.864V21.5974H122.439Z" fill="black"/>
<path d="M137.533 21.5974V5.06097H140.958V21.596H137.533V21.5974Z" fill="black"/>
<path d="M148.47 21.5974V8.08505H142.895V5.06097H157.446V8.08505H151.895V21.5974H148.47Z" fill="black"/>
<path d="M159.359 21.5974V5.06097H162.785V21.596H159.359V21.5974Z" fill="black"/>
<path d="M57.0023 36.1322V26.3875H61.4989C62.1398 26.3875 62.6965 26.5085 63.1689 26.7493C63.6426 26.9902 64.0137 27.3323 64.2822 27.7719C64.5507 28.2127 64.6862 28.7259 64.6862 29.3102C64.6862 29.8945 64.552 30.3748 64.2822 30.8065C64.0124 31.2381 63.64 31.5789 63.161 31.829C62.6833 32.0803 62.128 32.2053 61.4976 32.2053H58.463V36.1308H57.001L57.0023 36.1322ZM58.4643 30.967H61.3594C61.9253 30.967 62.3754 30.8183 62.7096 30.5209C63.0439 30.2235 63.211 29.8208 63.211 29.3102C63.211 28.7996 63.0439 28.4101 62.7096 28.1127C62.3754 27.8153 61.9253 27.6679 61.3594 27.6679H58.4643V30.967Z" fill="black"/>
<path d="M70.3804 36.1322V26.3875H74.7796C75.4297 26.3875 75.9982 26.5085 76.4851 26.7493C76.972 26.9902 77.3523 27.3271 77.6261 27.7587C77.8998 28.1903 78.0366 28.6983 78.0366 29.2826C78.0366 29.9142 77.8537 30.4643 77.4866 30.9315C77.1194 31.4 76.6391 31.7316 76.0456 31.9263L78.2038 36.1308H76.5746L74.5704 32.1356H71.8424V36.1308H70.3804V36.1322ZM71.8411 30.9117H74.6665C75.2415 30.9117 75.7008 30.7657 76.0443 30.4735C76.3877 30.1814 76.5588 29.784 76.5588 29.2839C76.5588 28.7838 76.3864 28.3996 76.0443 28.1074C75.7008 27.8153 75.2415 27.6692 74.6665 27.6692H71.8411V30.9131V30.9117Z" fill="black"/>
<path d="M88.3512 36.2848C87.655 36.2848 86.9983 36.1572 86.3812 35.9019C85.764 35.6466 85.2231 35.2886 84.7599 34.8294C84.2954 34.3701 83.9361 33.8358 83.6808 33.2278C83.4255 32.6199 83.2979 31.9632 83.2979 31.2578C83.2979 30.5525 83.4255 29.8958 83.6808 29.2878C83.9361 28.6799 84.2954 28.1469 84.7599 27.6863C85.2244 27.227 85.764 26.8691 86.3812 26.6138C86.9983 26.3585 87.655 26.2309 88.3512 26.2309C89.0473 26.2309 89.7316 26.3585 90.3488 26.6138C90.966 26.8691 91.5068 27.2257 91.97 27.6863C92.4346 28.1456 92.7965 28.6799 93.0557 29.2878C93.315 29.8958 93.4452 30.5525 93.4452 31.2578C93.4452 31.9632 93.315 32.6199 93.0557 33.2278C92.7952 33.8358 92.4333 34.3688 91.97 34.8294C91.5055 35.2886 90.9647 35.6466 90.3488 35.9019C89.7316 36.1572 89.0657 36.2848 88.3512 36.2848ZM88.3788 34.9346C88.8802 34.9346 89.346 34.8425 89.7777 34.657C90.2093 34.4714 90.5896 34.2135 90.9186 33.8845C91.2476 33.5555 91.5029 33.1647 91.6845 32.7146C91.8661 32.2645 91.9556 31.7803 91.9556 31.2605C91.9556 30.7407 91.8621 30.2564 91.6779 29.8063C91.4924 29.3563 91.2371 28.9667 90.912 28.6364C90.587 28.3074 90.2093 28.0495 89.7777 27.864C89.346 27.6784 88.8749 27.585 88.3643 27.585C87.8537 27.585 87.3944 27.6784 86.9589 27.864C86.522 28.0495 86.1417 28.3074 85.8179 28.6364C85.4929 28.9654 85.2402 29.3563 85.0586 29.8063C84.877 30.2564 84.7875 30.742 84.7875 31.2605C84.7875 31.779 84.8783 32.2659 85.0586 32.7146C85.2402 33.1647 85.4929 33.5542 85.8179 33.8845C86.143 34.2135 86.5259 34.4714 86.9668 34.657C87.4076 34.8425 87.8787 34.9346 88.3801 34.9346H88.3788Z" fill="black"/>
<path d="M101.186 36.1322V27.6824H97.7616V26.3875H106.072V27.6824H102.648V36.1322H101.186Z" fill="black"/>
<path d="M115.455 36.2848C114.759 36.2848 114.102 36.1572 113.485 35.9019C112.868 35.6466 112.327 35.2886 111.864 34.8294C111.399 34.3701 111.04 33.8358 110.784 33.2278C110.529 32.6199 110.401 31.9632 110.401 31.2578C110.401 30.5525 110.529 29.8958 110.784 29.2878C111.04 28.6799 111.399 28.1469 111.864 27.6863C112.328 27.227 112.868 26.8691 113.485 26.6138C114.102 26.3585 114.759 26.2309 115.455 26.2309C116.151 26.2309 116.835 26.3585 117.452 26.6138C118.07 26.8691 118.61 27.2257 119.074 27.6863C119.538 28.1456 119.9 28.6799 120.159 29.2878C120.419 29.8958 120.549 30.5525 120.549 31.2578C120.549 31.9632 120.419 32.6199 120.159 33.2278C119.899 33.8358 119.537 34.3688 119.074 34.8294C118.609 35.2886 118.068 35.6466 117.452 35.9019C116.835 36.1572 116.169 36.2848 115.455 36.2848ZM115.482 34.9346C115.984 34.9346 116.45 34.8425 116.881 34.657C117.313 34.4714 117.693 34.2135 118.022 33.8845C118.351 33.5555 118.607 33.1647 118.788 32.7146C118.97 32.2645 119.059 31.7803 119.059 31.2605C119.059 30.7407 118.966 30.2564 118.782 29.8063C118.596 29.3563 118.341 28.9667 118.016 28.6364C117.691 28.3074 117.313 28.0495 116.881 27.864C116.45 27.6784 115.979 27.585 115.468 27.585C114.957 27.585 114.498 27.6784 114.062 27.864C113.626 28.0495 113.245 28.3074 112.922 28.6364C112.597 28.9654 112.344 29.3563 112.162 29.8063C111.981 30.2564 111.891 30.742 111.891 31.2605C111.891 31.779 111.982 32.2659 112.162 32.7146C112.344 33.1647 112.595 33.5542 112.922 33.8845C113.247 34.2135 113.63 34.4714 114.07 34.657C114.511 34.8425 114.982 34.9346 115.484 34.9346H115.482Z" fill="black"/>
<path d="M130.962 36.2848C130.238 36.2848 129.567 36.1572 128.95 35.9019C128.333 35.6466 127.789 35.2886 127.321 34.8294C126.852 34.3701 126.49 33.8358 126.235 33.2278C125.98 32.6199 125.852 31.9632 125.852 31.2578C125.852 30.5525 125.98 29.8827 126.235 29.2747C126.49 28.6667 126.852 28.1351 127.321 27.681C127.789 27.2257 128.334 26.8717 128.956 26.6164C129.578 26.3611 130.246 26.2335 130.961 26.2335C131.471 26.2335 131.97 26.3006 132.457 26.4348C132.944 26.5691 133.394 26.7625 133.807 27.0125C134.22 27.2626 134.585 27.5692 134.899 27.9311L133.911 28.9194C133.549 28.4838 133.108 28.1522 132.588 27.9245C132.069 27.6968 131.526 27.5837 130.959 27.5837C130.439 27.5837 129.962 27.6771 129.525 27.8627C129.088 28.0482 128.706 28.3088 128.376 28.6417C128.047 28.976 127.792 29.3655 127.61 29.8116C127.429 30.2577 127.339 30.7393 127.339 31.2592C127.339 31.779 127.43 32.2619 127.61 32.7067C127.792 33.1528 128.046 33.5423 128.376 33.8766C128.705 34.2109 129.095 34.4701 129.546 34.6557C129.996 34.8412 130.476 34.9333 130.987 34.9333C131.553 34.9333 132.091 34.8175 132.602 34.5846C133.112 34.353 133.544 34.0319 133.897 33.6239L134.857 34.5991C134.541 34.9425 134.177 35.2413 133.765 35.4965C133.352 35.7518 132.906 35.9466 132.428 36.0808C131.95 36.2151 131.461 36.2835 130.959 36.2835L130.962 36.2848Z" fill="black"/>
<path d="M144.897 36.2848C144.201 36.2848 143.544 36.1572 142.927 35.9019C142.309 35.6466 141.769 35.2886 141.305 34.8294C140.841 34.3701 140.482 33.8358 140.226 33.2278C139.971 32.6199 139.843 31.9632 139.843 31.2578C139.843 30.5525 139.971 29.8958 140.226 29.2878C140.482 28.6799 140.841 28.1469 141.305 27.6863C141.77 27.227 142.309 26.8691 142.927 26.6138C143.544 26.3585 144.201 26.2309 144.897 26.2309C145.593 26.2309 146.277 26.3585 146.894 26.6138C147.511 26.8691 148.052 27.2257 148.516 27.6863C148.98 28.1456 149.342 28.6799 149.601 29.2878C149.86 29.8958 149.991 30.5525 149.991 31.2578C149.991 31.9632 149.86 32.6199 149.601 33.2278C149.341 33.8358 148.979 34.3688 148.516 34.8294C148.051 35.2886 147.51 35.6466 146.894 35.9019C146.277 36.1572 145.611 36.2848 144.897 36.2848ZM144.924 34.9346C145.426 34.9346 145.892 34.8425 146.323 34.657C146.755 34.4714 147.135 34.2135 147.464 33.8845C147.793 33.5555 148.048 33.1647 148.23 32.7146C148.412 32.2645 148.501 31.7803 148.501 31.2605C148.501 30.7407 148.408 30.2564 148.223 29.8063C148.038 29.3563 147.783 28.9667 147.458 28.6364C147.132 28.3074 146.755 28.0495 146.323 27.864C145.892 27.6784 145.42 27.585 144.91 27.585C144.399 27.585 143.94 27.6784 143.504 27.864C143.069 28.0495 142.687 28.3074 142.363 28.6364C142.038 28.9654 141.786 29.3563 141.604 29.8063C141.423 30.2564 141.333 30.742 141.333 31.2605C141.333 31.779 141.424 32.2659 141.604 32.7146C141.786 33.1647 142.038 33.5542 142.363 33.8845C142.688 34.2135 143.071 34.4714 143.512 34.657C143.953 34.8425 144.424 34.9346 144.926 34.9346H144.924Z" fill="black"/>
<path d="M155.727 36.1322V26.3875H157.189V34.8373H162.785V36.1322H155.727Z" fill="black"/>
<path d="M0 40.5433V9.76422L9.22095 0.54327H24.9664V10.4762H9.93289V30.6104H30.0671V15.5768H40V31.3223L30.7777 40.5433H0Z" fill="black"/>
<path d="M40 0.54327H30.0671V10.4762H40V0.54327Z" fill="#0091F0"/>
<path d="M24.9665 15.5768H15.0336V25.5097H24.9665V15.5768Z" fill="#0091F0"/>
</svg>
