<svg width="20" height="20" viewBox="0 0 20 20" fill="none" xmlns="http://www.w3.org/2000/svg">
<path d="M1.66748 9.99921L13.3341 9.99921M13.3341 9.99921L10.4175 7.49921M13.3341 9.99921L10.4175 12.4992" stroke="#121926" stroke-width="1.25" stroke-linecap="round" stroke-linejoin="round"/>
<path d="M7.50146 5.83335C7.51155 4.02083 7.59193 3.03924 8.23225 2.39892C8.96448 1.66669 10.143 1.66669 12.5 1.66669L13.3334 1.66669C15.6904 1.66669 16.8689 1.66669 17.6011 2.39892C18.3334 3.13115 18.3333 4.30966 18.3333 6.66669L18.3333 13.3334C18.3333 15.6904 18.3334 16.8689 17.6011 17.6011C16.8689 18.3334 15.6904 18.3334 13.3333 18.3334L12.5 18.3334C10.143 18.3334 8.96448 18.3334 8.23225 17.6011C7.59193 16.9608 7.51155 15.9792 7.50146 14.1667" stroke="#121926" stroke-width="1.25" stroke-linecap="round"/>
</svg>
