<svg width="28" height="29" viewBox="0 0 28 29" fill="none" xmlns="http://www.w3.org/2000/svg">
<path d="M12.0119 4.81038L13.3119 0.592703C13.3572 0.446105 13.4503 0.317865 13.5737 0.226777C13.6972 0.13569 13.8466 0.0865479 14 0.0865479C14.1535 0.0865479 14.3029 0.13569 14.4263 0.226777C14.5498 0.317865 14.6409 0.446105 14.6861 0.592703L15.9861 4.81038C16.5157 6.52737 17.4566 8.08901 18.7271 9.35953C19.9976 10.6301 21.5593 11.571 23.2763 12.1005L27.4939 13.4005C27.6405 13.4458 27.7688 13.5368 27.8599 13.6603C27.951 13.7838 28.0001 13.9332 28.0001 14.0866C28.0001 14.24 27.951 14.3894 27.8599 14.5129C27.7688 14.6364 27.6405 14.7274 27.4939 14.7727L23.2763 16.0727C21.5587 16.6021 19.9965 17.5432 18.7255 18.8142C17.4546 20.0851 16.5135 21.6473 15.984 23.3649L14.6841 27.5805C14.4777 28.2552 13.5203 28.2552 13.314 27.5805L12.014 23.3649C11.4845 21.6473 10.5434 20.0851 9.27249 18.8142C8.00158 17.5432 6.43937 16.6021 4.72178 16.0727L0.506156 14.7727C0.359557 14.7274 0.231317 14.6364 0.140229 14.5129C0.0491418 14.3894 0 14.24 0 14.0866C0 13.9332 0.0491418 13.7838 0.140229 13.6603C0.231317 13.5368 0.359557 13.4458 0.506156 13.4005L4.72178 12.1005C6.43876 11.571 8.0004 10.6301 9.27092 9.35953C10.5414 8.08901 11.4824 6.52737 12.0119 4.81038Z" fill="#9AA4B2"/>
</svg>
