<svg width="46" height="45" viewBox="0 0 46 45" fill="none" xmlns="http://www.w3.org/2000/svg">
<g clip-path="url(#clip0_34_153)">
<path opacity="0.4" d="M0.96875 5.93579C0.96875 2.89789 3.43866 0.427979 6.47656 0.427979H39.5234C42.5613 0.427979 45.0312 2.89789 45.0312 5.93579V30.7209C45.0312 33.7589 42.5613 36.2288 39.5234 36.2288H27.587L16.9414 44.2151C16.5283 44.5249 15.9689 44.5765 15.4956 44.3442C15.0223 44.1118 14.7383 43.6385 14.7383 43.1135V36.2288H6.47656C3.43866 36.2288 0.96875 33.7589 0.96875 30.7209L0.96875 5.93579ZM11.9844 14.886C11.9844 16.0306 12.9052 16.9514 14.0498 16.9514H31.9502C33.0948 16.9514 34.0156 16.0306 34.0156 14.886C34.0156 13.7414 33.0948 12.8206 31.9502 12.8206H14.0498C12.9052 12.8206 11.9844 13.7414 11.9844 14.886ZM11.9844 23.1477C11.9844 24.2923 12.9052 25.2131 14.0498 25.2131H23.6885C24.8331 25.2131 25.7539 24.2923 25.7539 23.1477C25.7539 22.0031 24.8331 21.0823 23.6885 21.0823H14.0498C12.9052 21.0823 11.9844 22.0031 11.9844 23.1477Z" fill="#0091F0"/>
<path d="M11.9844 14.886C11.9844 13.7414 12.9052 12.8206 14.0498 12.8206H31.9502C33.0948 12.8206 34.0156 13.7414 34.0156 14.886C34.0156 16.0306 33.0948 16.9514 31.9502 16.9514H14.0498C12.9052 16.9514 11.9844 16.0306 11.9844 14.886ZM11.9844 23.1477C11.9844 22.0031 12.9052 21.0823 14.0498 21.0823H23.6885C24.8331 21.0823 25.7539 22.0031 25.7539 23.1477C25.7539 24.2923 24.8331 25.2131 23.6885 25.2131H14.0498C12.9052 25.2131 11.9844 24.2923 11.9844 23.1477Z" fill="#0091F0"/>
</g>
<defs>
<clipPath id="clip0_34_153">
<rect width="44.0625" height="44.0625" fill="white" transform="translate(0.96875 0.427979)"/>
</clipPath>
</defs>
</svg>
