<svg width="21" height="20" viewBox="0 0 21 20" fill="none" xmlns="http://www.w3.org/2000/svg">
<path d="M18.125 13.4091V9.24792C18.125 5.67408 18.125 3.88716 17.0267 2.77691C15.9283 1.66666 14.1605 1.66666 10.625 1.66666C7.08947 1.66666 5.3217 1.66666 4.22335 2.77691C3.125 3.88716 3.125 5.67408 3.125 9.24792V13.4091C3.125 15.9896 3.125 17.2798 3.73676 17.8436C4.02851 18.1125 4.39679 18.2814 4.7891 18.3263C5.61168 18.4204 6.57228 17.5708 8.49347 15.8715C9.34268 15.1204 9.76729 14.7448 10.2586 14.6459C10.5005 14.5971 10.7495 14.5971 10.9914 14.6459C11.4827 14.7448 11.9073 15.1204 12.7565 15.8715C14.6777 17.5708 15.6383 18.4204 16.4609 18.3263C16.8532 18.2814 17.2215 18.1125 17.5132 17.8436C18.125 17.2798 18.125 15.9896 18.125 13.4091Z" stroke="#202939" stroke-width="1.25"/>
<path d="M13.125 5H8.125" stroke="#202939" stroke-width="1.25" stroke-linecap="round"/>
</svg>
