<svg width="16" height="16" viewBox="0 0 16 16" fill="none" xmlns="http://www.w3.org/2000/svg">
<path d="M6.125 8C6.125 8.86294 5.42544 9.5625 4.5625 9.5625C3.69956 9.5625 3 8.86294 3 8C3 7.13706 3.69956 6.4375 4.5625 6.4375C5.42544 6.4375 6.125 7.13706 6.125 8Z" stroke="#121926" stroke-width="0.9375"/>
<path d="M9.25 4.5625L6.125 6.75" stroke="#121926" stroke-width="0.9375" stroke-linecap="round"/>
<path d="M9.25 11.4375L6.125 9.25" stroke="#121926" stroke-width="0.9375" stroke-linecap="round"/>
<path d="M12.375 12.0625C12.375 12.9254 11.6754 13.625 10.8125 13.625C9.94956 13.625 9.25 12.9254 9.25 12.0625C9.25 11.1996 9.94956 10.5 10.8125 10.5C11.6754 10.5 12.375 11.1996 12.375 12.0625Z" stroke="#121926" stroke-width="0.9375"/>
<path d="M12.375 3.9375C12.375 4.80044 11.6754 5.5 10.8125 5.5C9.94956 5.5 9.25 4.80044 9.25 3.9375C9.25 3.07456 9.94956 2.375 10.8125 2.375C11.6754 2.375 12.375 3.07456 12.375 3.9375Z" stroke="#121926" stroke-width="0.9375"/>
</svg>
