<svg width="29" height="29" viewBox="0 0 29 29" fill="none" xmlns="http://www.w3.org/2000/svg">
<path d="M14.5 29C22.5081 29 29 22.5081 29 14.5C29 6.49187 22.5081 0 14.5 0C6.49187 0 0 6.49187 0 14.5C0 22.5081 6.49187 29 14.5 29Z" fill="#039BE5"/>
<path d="M6.63491 14.1862L20.6153 8.79583C21.2642 8.56141 21.8309 8.95412 21.6207 9.93529L21.6219 9.93408L19.2414 21.1486C19.065 21.9437 18.5926 22.137 17.9316 21.7625L14.3066 19.0908L12.5582 20.7753C12.3648 20.9686 12.2017 21.1317 11.8271 21.1317L12.0845 17.4427L18.8028 11.3732C19.0952 11.1158 18.7376 10.9708 18.3521 11.227L10.0497 16.4542L6.47058 15.3377C5.69362 15.0912 5.6767 14.5608 6.63491 14.1862Z" fill="white"/>
</svg>
