<svg width="16" height="16" viewBox="0 0 16 16" fill="none" xmlns="http://www.w3.org/2000/svg">
<path d="M7.94409 0.214844C12.0915 0.214844 15.4519 3.5752 15.4519 7.72266C15.4519 11.8701 12.0915 15.2305 7.94409 15.2305C3.79662 15.2305 0.436273 11.8701 0.436273 7.72266C0.436273 3.5752 3.79662 0.214844 7.94409 0.214844ZM11.6072 5.36133C11.7283 4.87695 11.4255 4.66504 11.0925 4.78613L3.85717 7.57129C3.3728 7.75293 3.3728 8.05566 3.76635 8.17676L5.61303 8.75195L9.91186 6.02734C10.1238 5.90625 10.3054 5.99707 10.154 6.11816L6.6726 9.2666L6.55151 11.1738C6.73315 11.1738 6.82397 11.083 6.91479 10.9922L7.82299 10.1143L9.69994 11.5068C10.0632 11.6885 10.3054 11.5977 10.3962 11.1738L11.6072 5.36133Z" fill="#4B5565"/>
</svg>
