<svg width="54" height="63" viewBox="0 0 54 63" fill="none" xmlns="http://www.w3.org/2000/svg">
<path d="M21.494 14.657C20.8291 14.562 20.7974 14.5304 21.114 14.4987C21.7156 14.4037 23.1087 14.5304 24.0901 14.752C26.3697 15.2902 28.4276 16.6833 30.6122 19.1211L31.1821 19.786L32.0052 19.6594C35.5195 19.0895 39.1288 19.5327 42.1366 20.9258C42.9597 21.3057 44.2578 22.0655 44.4161 22.2555C44.4794 22.3188 44.5744 22.7304 44.6377 23.142C44.8594 24.63 44.7644 25.7382 44.2895 26.593C44.0362 27.0679 44.0362 27.1945 44.1945 27.6061C44.3211 27.9227 44.7011 28.1443 45.0493 28.1443C45.8092 28.1443 46.6007 26.9412 46.9806 25.2632L47.1389 24.5984L47.4238 24.915C49.0385 26.7196 50.305 29.2208 50.4949 30.9938L50.5582 31.4687L50.2733 31.0571C49.7984 30.3289 49.3551 29.854 48.7536 29.4424C47.6771 28.7142 46.5374 28.4926 43.5296 28.3343C40.8068 28.176 39.2555 27.9544 37.7358 27.4478C35.1396 26.593 33.8099 25.4849 30.7388 21.4007C29.3774 19.596 28.5226 18.6146 27.6678 17.7914C25.7998 15.9867 23.9318 15.0369 21.494 14.657Z" fill="#121926"/>
<path d="M45.0807 18.678C45.144 17.4749 45.3023 16.6834 45.6506 15.9552C45.7772 15.6703 45.9039 15.417 45.9355 15.417C45.9672 15.417 45.9039 15.6386 45.8089 15.8919C45.5556 16.5884 45.5239 17.5699 45.6822 18.678C45.9039 20.1027 45.9988 20.2927 47.5185 21.8441C48.2151 22.5722 49.0382 23.4904 49.3548 23.8703L49.8931 24.5669L49.3548 24.0603C48.69 23.4271 47.1703 22.224 46.822 22.0657C46.6004 21.939 46.5687 21.939 46.4104 22.0973C46.2838 22.224 46.2521 22.4139 46.2521 23.3321C46.2205 24.7568 46.0305 25.6433 45.5556 26.5615C45.3023 27.0364 45.2706 26.9414 45.4923 26.4032C45.6506 25.9916 45.6822 25.8016 45.6822 24.4402C45.6822 21.6858 45.3656 21.0209 43.4343 19.9128C42.9594 19.6278 42.1363 19.2162 41.6614 18.9946C41.1548 18.773 40.7749 18.583 40.8065 18.583C40.8699 18.5197 42.7378 19.0579 43.466 19.3745C44.5741 19.8178 44.7641 19.8495 44.8907 19.8178C44.9857 19.7228 45.049 19.4695 45.0807 18.678Z" fill="#121926"/>
<path d="M22.792 23.3952C21.4622 21.5589 20.6074 18.7095 20.7973 16.5882L20.8607 15.9233L21.1773 15.9867C21.7472 16.0816 22.7286 16.4616 23.2035 16.7465C24.47 17.5064 25.0398 18.5512 25.5781 21.1473C25.7364 21.9072 25.958 22.7936 26.053 23.0786C26.2113 23.5535 26.8128 24.6616 27.3194 25.3581C27.6677 25.8647 27.446 26.118 26.6545 26.0547C25.4514 25.928 23.8367 24.8199 22.792 23.3952Z" fill="#121926"/>
<path d="M43.4662 37.1673C37.1974 34.6345 34.9812 32.4499 34.9812 28.7456C34.9812 28.2074 35.0129 27.7642 35.0129 27.7642C35.0445 27.7642 35.2661 27.9541 35.5511 28.1757C36.8175 29.1889 38.2422 29.6321 42.1998 30.202C44.511 30.5503 45.8407 30.8036 47.0438 31.2151C50.8747 32.4816 53.2493 35.0777 53.8191 38.592C53.9774 39.6052 53.8825 41.5364 53.6292 42.5496C53.4076 43.3411 52.7744 44.7975 52.6161 44.8291C52.5844 44.8291 52.5211 44.6708 52.5211 44.4175C52.4577 43.0878 51.7929 41.8214 50.6848 40.8399C49.355 39.7001 47.6454 38.8453 43.4662 37.1673Z" fill="#121926"/>
<path d="M39.0338 38.2128C38.9705 37.7379 38.8122 37.1364 38.7172 36.8831L38.5589 36.4082L38.8438 36.7565C39.2554 37.2314 39.572 37.8013 39.857 38.5928C40.0786 39.1943 40.0786 39.3843 40.0786 40.3658C40.0786 41.3156 40.0469 41.5372 39.857 42.0754C39.5403 42.9302 39.1604 43.5318 38.5272 44.1967C37.3874 45.3681 35.8994 46.0013 33.7782 46.2863C33.3982 46.3179 32.3218 46.4129 31.372 46.4762C28.9974 46.6029 27.4144 46.8561 25.9897 47.3627C25.7997 47.426 25.6098 47.4893 25.5781 47.4577C25.5148 47.3944 26.4963 46.8245 27.2878 46.4446C28.3959 45.9063 29.5357 45.6214 32.0368 45.1781C33.2716 44.9882 34.538 44.7349 34.8546 44.6082C37.989 43.6268 39.5404 41.1889 39.0338 38.2128Z" fill="#121926"/>
<path d="M41.9147 43.3099C41.0915 41.5052 40.9015 39.7955 41.3448 38.1809C41.4081 38.0226 41.4714 37.8643 41.5347 37.8643C41.598 37.8643 41.788 37.9592 41.978 38.0859C42.3579 38.3392 43.1494 38.7824 45.1757 39.8905C47.7402 41.2836 49.1965 42.36 50.2097 43.5948C51.0962 44.6712 51.6344 45.906 51.8877 47.4257C52.046 48.2805 51.951 50.3385 51.7294 51.1933C51.0329 53.8844 49.4498 56.0373 47.1386 57.2721C46.7904 57.4621 46.5054 57.5887 46.4738 57.5887C46.4421 57.5887 46.5687 57.2721 46.7587 56.8922C47.5185 55.2775 47.6135 53.7261 47.0436 51.9848C46.6954 50.9083 45.9672 49.6103 44.5108 47.4257C42.7695 44.8929 42.3579 44.228 41.9147 43.3099Z" fill="#121926"/>
<path d="M18.3277 52.9977C20.6706 51.0347 23.5517 49.6417 26.2112 49.1984C27.3509 49.0085 29.2506 49.0718 30.2953 49.3567C31.9733 49.8 33.493 50.7498 34.2846 51.9212C35.0444 53.061 35.3927 54.0425 35.7409 56.227C35.8676 57.0819 36.0259 57.9684 36.0575 58.1583C36.3108 59.2981 36.8174 60.1846 37.4506 60.6595C38.4321 61.3877 40.1417 61.4194 41.8197 60.7861C42.1047 60.6912 42.358 60.5962 42.358 60.6278C42.4213 60.6912 41.5665 61.261 40.9966 61.546C40.2051 61.9576 39.5718 62.0842 38.717 62.0842C37.1973 62.0842 35.8992 61.2927 34.8544 59.7097C34.6328 59.3931 34.1896 58.4749 33.8097 57.6201C32.7015 55.0556 32.1316 54.2958 30.8336 53.4409C29.6938 52.7127 28.2374 52.5544 27.1293 53.0927C25.6729 53.7892 25.293 55.6572 26.3061 56.7969C26.7177 57.2718 27.4776 57.6518 28.1108 57.7467C29.2822 57.905 30.2953 56.9869 30.2953 55.8155C30.2953 55.0556 30.0104 54.6124 29.2506 54.2641C28.2374 53.8208 27.1293 54.3274 27.161 55.3089C27.161 55.7205 27.3509 55.9738 27.7625 56.1637C28.0158 56.2904 28.0158 56.2904 27.8258 56.2587C26.9077 56.0687 26.6861 54.929 27.4142 54.2008C28.3007 53.3143 30.1687 53.6942 30.8019 54.929C31.0552 55.4355 31.0869 56.4487 30.8652 57.0819C30.327 58.4749 28.8073 59.2031 27.2559 58.7915C26.2112 58.5066 25.7679 58.2216 24.5015 56.9236C22.2853 54.644 21.4304 54.2008 18.2644 53.7259L17.6628 53.6309L18.3277 52.9977Z" fill="#121926"/>
<path fill-rule="evenodd" clip-rule="evenodd" d="M1.67454 2.05622C9.05142 11.0161 20.4175 24.9467 20.9874 25.7065C21.4623 26.3398 21.2723 26.9413 20.4808 27.3846C20.0376 27.6378 19.1194 27.8911 18.6762 27.8911C18.1696 27.8911 17.5681 27.6378 17.1565 27.2262C16.8715 26.9413 15.6368 25.1367 12.8507 20.7992C10.7294 17.4748 8.92478 14.7204 8.89312 14.6887C8.76647 14.6254 8.76647 14.6254 12.629 21.5274C15.0669 25.8649 15.8584 27.4162 15.8584 27.6062C15.8584 28.0178 15.7318 28.2394 15.2252 28.8093C14.3704 29.7591 13.9904 30.8355 13.7055 33.0834C13.3889 35.5846 12.5341 37.3576 10.0962 40.3653C8.67149 42.1383 8.44987 42.4549 8.10161 43.1831C7.65836 44.0696 7.53172 44.5762 7.4684 45.7159C7.40508 46.919 7.53172 47.6789 7.87998 48.8186C8.19659 49.8318 8.54485 50.4966 9.39968 51.7947C10.1279 52.9345 10.5711 53.7893 10.5711 54.1059C10.5711 54.3592 10.6344 54.3592 11.7742 54.1059C14.497 53.4727 16.7449 52.3963 17.9797 51.0665C18.7395 50.2434 18.9295 49.8001 18.9295 48.6603C18.9295 47.9322 18.8978 47.7739 18.7078 47.3306C18.3912 46.6341 17.7897 46.0642 16.4916 45.1777C14.782 44.0063 14.0538 43.0565 13.8638 41.79C13.7055 40.7136 13.8955 39.9854 14.8453 37.9908C15.8267 35.9329 16.08 35.078 16.2383 32.9884C16.3333 31.6587 16.4916 31.1205 16.8715 30.7089C17.2831 30.2656 17.6314 30.1073 18.6129 29.9807C20.2275 29.7591 21.2723 29.3475 22.0955 28.556C22.8237 27.8911 23.1403 27.2262 23.172 26.2448L23.2036 25.5166L22.792 25.0733C21.304 23.3637 0.693069 0.694824 0.598088 0.694824C0.566428 0.694824 1.07299 1.29637 1.67454 2.05622ZM11.3943 47.0773C11.7426 46.4758 11.5526 45.7159 10.9827 45.336C10.4445 44.9877 9.62131 45.146 9.62131 45.6209C9.62131 45.7476 9.68463 45.8742 9.87459 45.9375C10.1595 46.0959 10.1912 46.2542 9.96957 46.6024C9.74795 46.9507 9.74795 47.2673 10.0329 47.4889C10.4761 47.8372 11.0777 47.6472 11.3943 47.0773Z" fill="#121926"/>
<path fill-rule="evenodd" clip-rule="evenodd" d="M24.2166 30.4236C23.4567 30.6452 22.7286 31.4684 22.5069 32.2915C22.3803 32.7981 22.4436 33.7163 22.6652 34.0012C23.0135 34.4445 23.3301 34.5711 24.2166 34.5711C25.9579 34.5711 27.446 33.8112 27.6043 32.8931C27.7626 32.1332 27.0977 31.0885 26.1795 30.6135C25.7046 30.3603 24.7232 30.2653 24.2166 30.4236ZM26.2429 32.0066C26.4961 31.6267 26.4012 31.2151 25.9263 30.9301C25.0714 30.3919 23.7733 30.8352 23.7733 31.6583C23.7733 32.0699 24.4382 32.5132 25.0714 32.5132C25.483 32.5132 26.0529 32.2599 26.2429 32.0066Z" fill="#121926"/>
</svg>
