<svg width="14" height="18" viewBox="0 0 14 18" fill="none" xmlns="http://www.w3.org/2000/svg">
<path fill-rule="evenodd" clip-rule="evenodd" d="M6.99984 0.0416565C4.81371 0.0416565 3.0415 1.81386 3.0415 3.99999C3.0415 6.18612 4.81371 7.95832 6.99984 7.95832C9.18596 7.95832 10.9582 6.18612 10.9582 3.99999C10.9582 1.81386 9.18596 0.0416565 6.99984 0.0416565ZM4.2915 3.99999C4.2915 2.50422 5.50407 1.29166 6.99984 1.29166C8.49561 1.29166 9.70817 2.50422 9.70817 3.99999C9.70817 5.49576 8.49561 6.70832 6.99984 6.70832C5.50407 6.70832 4.2915 5.49576 4.2915 3.99999Z" fill="#121926"/>
<path fill-rule="evenodd" clip-rule="evenodd" d="M6.99984 9.20832C5.30039 9.20832 3.7311 9.60061 2.56496 10.267C1.4165 10.9232 0.541504 11.9251 0.541504 13.1667C0.541504 14.4082 1.4165 15.4101 2.56496 16.0663C3.7311 16.7327 5.30039 17.125 6.99984 17.125C8.69928 17.125 10.2686 16.7327 11.4347 16.0663C12.5832 15.4101 13.4582 14.4082 13.4582 13.1667C13.4582 11.9251 12.5832 10.9232 11.4347 10.267C10.2686 9.60061 8.69928 9.20832 6.99984 9.20832ZM1.7915 13.1667C1.7915 12.5673 2.22234 11.9025 3.18513 11.3523C4.13025 10.8122 5.47762 10.4583 6.99984 10.4583C8.52205 10.4583 9.86943 10.8122 10.8145 11.3523C11.7773 11.9025 12.2082 12.5673 12.2082 13.1667C12.2082 13.7661 11.7773 14.4309 10.8145 14.981C9.86943 15.5211 8.52205 15.875 6.99984 15.875C5.47762 15.875 4.13025 15.5211 3.18513 14.981C2.22234 14.4309 1.7915 13.7661 1.7915 13.1667Z" fill="#121926"/>
</svg>
