<svg width="21" height="18" viewBox="0 0 21 18" fill="none" xmlns="http://www.w3.org/2000/svg">
<path d="M16.3983 2.90726C15.903 1.5068 14.6409 0.391957 13.2039 0.207623C12.1933 0.0815924 10.814 -0.0214697 8.9283 0.00385412C7.04256 0.029178 5.66094 0.174643 4.64739 0.327764C2.97248 0.591603 1.47661 2.06451 1.18921 3.7512C1.18921 3.7512 0.745752 6.13105 0.65918 9.33599H16.8935C16.8935 9.33599 16.8935 5.09159 16.3983 2.90726Z" fill="url(#paint0_linear_106_2289)"/>
<path d="M20.5434 6.91432C20.3526 5.42316 19.0246 4.16168 17.4704 3.95555C14.7319 3.68406 10.6865 3.66109 10.6854 3.6711C8.93565 3.65284 4.83908 3.8201 3.90092 3.95555C2.95039 4.07805 2.09173 4.60337 1.51694 5.32304C1.14565 5.77978 0.90726 6.32991 0.827897 6.91314C0.71659 7.8142 0.62825 9.04506 0.673009 10.7294C0.717767 12.4137 0.8756 13.6481 1.03343 14.5521C1.30552 16.0486 2.6518 17.3631 4.15003 17.6145C5.05757 17.7877 9.00161 18.0268 10.6871 17.9973C12.3715 18.028 16.3155 17.7877 17.2242 17.6145C18.7224 17.3631 20.0687 16.0486 20.3408 14.5521C20.4986 13.6481 20.6535 12.4143 20.7012 10.7294C20.7489 9.04447 20.6547 7.81538 20.5434 6.91432Z" fill="url(#paint1_linear_106_2289)"/>
<path d="M17.212 12.2235C16.9373 12.2236 16.6688 12.1422 16.4403 11.9897C16.2118 11.8372 16.0338 11.6203 15.9286 11.3665C15.8234 11.1127 15.7958 10.8335 15.8494 10.564C15.903 10.2946 16.0352 10.0471 16.2295 9.85285C16.4237 9.6586 16.6712 9.52633 16.9407 9.47277C17.2101 9.4192 17.4894 9.44675 17.7431 9.55193C17.9969 9.65711 18.2138 9.8352 18.3663 10.0637C18.5189 10.2921 18.6003 10.5607 18.6001 10.8354C18.6001 11.2035 18.4539 11.5566 18.1936 11.8169C17.9332 12.0772 17.5802 12.2235 17.212 12.2235Z" fill="url(#paint2_linear_106_2289)"/>
<defs>
<linearGradient id="paint0_linear_106_2289" x1="5.63561" y1="12.2076" x2="12.86" y2="-0.305332" gradientUnits="userSpaceOnUse">
<stop stop-color="#34344F"/>
<stop offset="0.54" stop-color="#353551"/>
<stop offset="1" stop-color="#666684"/>
</linearGradient>
<linearGradient id="paint1_linear_106_2289" x1="17.9321" y1="17.8589" x2="3.43979" y2="3.36662" gradientUnits="userSpaceOnUse">
<stop stop-color="#1EB4EB"/>
<stop offset="0.54" stop-color="#1EB4EB"/>
<stop offset="1" stop-color="#92F4FE"/>
</linearGradient>
<linearGradient id="paint2_linear_106_2289" x1="18.1938" y1="11.8171" x2="16.2303" y2="9.85365" gradientUnits="userSpaceOnUse">
<stop stop-color="#BCE4ED"/>
<stop offset="0.57" stop-color="white"/>
<stop offset="1" stop-color="white"/>
</linearGradient>
</defs>
</svg>
