<svg width="46" height="45" viewBox="0 0 46 45" fill="none" xmlns="http://www.w3.org/2000/svg">
<g clip-path="url(#clip0_27_800)">
<path opacity="0.4" d="M0.96875 22.7703C0.96875 28.6133 3.28989 34.217 7.42155 38.3487C11.5532 42.4804 17.1569 44.8015 23 44.8015C28.8431 44.8015 34.4468 42.4804 38.5784 38.3487C42.7101 34.217 45.0312 28.6133 45.0312 22.7703C45.0312 16.9272 42.7101 11.3235 38.5784 7.19182C34.4468 3.06016 28.8431 0.739014 23 0.739014C17.1569 0.739014 11.5532 3.06016 7.42155 7.19182C3.28989 11.3235 0.96875 16.9272 0.96875 22.7703ZM13.4388 23.2264C13.2494 22.6756 13.4216 22.0646 13.8777 21.6945L27.6472 10.6789C28.155 10.2744 28.8693 10.2744 29.377 10.6875C29.8848 11.1006 30.0311 11.7977 29.7385 12.3743L25.2289 21.3933H31.2617C31.8469 21.3933 32.3719 21.7634 32.5612 22.3141C32.7505 22.8649 32.5784 23.476 32.1223 23.846L18.3528 34.8616C17.845 35.2661 17.1307 35.2661 16.623 34.853C16.1152 34.4399 15.9689 33.7429 16.2529 33.1663L20.7711 24.1472H14.7383C14.1531 24.1472 13.6367 23.7772 13.4388 23.2264Z" fill="#0091F0"/>
<path d="M29.7384 12.3745C30.031 11.7979 29.8761 11.0922 29.3769 10.6877C28.8778 10.2833 28.1549 10.2833 27.6471 10.6791L13.8776 21.6948C13.4215 22.0562 13.2407 22.6758 13.4387 23.2266C13.6366 23.7774 14.153 24.1475 14.7382 24.1475H20.771L16.2614 33.1665C15.9688 33.7431 16.1237 34.4488 16.6315 34.8533C17.1392 35.2578 17.8535 35.2578 18.3613 34.8619L32.1308 23.8463C32.5869 23.4848 32.7677 22.8652 32.5697 22.3144C32.3718 21.7636 31.8554 21.3936 31.2702 21.3936H25.2374L29.747 12.3745H29.7384Z" fill="#0091F0"/>
</g>
<defs>
<clipPath id="clip0_27_800">
<rect width="44.0625" height="44.0625" fill="white" transform="translate(0.96875 0.739014)"/>
</clipPath>
</defs>
</svg>
