<svg width="274" height="25" viewBox="0 0 274 25" fill="none" xmlns="http://www.w3.org/2000/svg">
<g clip-path="url(#clip0_131_200)">
<path d="M6.36997 12.515L3.64297 15.22L0.917969 12.515L3.64397 9.809L6.36997 12.515ZM13.019 5.913L17.692 10.582L20.417 7.875L15.745 3.206L13.019 0.5L10.293 3.206L5.59097 7.876L8.31597 10.582L13.019 5.913ZM22.394 9.809L19.668 12.515L22.394 15.221L25.12 12.515L22.394 9.809ZM13.019 19.087L8.34597 14.447L5.59097 17.154L10.263 21.794L12.99 24.5L15.716 21.794L20.418 17.154L17.692 14.448L13.02 19.088L13.019 19.087ZM13.019 15.221L15.745 12.515L13.019 9.809L10.293 12.515L13.019 15.221ZM41.863 15.489V15.459C41.863 13.704 40.905 12.812 39.377 12.217C40.336 11.682 41.115 10.849 41.115 9.362V9.332C41.115 7.251 39.437 5.912 36.741 5.912H30.571V19.087H36.891C39.886 19.087 41.863 17.897 41.863 15.489ZM38.21 9.868C38.21 10.849 37.401 11.266 36.113 11.266H33.418V8.47H36.293C37.521 8.47 38.21 8.946 38.21 9.838V9.868ZM38.959 15.132C38.959 16.113 38.18 16.56 36.892 16.56H33.418V13.675H36.8C38.298 13.675 38.957 14.21 38.957 15.102V15.132H38.959ZM47.975 19.087V5.913H45.069V19.087H47.975ZM63.67 19.087V5.913H60.795V14.032L54.565 5.912H51.869V19.087H54.744V10.73L61.184 19.117H63.67V19.087ZM79.844 19.087L74.154 5.823H71.458L65.766 19.087H68.732L69.96 16.143H75.561L76.789 19.087H79.844ZM74.543 13.585H71.009L72.776 9.303L74.543 13.585ZM93.743 19.087V5.913H90.867V14.032L84.637 5.912H81.94V19.087H84.816V10.73L91.256 19.117H93.741V19.087H93.743ZM108.838 16.976L106.981 15.102C105.933 16.054 105.005 16.649 103.507 16.649C101.23 16.649 99.673 14.775 99.673 12.515V12.485C99.673 10.225 101.291 8.381 103.507 8.381C104.825 8.381 105.873 8.946 106.892 9.868L108.749 7.727C107.521 6.507 106.023 5.704 103.507 5.704C99.434 5.704 96.587 8.768 96.587 12.514V12.544C96.587 16.321 99.493 19.325 103.387 19.325C105.933 19.325 107.461 18.434 108.838 16.976ZM121.269 19.087V16.5H114.081V13.734H120.34V11.147H114.081V8.47H121.179V5.883H111.175V19.058H121.269V19.087ZM269.329 8.06V19.057H267.002V8.06H262.836V5.92H273.495V8.06H269.329ZM260.942 5.92V7.985H253.511V11.4H260.098V13.465H253.511V16.992H261.036V19.057H251.203V5.92H260.942ZM239.586 19.057V5.92H241.894V16.954H248.8V19.056L239.586 19.057ZM227.965 19.057V5.92H230.273V16.954H237.179V19.056L227.965 19.057ZM219.935 5.828L225.715 19.058H223.275L221.943 15.886H215.731L214.38 19.057H212.016L217.795 5.827L219.935 5.828ZM221.098 13.84L218.828 8.586L216.576 13.841L221.098 13.84ZM198.497 15.66L201.724 5.883H203.676L206.903 15.66L210.037 5.92H212.458L207.879 19.15H205.89L202.662 9.711L199.435 19.151H197.446L192.867 5.921H195.363L198.497 15.661V15.66ZM182.191 7.929H176.505V5.92H185.194V7.646L181.535 11.399C183.543 11.662 185.4 12.657 185.4 15.115C185.4 17.555 183.523 19.281 180.803 19.281C178.513 19.281 176.881 18.324 175.773 16.973L177.387 15.471C178.325 16.579 179.376 17.198 180.84 17.198C182.135 17.198 183.11 16.41 183.11 15.19C183.11 13.876 181.947 13.145 180.09 13.145H179.02L178.644 11.7L182.191 7.929ZM169.006 5.92C171.651 5.92 173.322 7.216 173.322 9.28C173.322 10.894 172.421 11.72 171.445 12.226C172.984 12.751 174.054 13.633 174.054 15.435C174.054 17.799 172.121 19.057 169.193 19.057H163.113V5.92H169.006ZM168.537 11.457C170.019 11.457 171.014 10.875 171.014 9.655C171.014 8.585 170.188 7.966 168.705 7.966H165.384V11.456L168.537 11.457ZM169.212 17.011C170.788 17.011 171.745 16.392 171.745 15.191C171.745 14.065 170.864 13.408 169.043 13.408H165.384V17.011H169.212ZM160.278 5.92V7.985H152.847V11.4H159.434V13.465H152.847V16.992H160.372V19.057H150.539V5.92H160.278ZM134.211 15.66L137.439 5.883H139.391L142.618 15.66L145.752 5.92H148.173L143.594 19.15H141.605L138.377 9.711L135.149 19.151H133.161L128.582 5.921H131.077L134.211 15.661V15.66Z" fill="#697586"/>
</g>
<defs>
<clipPath id="clip0_131_200">
<rect width="273" height="24" fill="white" transform="translate(0.5 0.5)"/>
</clipPath>
</defs>
</svg>
