<svg width="258" height="57" viewBox="0 0 258 57" fill="none" xmlns="http://www.w3.org/2000/svg">
<g clip-path="url(#clip0_131_236)">
<path fill-rule="evenodd" clip-rule="evenodd" d="M15.484 12.083L22.044 8.29L28.775 12.185L42.92 0.74V44.457L22.044 56.5L1.18497 44.439V23.904H1.16797V0.5L15.484 12.083ZM4.82397 25.903V42.338L22.044 52.28L39.264 42.338V26.16L22.027 36.29L4.82397 25.903ZM5.52397 22.06L22.061 32.053L38.821 22.196L22.061 12.51L5.52397 22.06ZM32.534 13.842L39.264 17.789V8.393C37.026 10.203 34.788 12.014 32.534 13.843V13.842ZM4.82297 17.55L11.553 13.604L4.82297 8.154V17.55ZM90.636 27.372C90.636 23.341 94.172 20.522 97.999 20.522C101.826 20.522 105.362 23.358 105.362 27.372C105.362 31.678 102.27 34.718 97.999 34.718C93.728 34.718 90.636 31.678 90.636 27.372ZM101.757 27.407C101.757 25.562 100.066 23.887 97.999 23.887C95.932 23.887 94.24 25.562 94.24 27.407C94.24 29.696 95.932 31.37 97.999 31.37C100.066 31.37 101.757 29.696 101.757 27.407ZM65.352 34.274C67.795 34.274 70.17 33.352 70.17 30.567C70.17 28.705 69.35 27.424 67.453 27.184V27.15C68.53 26.604 68.923 25.63 68.923 24.434C68.923 21.889 67.333 20.966 64.976 20.966H60.04V34.274H65.352ZM63.49 28.774H63.849L64.122 28.771C65.233 28.76 66.685 28.745 66.685 30.225C66.685 31.648 65.068 31.645 64.035 31.643H63.49V28.774ZM63.73 23.614C64.669 23.614 65.745 23.682 65.745 24.895C65.745 26.023 64.788 26.177 63.865 26.177H63.473V23.614H63.73Z" fill="#697586"/>
<path d="M80.727 20.966H77.26V34.274H84.88V31.336H80.728L80.727 20.966ZM121.762 21.29C120.737 20.864 119.712 20.624 118.602 20.624C116.722 20.624 114.843 21.444 113.528 22.777C112.265 24.0832 111.561 25.8294 111.563 27.646C111.563 29.628 112.229 31.353 113.699 32.668C115.082 33.915 116.842 34.633 118.687 34.633C119.694 34.633 120.491 34.393 121.526 34.083L121.745 34.018V29.867C121.027 30.737 119.883 31.285 118.755 31.285C116.603 31.285 115.151 29.765 115.151 27.663C115.151 25.596 116.586 23.973 118.704 23.973C119.883 23.973 121.027 24.485 121.745 25.442V21.291L121.762 21.29ZM132.661 26.467H132.696L136.864 20.983H141.152L135.856 27.287L141.63 34.291H137.154L132.696 28.517H132.661V34.291H129.193V20.983H132.661V26.467Z" fill="#697586"/>
<path fill-rule="evenodd" clip-rule="evenodd" d="M147.883 34.2742H152.786C156.476 34.2742 159.551 31.3702 159.551 27.6122C159.551 23.8702 156.493 20.9492 152.786 20.9492H147.883V34.2742ZM151.334 23.9042H152.154C154.375 23.9042 155.946 25.2542 155.946 27.6292C155.946 30.2252 154.187 31.3532 152.12 31.3532H151.334V23.9042ZM175.473 34.2742L174.602 31.9682H169.852L168.93 34.2742H165.257L170.382 20.9662H174.157L179.163 34.2742H175.473ZM170.792 29.3202H173.662L172.261 25.0832H172.227L170.792 29.3202Z" fill="#697586"/>
<path d="M193.103 23.9038V20.9658H185.535V34.2738H193.103V31.3358H188.986V29.0458H192.881V26.1258H188.986V23.9038H193.103ZM203.165 34.2738H199.732L202.021 20.9658H205.42L208.12 28.0728L210.973 20.9658H214.406L216.422 34.2738H212.954L211.98 26.6208H211.946L208.752 34.2738H207.368L204.31 26.6208H204.276L203.165 34.2738Z" fill="#697586"/>
<path fill-rule="evenodd" clip-rule="evenodd" d="M229.867 20.522C226.04 20.522 222.504 23.341 222.504 27.372C222.504 31.678 225.596 34.718 229.867 34.718C234.138 34.718 237.23 31.678 237.23 27.372C237.23 23.358 233.694 20.522 229.867 20.522ZM229.867 23.887C231.934 23.887 233.625 25.562 233.625 27.407C233.625 29.696 231.934 31.37 229.867 31.37C227.8 31.37 226.109 29.696 226.109 27.407C226.109 25.562 227.8 23.887 229.867 23.887Z" fill="#697586"/>
<path d="M247.583 34.2738H244.132V20.9658H247.583L253.921 29.0978H253.955V20.9658H257.406V34.2738H253.955L247.617 26.1248H247.583V34.2748V34.2738Z" fill="#697586"/>
</g>
<defs>
<clipPath id="clip0_131_236">
<rect width="257" height="56" fill="white" transform="translate(0.5 0.5)"/>
</clipPath>
</defs>
</svg>
