<svg width="182" height="57" viewBox="0 0 182 57" fill="none" xmlns="http://www.w3.org/2000/svg">
<g clip-path="url(#clip0_131_223)">
<path fill-rule="evenodd" clip-rule="evenodd" d="M158.788 32.545C159.266 37.007 162.701 39.775 167.822 39.775C170.729 39.775 172.909 38.896 174.259 37.142C174.644 36.6477 175.136 36.2475 175.699 35.972C176.262 35.6965 176.88 35.5529 177.506 35.552H180.202C177.854 40.809 173.652 43.395 167.388 43.395C159.563 43.395 154.289 38.558 154.289 31.328C154.289 24.098 159.692 19.026 167.486 19.026C173.124 19.026 177.659 21.608 179.486 25.931C180.3 27.919 180.632 29.685 180.632 32.549L158.788 32.545ZM175.902 28.965C174.849 24.881 171.743 22.578 167.439 22.578C163.135 22.578 160.029 24.881 158.929 28.965H175.902ZM142.917 42.778H141.719C141.2 42.7793 140.69 42.6326 140.251 42.3551C139.812 42.0776 139.461 41.6808 139.239 41.211L129.211 19.631H131.997C132.796 19.6276 133.578 19.858 134.248 20.2939C134.917 20.7298 135.444 21.3521 135.764 22.084L142.455 37.595L149.368 22.025C149.693 21.3042 150.22 20.693 150.885 20.2653C151.55 19.8376 152.325 19.6117 153.116 19.615H155.648L145.385 41.235C145.161 41.6985 144.81 42.0892 144.373 42.3622C143.937 42.6352 143.432 42.7793 142.917 42.778ZM105.685 27.287C105.924 25.032 106.354 23.811 107.309 22.637C109.222 20.251 112.665 19.022 117.54 19.022C121.414 19.022 124.235 19.635 126.195 20.947C127.822 22.025 128.491 23.624 128.491 26.439V36.72C128.491 38.975 129.067 39.77 130.643 39.727C130.996 39.7146 131.347 39.6829 131.696 39.632V42.73C130.913 43.0022 130.087 43.1289 129.258 43.104C126.343 43.104 125.005 42.213 124.098 39.628C121.23 42.304 118.264 43.43 114.011 43.43C108.322 43.43 104.832 40.801 104.832 36.526C104.807 34.087 106.218 31.87 108.416 30.894C110.138 30.142 111.19 29.908 116.112 29.391C120.318 28.969 121.038 28.874 122.231 28.496C123.522 28.074 124.098 27.37 124.098 26.196C124.098 23.707 122.044 22.582 117.74 22.582C113.671 22.582 111.574 23.401 110.732 25.492C110.533 26.012 110.183 26.4602 109.726 26.7782C109.269 27.0962 108.727 27.2693 108.17 27.275L105.685 27.287ZM124.074 31.232C121.127 32.1034 118.099 32.6697 115.036 32.922C110.877 33.344 109.586 34.143 109.586 36.255C109.586 38.602 111.499 39.835 115.275 39.835C118.381 39.835 120.725 39.039 122.4 37.488C123.738 36.219 124.074 35.328 124.074 33.113V31.232ZM93.921 19.63V23.059C96.742 19.877 98.413 19.022 101.715 19.022C102.676 19.023 103.635 19.102 104.583 19.257V23.81C103.572 23.5276 102.527 23.3859 101.477 23.389C99.086 23.389 97.079 24.184 95.607 25.688C94.317 27.004 93.933 28.034 93.933 30.102V42.782H89.285V19.63H93.921ZM60.984 30.878V11.628H62.796C64.272 11.628 65.468 12.845 65.468 14.345V22.905C68.371 20.271 70.84 19.217 74.13 19.15C80.441 19.019 85.919 23.783 86.44 30.179C87.0611 37.819 81.596 43.569 74.475 43.569C66.658 43.569 60.985 38.642 60.985 30.879L60.984 30.878ZM65.394 32.39C65.836 36.367 69.572 39.652 73.512 39.716C78.6451 39.796 82.143 36.395 82.143 31.364C82.143 26.333 78.723 23.012 73.735 23.012C68.403 23 64.787 26.937 65.394 32.39ZM46.602 13.934L47.892 10.71C47.892 10.71 46.251 8.92 44.259 6.89C42.266 4.86 38.047 6.054 38.047 6.054L33.243 0.5H16.367L11.563 6.054C11.563 6.054 7.34304 4.86 5.35204 6.889C3.35904 8.92 1.71904 10.71 1.71904 10.71L3.00804 13.934L1.36804 18.709C1.36804 18.709 6.19204 37.329 6.75804 39.604C7.87104 44.081 8.63304 45.812 11.798 48.081C14.961 50.349 20.703 54.289 21.641 54.886C22.579 55.483 23.751 56.5 24.805 56.5C25.86 56.5 27.032 55.483 27.969 54.886C28.907 54.289 34.649 50.349 37.813 48.081C40.977 45.812 41.739 44.081 42.853 39.604C43.418 37.33 48.243 18.709 48.243 18.709L46.602 13.934Z" fill="#697586"/>
<path fill-rule="evenodd" clip-rule="evenodd" d="M24.805 35.3501C25.127 35.3501 27.185 36.0901 28.836 36.9601C30.488 37.8311 31.685 38.4471 32.067 38.6911C32.45 38.9351 32.217 39.3951 31.867 39.6461C31.519 39.8971 26.837 43.5921 26.382 44.0001C25.927 44.4081 25.259 45.0831 24.805 45.0831C24.351 45.0831 23.683 44.4081 23.229 44.0001C22.774 43.5921 18.091 39.8971 17.743 39.6461C17.394 39.3961 17.161 38.9361 17.543 38.6911C17.926 38.4471 19.123 37.8311 20.775 36.9611C22.425 36.0911 24.485 35.3501 24.805 35.3501ZM24.83 9.03613C24.988 9.04013 25.877 9.08413 27.15 9.51613C28.555 9.99413 30.079 10.5911 30.782 10.5911C31.485 10.5911 36.7 9.57613 36.7 9.57613C36.7 9.57613 42.88 17.1871 42.88 18.8141C42.88 20.4411 42.103 20.8701 41.321 21.7161L36.687 26.7291C36.249 27.2031 35.337 27.9231 35.873 29.2171C36.41 30.5111 37.202 32.1581 36.321 33.8291C35.441 35.4991 33.931 36.6141 32.965 36.4301C31.998 36.2461 29.727 35.0371 28.892 34.4851C28.057 33.9321 25.411 31.7091 25.411 30.8581C25.411 30.0081 28.146 28.4801 28.651 28.1331C29.157 27.7861 31.462 26.4431 31.51 25.9151C31.557 25.3881 31.539 25.2331 30.859 23.9301C30.179 22.6271 28.953 20.8891 29.157 19.7321C29.361 18.5751 31.337 17.9741 32.747 17.4321C34.157 16.8891 36.871 15.8641 37.21 15.7051C37.55 15.5451 37.462 15.3941 36.435 15.2951C35.407 15.1951 32.492 14.8011 31.178 15.1751C29.864 15.5481 27.618 16.1151 27.436 16.4171C27.255 16.7171 27.094 16.7271 27.281 17.7671C27.468 18.8051 28.429 23.7901 28.523 24.6751C28.616 25.5601 28.799 26.1451 27.862 26.3641C26.925 26.5821 25.347 26.9611 24.805 26.9611C24.263 26.9611 22.686 26.5821 21.749 26.3641C20.812 26.1451 20.995 25.5601 21.088 24.6741C21.181 23.7901 22.143 18.8051 22.33 17.7671C22.516 16.7271 22.356 16.7171 22.174 16.4171C21.992 16.1161 19.747 15.5471 18.433 15.1741C17.118 14.8011 14.203 15.1951 13.176 15.2941C12.149 15.3941 12.061 15.5461 12.4 15.7051C12.74 15.8651 15.454 16.8891 16.864 17.4311C18.274 17.9741 20.25 18.5751 20.454 19.7321C20.657 20.8891 19.432 22.6271 18.752 23.9301C18.072 25.2331 18.054 25.3881 18.101 25.9151C18.148 26.4421 20.453 27.7851 20.959 28.1331C21.464 28.4801 24.199 30.0071 24.199 30.8581C24.199 31.7081 21.553 33.9321 20.719 34.4851C19.883 35.0371 17.613 36.2451 16.646 36.4301C15.679 36.6141 14.17 35.5001 13.29 33.8291C12.409 32.1591 13.2 30.5111 13.738 29.2171C14.274 27.9231 13.362 27.2031 12.923 26.7291L8.28996 21.7161C7.50896 20.8701 6.73096 20.4411 6.73096 18.8141C6.73096 17.1871 12.911 9.57613 12.911 9.57613C12.911 9.57613 18.126 10.5911 18.83 10.5911C19.533 10.5911 21.056 9.99413 22.463 9.51613C23.735 9.08413 24.623 9.04013 24.781 9.03613H24.83Z" fill="white"/>
<path d="M38.0471 6.054L33.243 0.5H16.3671L11.5631 6.054C11.5631 6.054 7.34305 4.86 5.35205 6.889C5.35205 6.889 10.9771 6.372 12.9101 9.576C12.9101 9.576 18.125 10.591 18.828 10.591C19.532 10.591 21.0551 9.994 22.4611 9.516C23.8681 9.039 24.805 9.036 24.805 9.036C24.805 9.036 25.7431 9.039 27.1491 9.516C28.5551 9.994 30.0791 10.591 30.7821 10.591C31.4851 10.591 36.7001 9.576 36.7001 9.576C38.633 6.372 44.258 6.889 44.258 6.889C42.266 4.859 38.0471 6.054 38.0471 6.054Z" fill="#697586"/>
</g>
<defs>
<clipPath id="clip0_131_223">
<rect width="181" height="56" fill="white" transform="translate(0.5 0.5)"/>
</clipPath>
</defs>
</svg>
