<svg width="250" height="41" viewBox="0 0 250 41" fill="none" xmlns="http://www.w3.org/2000/svg">
<g clip-path="url(#clip0_131_268)">
<path d="M55.7271 7.6071H64.2031C72.4031 7.5201 78.444 12.8131 78.324 20.4491C78.444 27.9331 72.4041 33.5671 64.2031 33.4451H55.7271V7.6071ZM64.1511 28.6871C69.3681 28.6871 72.867 25.4341 72.867 20.4671C72.867 15.4491 69.4521 12.4031 64.1511 12.4031H61.0041V28.6961H64.1511V28.6871ZM97.7461 33.4631H92.8741V31.5801C92.099 32.3533 91.1742 32.9601 90.1565 33.3635C89.1387 33.7669 88.0494 33.9583 86.9551 33.9261C82.8381 33.9261 80.2451 31.5291 80.2451 28.1391C80.2451 24.6461 83.075 22.5051 87.588 22.5051H92.461V21.6491C92.5022 21.1747 92.4356 20.6972 92.2663 20.2521C92.0969 19.8071 91.8292 19.4061 91.4831 19.0791C91.1371 18.7513 90.7217 18.5057 90.2678 18.3607C89.8138 18.2156 89.333 18.1747 88.861 18.2411C87.8567 18.268 86.8716 18.5224 85.9799 18.9853C85.0881 19.4481 84.3131 20.1073 83.713 20.9131L80.96 17.6601C81.9726 16.3859 83.2658 15.3627 84.7388 14.6705C86.2118 13.9782 87.8248 13.6355 89.4521 13.6691C90.5709 13.5629 91.6995 13.7048 92.7573 14.0845C93.8151 14.4643 94.7762 15.0726 95.572 15.8661C96.3665 16.6587 96.9758 17.6173 97.3561 18.6732C97.7365 19.729 97.8785 20.8559 97.7721 21.9731V33.4631H97.7461ZM92.436 25.9791H88.293C86.559 25.9791 85.5821 26.6471 85.5821 27.9311C85.5821 29.2151 86.68 30.0371 88.362 30.0371C89.1504 30.0812 89.9334 29.8832 90.606 29.4696C91.2786 29.056 91.8087 28.4466 92.125 27.7231C92.334 27.2431 92.4431 26.7251 92.445 26.2011L92.436 25.9791ZM112.963 33.9261C111.884 33.9602 110.809 33.7692 109.808 33.3653C108.807 32.9614 107.901 32.3534 107.147 31.5801V40.5001H101.836V14.0831H106.708V16.5111C107.439 15.5608 108.391 14.8035 109.481 14.305C110.571 13.8066 111.766 13.5821 112.963 13.6511C114.256 13.6632 115.533 13.938 116.717 14.4589C117.901 14.9798 118.966 15.7358 119.849 16.6811C120.73 17.6257 121.409 18.74 121.845 19.956C122.28 21.1719 122.464 22.464 122.383 23.7531C122.465 25.0461 122.284 26.3422 121.849 27.5628C121.415 28.7833 120.737 29.9028 119.856 30.8531C118.974 31.8044 117.909 32.5671 116.724 33.0953C115.539 33.6234 114.26 33.9061 112.963 33.9261ZM111.98 18.4291C110.948 18.4099 109.937 18.7206 109.094 19.3159C108.252 19.9113 107.621 20.7603 107.294 21.7391C107.078 22.3877 107.002 23.075 107.072 23.7551C107.002 24.4374 107.078 25.1267 107.293 25.7778C107.509 26.4289 107.859 27.0271 108.322 27.5331C108.786 28.0395 109.352 28.4421 109.982 28.7145C110.612 28.987 111.293 29.1232 111.98 29.1141C112.667 29.1166 113.347 28.9783 113.979 28.7078C114.61 28.4372 115.18 28.0402 115.652 27.5411C116.124 27.0424 116.487 26.4518 116.72 25.8063C116.954 25.1607 117.051 24.474 117.007 23.7891C117.06 23.101 116.969 22.4093 116.74 21.7583C116.511 21.1073 116.148 20.5112 115.676 20.0081C115.204 19.5038 114.632 19.1031 113.997 18.8312C113.362 18.5594 112.677 18.4225 111.986 18.4291H111.98ZM136.658 33.9261C135.579 33.9605 134.504 33.7697 133.502 33.3658C132.501 32.9619 131.595 32.3537 130.841 31.5801V40.5001H125.531V14.0831H130.418V16.5111C131.148 15.5634 132.097 14.8078 133.184 14.3095C134.272 13.8111 135.464 13.5852 136.658 13.6511C137.951 13.6636 139.228 13.9386 140.412 14.4594C141.595 14.9803 142.66 15.7361 143.543 16.6811C144.424 17.6257 145.103 18.74 145.539 19.9559C145.975 21.1719 146.158 22.4639 146.078 23.7531C146.16 25.0461 145.979 26.3422 145.544 27.5628C145.11 28.7833 144.432 29.9028 143.551 30.8531C142.67 31.8049 141.604 32.568 140.42 33.0962C139.235 33.6244 137.955 33.9067 136.658 33.9261ZM135.675 18.4291C134.99 18.4164 134.31 18.549 133.68 18.818C133.05 19.0871 132.484 19.4865 132.02 19.9901C131.556 20.4931 131.205 21.0889 130.989 21.738C130.773 22.3871 130.697 23.0746 130.767 23.7551C130.697 24.4374 130.773 25.1267 130.988 25.7778C131.204 26.4289 131.554 27.0271 132.017 27.5331C132.481 28.0392 133.047 28.4416 133.677 28.714C134.308 28.9864 134.988 29.1228 135.675 29.1141C136.71 29.1181 137.72 28.8023 138.569 28.21C139.417 27.6177 140.062 26.7778 140.415 25.8051C140.648 25.1599 140.746 24.4737 140.702 23.7891C140.756 23.1006 140.666 22.4085 140.437 21.7569C140.209 21.1052 139.847 20.5083 139.375 20.0041C138.902 19.4998 138.33 19.0994 137.694 18.8283C137.058 18.5571 136.372 18.4212 135.681 18.4291H135.675ZM165.347 33.4631L158.637 24.3361H154.761V33.4631H149.45V7.6071H159.178C164.6 7.6071 168.512 10.9791 168.512 15.9461C168.54 17.4802 168.126 18.99 167.32 20.2957C166.514 21.6013 165.35 22.6477 163.966 23.3101L171.309 33.4471H165.347V33.4631ZM154.745 19.6801H159.176C159.688 19.7343 160.206 19.6771 160.693 19.5126C161.181 19.3482 161.627 19.0802 162.002 18.7271C162.376 18.3731 162.668 17.9431 162.859 17.4671C163.051 16.9901 163.137 16.4771 163.111 15.9641C163.127 15.4545 163.034 14.9474 162.838 14.4766C162.642 14.0058 162.348 13.5822 161.976 13.2339C161.604 12.8856 161.161 12.6206 160.678 12.4567C160.196 12.2927 159.683 12.2336 159.176 12.2831H154.751L154.745 19.6801ZM189.109 33.4631H184.236V31.5801C183.461 32.3534 182.536 32.9604 181.519 33.3638C180.501 33.7672 179.411 33.9585 178.317 33.9261C174.201 33.9261 171.608 31.5291 171.608 28.1391C171.608 24.6461 174.439 22.5051 178.951 22.5051H183.824V21.6491C183.885 20.9331 183.701 20.2175 183.302 19.6199C182.903 19.0222 182.313 18.578 181.628 18.3601C181.174 18.2149 180.692 18.1739 180.22 18.2401C179.216 18.2673 178.231 18.522 177.339 18.985C176.447 19.448 175.672 20.1073 175.072 20.9131L172.318 17.6601C173.328 16.3875 174.619 15.3653 176.089 14.6732C177.559 13.9811 179.169 13.6379 180.794 13.6701C181.913 13.5639 183.041 13.7057 184.099 14.0854C185.157 14.4652 186.118 15.0735 186.914 15.8671C187.708 16.6603 188.317 17.6191 188.698 18.675C189.078 19.7308 189.221 20.8577 189.115 21.9751V33.4651L189.109 33.4631ZM183.798 25.9791H179.645C177.912 25.9791 176.935 26.6471 176.935 27.9311C176.935 29.2151 178.032 30.0371 179.714 30.0371C180.503 30.0816 181.286 29.8837 181.959 29.4701C182.632 29.0564 183.162 28.4468 183.478 27.7231C183.687 27.2428 183.796 26.7249 183.798 26.2011V25.9791ZM212.65 4.0791V33.4451H207.778V31.0481C207.048 31.9964 206.097 32.7525 205.009 33.2508C203.921 33.7492 202.727 33.9748 201.532 33.9081C200.236 33.895 198.957 33.6183 197.771 33.0948C196.586 32.5713 195.52 31.812 194.637 30.8631C193.756 29.9152 193.077 28.7972 192.643 27.5777C192.208 26.3582 192.028 25.0629 192.112 23.7711C192.028 22.4794 192.209 21.184 192.643 19.9646C193.077 18.7451 193.756 17.6271 194.637 16.6791C195.519 15.73 196.586 14.9706 197.771 14.4469C198.957 13.9232 200.236 13.6463 201.532 13.6331C202.61 13.5818 203.687 13.7616 204.691 14.1605C205.694 14.5594 206.6 15.1682 207.349 15.9461V4.0791H212.65ZM202.528 18.4291C201.841 18.4264 201.16 18.5648 200.529 18.8355C199.897 19.1062 199.328 19.5036 198.856 20.0031C198.384 20.5018 198.021 21.0924 197.787 21.7379C197.554 22.3834 197.456 23.0701 197.5 23.7551C197.446 24.444 197.536 25.1366 197.765 25.7885C197.994 26.4405 198.357 27.0374 198.83 27.5411C199.303 28.0459 199.877 28.4465 200.513 28.7173C201.15 28.9882 201.836 29.1233 202.528 29.1141C203.213 29.1268 203.893 28.9943 204.523 28.7255C205.153 28.4566 205.718 28.0574 206.183 27.5541C206.646 27.0501 206.998 26.4541 207.214 25.8051C207.43 25.1561 207.506 24.4691 207.435 23.7891C207.538 22.7613 207.311 21.7274 206.787 20.8371C206.263 19.9467 205.47 19.2459 204.522 18.8361C203.893 18.5623 203.214 18.4236 202.528 18.4291ZM233.204 33.4631H228.331V31.5801C227.556 32.3531 226.632 32.9599 225.614 33.3633C224.596 33.7667 223.507 33.9582 222.413 33.9261C218.295 33.9261 215.703 31.5291 215.703 28.1391C215.703 24.6461 218.534 22.5051 223.046 22.5051H227.918V21.6491C227.96 21.1745 227.894 20.6966 227.724 20.2513C227.555 19.806 227.287 19.4049 226.94 19.0781C226.593 18.7505 226.177 18.5052 225.723 18.3603C225.269 18.2154 224.787 18.1747 224.315 18.2411C223.311 18.2682 222.326 18.5228 221.434 18.9856C220.542 19.4484 219.767 20.1074 219.167 20.9131L216.413 17.6601C217.424 16.3887 218.715 15.3675 220.185 14.6757C221.655 13.9839 223.265 13.6401 224.889 13.6711C226.008 13.5649 227.136 13.7066 228.194 14.0861C229.252 14.4657 230.213 15.0738 231.009 15.8671C231.804 16.6598 232.413 17.6186 232.793 18.6746C233.174 19.7306 233.316 20.8577 233.209 21.9751V33.4651L233.204 33.4631ZM227.918 25.9791H223.768C222.035 25.9791 221.057 26.6471 221.057 27.9311C221.057 29.2151 222.155 30.0371 223.836 30.0371C224.36 30.0667 224.884 29.9896 225.377 29.8105C225.87 29.6313 226.321 29.3539 226.704 28.9951C227.086 28.6364 227.391 28.2036 227.6 27.7233C227.809 27.2429 227.918 26.725 227.92 26.2011L227.918 25.9791ZM249.247 18.7381H247.84C247.149 18.6579 246.449 18.7321 245.791 18.9551C245.132 19.1782 244.531 19.5447 244.031 20.0281C243.532 20.5109 243.146 21.0988 242.903 21.7493C242.66 22.3997 242.564 23.0962 242.624 23.7881V33.4631H237.313V14.0791H242.185V16.3921C242.82 15.5871 243.632 14.9385 244.557 14.4961C245.482 14.0537 246.497 13.8293 247.522 13.8401C248.109 13.8248 248.694 13.9058 249.254 14.0801V18.7381H249.247Z" fill="#697586"/>
<path fill-rule="evenodd" clip-rule="evenodd" d="M44.5701 18.496L35.3071 2.463C34.9525 1.86416 34.4479 1.36813 33.843 1.02388C33.2382 0.679635 32.554 0.499068 31.8581 0.500004H13.3261C12.6277 0.500496 11.9418 0.684268 11.3367 1.03295C10.7316 1.38164 10.2287 1.88303 9.87809 2.487L0.614091 18.513C0.268307 19.1181 0.0864258 19.803 0.0864258 20.5C0.0864258 21.197 0.268307 21.8819 0.614091 22.487L9.87809 38.513C10.2263 39.119 10.7288 39.6221 11.3344 39.9711C11.94 40.3201 12.6271 40.5026 13.3261 40.5H31.8561C32.5544 40.4995 33.2404 40.3157 33.8455 39.9671C34.4506 39.6184 34.9535 39.117 35.3041 38.513L44.5691 22.487C44.9154 21.879 45.0977 21.1915 45.0981 20.4918C45.0984 19.7921 44.9158 19.1043 44.5701 18.496ZM22.5921 34.249V31.501C24.7741 31.501 26.9071 30.855 28.7221 29.645C30.5353 28.4361 31.9493 26.7166 32.7851 24.704C33.6209 22.6921 33.8398 20.4771 33.4141 18.3405C32.9883 16.2039 31.9372 14.242 30.3941 12.704C28.849 11.1641 26.8829 10.1158 24.7433 9.69105C22.6037 9.26629 20.3862 9.48408 18.3701 10.317C16.3551 11.1498 14.6322 12.5613 13.4191 14.373C12.2069 16.1827 11.5595 18.3118 11.5591 20.49C11.5531 22.892 12.3437 25.2282 13.8071 27.133L15.7981 25.198C14.8313 23.8175 14.316 22.1714 14.3231 20.486C14.3231 18.8499 14.8089 17.2506 15.7191 15.891C16.6306 14.5302 17.9252 13.4702 19.4391 12.845C20.9532 12.2196 22.6185 12.0561 24.2254 12.3752C25.8322 12.6942 27.3088 13.4815 28.4691 14.638C29.3362 15.5017 30.0004 16.5473 30.4137 17.6992C30.827 18.8511 30.9791 20.0805 30.8589 21.2984C30.7386 22.5163 30.3492 23.6922 29.7186 24.7411C29.0881 25.79 28.2323 26.6855 27.2131 27.363C25.85 28.2719 24.2484 28.7569 22.6101 28.757V26.008C23.7012 26.0045 24.7668 25.6784 25.673 25.0707C26.5793 24.4631 27.2856 23.601 27.7031 22.593C28.1191 21.5852 28.2264 20.4766 28.0115 19.4077C27.7967 18.3388 27.2692 17.3578 26.4961 16.589C25.9176 16.0131 25.2188 15.5724 24.4499 15.2986C23.6809 15.0247 22.8609 14.9245 22.0486 15.0051C21.2364 15.0857 20.452 15.3451 19.7519 15.7647C19.0517 16.1843 18.4531 16.7537 17.9991 17.432C17.3928 18.3381 17.0692 19.4038 17.0691 20.494C17.0657 21.4593 17.3201 22.408 17.8061 23.242L19.8661 21.238C19.7974 20.9987 19.7631 20.7509 19.7641 20.502C19.7637 19.9428 19.9295 19.396 20.2406 18.9313C20.5517 18.4665 20.9939 18.1048 21.5111 17.892C22.0283 17.6781 22.5972 17.6221 23.1462 17.731C23.6952 17.8399 24.1997 18.1089 24.5961 18.504C24.9926 18.899 25.2627 19.4028 25.3722 19.9516C25.4817 20.5005 25.4256 21.0694 25.2111 21.5863C24.9965 22.1032 24.6332 22.5446 24.1672 22.8545C23.7013 23.1645 23.1537 23.3289 22.5941 23.327C22.3198 23.3245 22.0476 23.2779 21.7881 23.189L14.6671 30.123C14.5907 30.1982 14.5038 30.2618 14.4091 30.312C14.3961 30.316 14.3841 30.32 14.3761 30.327C14.3228 30.3627 14.2654 30.3919 14.2051 30.414C14.1871 30.423 14.1691 30.427 14.1511 30.432C14.1341 30.436 14.1181 30.44 14.1021 30.447L13.9471 30.498C13.914 30.4973 13.8812 30.5041 13.8511 30.518C13.8231 30.518 13.7951 30.523 13.7691 30.528C13.7491 30.532 13.7291 30.535 13.7131 30.535C13.6881 30.535 13.6631 30.531 13.6371 30.527C13.6108 30.5214 13.584 30.518 13.5571 30.517C13.5164 30.5187 13.4757 30.513 13.4371 30.5L13.2821 30.449C13.2651 30.439 13.2461 30.435 13.2281 30.431C13.2121 30.427 13.1961 30.423 13.1801 30.416C13.1249 30.3938 13.0728 30.3646 13.0251 30.329C12.994 30.3163 12.9647 30.2995 12.9381 30.279C12.8885 30.2434 12.8423 30.2032 12.8001 30.159C12.7938 30.1529 12.7872 30.1472 12.7801 30.142C12.7599 30.1288 12.7431 30.111 12.7311 30.09C10.513 27.817 9.15109 24.8456 8.87723 21.6816C8.60338 18.5175 9.43449 15.3563 11.2291 12.736C13.0257 10.1129 15.6739 8.19172 18.7251 7.298C21.7772 6.40352 25.0446 6.59002 27.9751 7.826C30.904 9.06086 33.3157 11.2708 34.8011 14.081C36.2847 16.8885 36.7494 20.1234 36.1161 23.235C35.4817 26.3477 33.7892 29.1448 31.3261 31.151C28.8602 33.1594 25.7764 34.2545 22.5961 34.251L22.5921 34.249Z" fill="#697586"/>
</g>
<defs>
<clipPath id="clip0_131_268">
<rect width="250" height="40" fill="white" transform="translate(0 0.5)"/>
</clipPath>
</defs>
</svg>
