<svg width="199" height="49" viewBox="0 0 199 49" fill="none" xmlns="http://www.w3.org/2000/svg">
<g clip-path="url(#clip0_131_253)">
<path d="M63.332 34.6492H70.6152C77.3255 34.6492 81.7989 30.7757 81.7989 24.9384C81.7989 19.101 77.3255 15.2275 70.6152 15.2275H63.332V34.6492ZM67.7511 31.1031V18.7736H70.6152C74.5977 18.7736 77.2981 21.174 77.2981 24.9384C77.2981 28.73 74.5977 31.1031 70.6152 31.1031H67.7511Z" fill="#697586"/>
<path d="M90.6674 35.086C94.0498 35.086 96.7504 33.5585 97.6233 31.0489L94.1862 30.176C93.5862 31.3217 92.386 32.0855 90.8312 32.0855C88.8398 32.0855 87.4488 30.8035 87.1213 28.8395H98.087C98.1415 28.5395 98.1414 27.9667 98.1414 27.612C98.1414 23.2203 95.0865 20.2471 90.6402 20.2471C86.1393 20.2471 82.948 23.1931 82.948 27.5575C82.948 32.0583 86.1393 35.086 90.6674 35.086ZM87.0941 26.3299C87.4214 24.4751 88.7034 23.2476 90.531 23.2476C92.4133 23.2476 93.777 24.5568 94.0226 26.3299H87.0941Z" fill="#697586"/>
<path d="M100.214 34.6492H104.77V26.9296H112.953V23.3835H104.77V19.101H114.126V15.2275H100.214V34.6492Z" fill="#697586"/>
<path d="M117.764 18.7463C119.182 18.7463 120.191 17.7643 120.191 16.3731C120.191 15.0093 119.182 14 117.764 14C116.345 14 115.336 15.0093 115.336 16.3731C115.336 17.7643 116.345 18.7463 117.764 18.7463ZM115.745 34.6491H119.782V20.683H115.745V34.6491Z" fill="#697586"/>
<path d="M136.354 35.33C141.073 35.33 143.828 33.0659 143.828 29.4652C143.828 25.1008 139.872 24.3371 136.381 23.7643C133.544 23.3279 130.98 22.864 130.98 20.3272C130.98 18.2542 132.671 16.9176 135.781 16.9176C139.081 16.9176 140.991 18.527 140.991 21.2547H143.391C143.364 17.1903 140.5 14.7354 135.781 14.7354C131.144 14.7354 128.498 16.9994 128.498 20.4636C128.498 24.6371 132.316 25.5372 135.781 26.0828C138.672 26.5465 141.345 26.9831 141.345 29.6289C141.345 31.7839 139.518 33.1477 136.381 33.1477C132.78 33.1477 130.68 31.3747 130.652 28.4015H128.198C128.198 32.684 131.307 35.33 136.354 35.33Z" fill="#697586"/>
<path d="M150.497 35.0854C152.707 35.0854 154.316 34.2126 155.298 32.6305H155.544V34.649H157.808V25.511C157.808 22.3741 155.544 20.3555 151.97 20.3555C148.506 20.3555 146.242 22.2105 146.242 25.1291H148.533C148.506 23.4106 149.87 22.4014 151.943 22.4014C154.207 22.4014 155.544 23.6017 155.544 25.4565V26.0021L151.725 26.4658C147.633 26.9294 145.56 28.7298 145.56 31.1574C145.56 33.5306 147.524 35.0854 150.497 35.0854ZM150.825 33.2033C148.97 33.2033 147.824 32.4122 147.824 31.103C147.824 29.8209 148.915 28.7298 151.725 28.3751L155.544 27.9387V29.1662C155.544 31.4849 153.634 33.2033 150.825 33.2033Z" fill="#697586"/>
<path d="M164.348 34.6502H167.567L172.805 20.875H170.487L166.066 32.8499H165.822L161.43 20.875H159.111L164.348 34.6502Z" fill="#697586"/>
<path d="M180.867 35.1945C183.922 35.1945 186.404 33.7761 187.523 31.4301L185.641 30.4754C184.767 32.1121 182.968 33.1486 180.922 33.1486C178.111 33.1486 176.093 31.2937 175.766 28.5114H187.959C187.986 28.2114 187.986 27.8841 187.986 27.6113C187.986 23.3833 184.959 20.3281 180.758 20.3281C176.503 20.3281 173.448 23.3833 173.448 27.584C173.448 32.003 176.557 35.1945 180.867 35.1945ZM175.793 26.5201C176.176 24.038 178.111 22.374 180.649 22.374C183.268 22.374 185.203 24.038 185.613 26.5201H175.793Z" fill="#697586"/>
<path d="M190.652 34.6486H192.918V27.229C192.918 24.5013 194.363 22.6465 196.437 22.6465C196.954 22.6465 197.773 22.7556 198.481 23.0557V20.9553C198.073 20.737 197.418 20.6006 196.79 20.6006C195.263 20.6006 193.735 21.4734 193.108 22.7282H192.862V20.8734H190.652V34.6486Z" fill="#697586"/>
<path d="M43.5605 10.1832C42.9865 9.4186 41.8737 9.38277 41.1977 10.0588L33.6958 17.5607C33.1244 18.132 33.0645 19.0274 33.4411 19.7423C35.0087 22.7177 35.0087 26.2854 33.4411 29.2606C33.0645 29.9756 33.1244 30.8709 33.6958 31.4423L41.1977 38.9442C41.8737 39.6203 42.9865 39.5844 43.5605 38.8197C49.9211 30.3478 49.9211 18.655 43.5605 10.1832Z" fill="#697586"/>
<path d="M10.0123 5.27039C9.2477 5.84445 9.21187 6.95714 9.88795 7.63321L17.3897 15.1351C17.9612 15.7065 18.8565 15.7664 19.5714 15.3898C22.5468 13.8223 26.1144 13.8223 29.0897 15.3898C29.8047 15.7664 30.7 15.7065 31.2713 15.1351L38.7733 7.63323C39.4493 6.95714 39.4134 5.84445 38.6489 5.27039C30.1769 -1.09013 18.4842 -1.09013 10.0123 5.27039Z" fill="#697586"/>
<path d="M31.2713 33.8647C30.7 33.2934 29.8047 33.2334 29.0897 33.6101C26.1145 35.1776 22.5468 35.1776 19.5714 33.6101C18.8566 33.2334 17.9613 33.2934 17.3898 33.8647L9.88794 41.3667C9.21187 42.0427 9.2477 43.1555 10.0123 43.7294C18.4842 50.09 30.1769 50.09 38.649 43.7294C39.4135 43.1555 39.4493 42.0427 38.7733 41.3667L31.2713 33.8647Z" fill="#697586"/>
<path d="M15.2218 19.7424C15.5985 19.0274 15.5385 18.1321 14.9671 17.5607L7.46525 10.0588C6.78918 9.38277 5.67648 9.4186 5.10242 10.1832C-1.2581 18.655 -1.2581 30.3478 5.10242 38.8197C5.67648 39.5844 6.78918 39.6203 7.46526 38.9442L14.9671 31.4423C15.5385 30.871 15.5985 29.9756 15.2218 29.2607C13.6543 26.2854 13.6543 22.7177 15.2218 19.7424Z" fill="#697586"/>
</g>
<defs>
<clipPath id="clip0_131_253">
<rect width="199" height="48" fill="white" transform="translate(0 0.5)"/>
</clipPath>
</defs>
</svg>
