<svg width="95" height="95" viewBox="0 0 95 95" fill="none" xmlns="http://www.w3.org/2000/svg">
<path d="M0.657959 47.0866C0.657959 8.30635 8.96968 -0.00537109 47.7499 -0.00537109C86.5301 -0.00537109 94.8418 8.30635 94.8418 47.0866C94.8418 85.8668 86.5301 94.1785 47.7499 94.1785C8.96968 94.1785 0.657959 85.8668 0.657959 47.0866Z" fill="white"/>
<path d="M47.7452 59.7895L32.1511 50.577L47.7452 72.5572L63.3532 50.577L47.7452 59.7895Z" fill="#CBEAFF"/>
<path d="M63.3439 47.6208L47.7452 56.838L32.1465 47.6208L47.7452 21.7374L63.3439 47.6208Z" fill="#CBEAFF"/>
<path d="M63.3439 47.6207L47.7452 40.5291V21.7373L63.3439 47.6207ZM63.3532 50.5771L47.7452 72.5573V59.7896L63.3532 50.5771ZM47.7452 40.5291V56.8379L32.1511 47.6207L47.7452 40.5291Z" fill="#53BAFF"/>
<path d="M63.3438 47.6206L47.7451 56.8379V40.5291L63.3438 47.6206Z" fill="#0091F0"/>
</svg>
