<svg width="95" height="95" viewBox="0 0 95 95" fill="none" xmlns="http://www.w3.org/2000/svg">
<path d="M0.408203 47.5863C0.408203 8.80611 8.71993 0.494385 47.5001 0.494385C86.2803 0.494385 94.5921 8.80611 94.5921 47.5863C94.5921 86.3665 86.2803 94.6782 47.5001 94.6782C8.71993 94.6782 0.408203 86.3665 0.408203 47.5863Z" fill="white"/>
<g clip-path="url(#clip0_27_822)">
<path opacity="0.4" d="M29.875 30.0178C29.875 26.6761 32.5919 23.9592 35.9336 23.9592H51.0801V36.0764C51.0801 37.752 52.4338 39.1057 54.1094 39.1057H66.2266V66.3694C66.2266 69.7111 63.5097 72.428 60.168 72.428H35.9336C32.5919 72.428 29.875 69.7111 29.875 66.3694V30.0178ZM38.9629 49.7083C38.9629 50.5413 39.6445 51.2229 40.4775 51.2229H55.624C56.4571 51.2229 57.1387 50.5413 57.1387 49.7083C57.1387 48.8752 56.4571 48.1936 55.624 48.1936H40.4775C39.6445 48.1936 38.9629 48.8752 38.9629 49.7083ZM38.9629 55.7668C38.9629 56.5999 39.6445 57.2815 40.4775 57.2815H55.624C56.4571 57.2815 57.1387 56.5999 57.1387 55.7668C57.1387 54.9338 56.4571 54.2522 55.624 54.2522H40.4775C39.6445 54.2522 38.9629 54.9338 38.9629 55.7668ZM38.9629 61.8254C38.9629 62.6585 39.6445 63.3401 40.4775 63.3401H55.624C56.4571 63.3401 57.1387 62.6585 57.1387 61.8254C57.1387 60.9924 56.4571 60.3108 55.624 60.3108H40.4775C39.6445 60.3108 38.9629 60.9924 38.9629 61.8254Z" fill="#0091F0"/>
<path d="M66.2266 39.1057L51.0801 23.9592V36.0764C51.0801 37.752 52.4338 39.1057 54.1094 39.1057H66.2266ZM40.4775 48.1936C39.6445 48.1936 38.9629 48.8752 38.9629 49.7083C38.9629 50.5413 39.6445 51.2229 40.4775 51.2229H55.624C56.4571 51.2229 57.1387 50.5413 57.1387 49.7083C57.1387 48.8752 56.4571 48.1936 55.624 48.1936H40.4775ZM40.4775 54.2522C39.6445 54.2522 38.9629 54.9338 38.9629 55.7668C38.9629 56.5999 39.6445 57.2815 40.4775 57.2815H55.624C56.4571 57.2815 57.1387 56.5999 57.1387 55.7668C57.1387 54.9338 56.4571 54.2522 55.624 54.2522H40.4775ZM40.4775 60.3108C39.6445 60.3108 38.9629 60.9924 38.9629 61.8254C38.9629 62.6585 39.6445 63.3401 40.4775 63.3401H55.624C56.4571 63.3401 57.1387 62.6585 57.1387 61.8254C57.1387 60.9924 56.4571 60.3108 55.624 60.3108H40.4775Z" fill="#0091F0"/>
</g>
<defs>
<clipPath id="clip0_27_822">
<rect width="36.3516" height="48.4688" fill="white" transform="translate(29.875 23.9592)"/>
</clipPath>
</defs>
</svg>
