<svg width="544" height="379" viewBox="0 0 544 379" fill="none" xmlns="http://www.w3.org/2000/svg">
<path d="M272 378.049C405.446 378.049 513.626 356.844 513.626 330.686C513.626 304.528 405.446 283.323 272 283.323C138.554 283.323 30.3741 304.528 30.3741 330.686C30.3741 356.844 138.554 378.049 272 378.049Z" fill="#CDD5DF"/>
<path d="M490.063 361.204H63.4825C58.7234 361.204 54.8656 357.346 54.8656 352.586V348.959H498.681V352.586C498.681 357.345 494.822 361.204 490.063 361.204Z" fill="#29275F"/>
<path d="M452.379 281.39H101.167L54.8656 348.96H498.681L452.379 281.39Z" fill="white"/>
<path d="M446.334 58.6162H107.213C103.972 58.6162 101.344 61.2435 101.344 64.4849V281.39H452.202V64.4849C452.202 61.2435 449.575 58.6162 446.334 58.6162Z" fill="#29275F"/>
<path d="M441.465 77.0806H112.082V264.108H441.465V77.0806Z" fill="#0091F0"/>
<path d="M490.064 362.052H63.4825C58.2631 362.052 54.0162 357.805 54.0162 352.586V348.96C54.0162 348.492 54.3962 348.112 54.8645 348.112H498.68C499.148 348.112 499.528 348.492 499.528 348.96V352.586C499.529 357.805 495.284 362.052 490.064 362.052ZM55.7138 349.808V352.586C55.7138 356.87 59.1995 360.356 63.4837 360.356H490.064C494.348 360.356 497.833 356.87 497.833 352.586V349.808H55.7138Z" fill="#29275F"/>
<path d="M498.681 349.808H54.8657C54.5513 349.808 54.2617 349.634 54.1147 349.356C53.9677 349.078 53.988 348.741 54.1656 348.482L100.467 280.911C100.625 280.68 100.886 280.542 101.167 280.542H452.379C452.658 280.542 452.921 280.68 453.079 280.911L499.38 348.482C499.558 348.742 499.577 349.078 499.43 349.356C499.285 349.633 498.996 349.808 498.681 349.808ZM56.4751 348.112H497.072L451.932 282.238H101.614L56.4751 348.112Z" fill="#29275F"/>
<path d="M452.202 282.238H101.344C100.876 282.238 100.496 281.858 100.496 281.39V64.4847C100.496 60.7808 103.509 57.7678 107.213 57.7678H446.334C450.038 57.7678 453.052 60.7808 453.052 64.4847V281.39C453.051 281.858 452.671 282.238 452.202 282.238ZM102.193 280.541H451.354V64.4847C451.354 61.7161 449.102 59.4643 446.333 59.4643H107.213C104.444 59.4643 102.193 61.7161 102.193 64.4847V280.541Z" fill="#29275F"/>
<path d="M441.465 264.955H112.082C111.614 264.955 111.234 264.575 111.234 264.107V77.0804C111.234 76.6122 111.614 76.2322 112.082 76.2322H441.465C441.933 76.2322 442.313 76.6122 442.313 77.0804V264.107C442.313 264.575 441.933 264.955 441.465 264.955ZM112.93 263.259H440.617V77.9286H112.93V263.259Z" fill="#29275F"/>
<path d="M367.012 271.851H186.536V280.05H367.012V271.851Z" fill="white"/>
<path d="M261.472 67.6435C261.472 70.6971 258.996 73.1717 255.944 73.1717C252.89 73.1717 250.415 70.6971 250.415 67.6435C250.415 64.5898 252.89 62.1152 255.944 62.1152C258.996 62.1152 261.472 64.5898 261.472 67.6435Z" fill="#0091F0"/>
<path d="M340.413 344.345H213.132C212.818 344.345 212.528 344.17 212.381 343.892C212.234 343.614 212.255 343.277 212.432 343.018L225.711 323.64C225.869 323.409 226.131 323.271 226.411 323.271H327.135C327.414 323.271 327.677 323.409 327.835 323.64L341.113 343.018C341.29 343.277 341.31 343.614 341.163 343.892C341.017 344.169 340.728 344.345 340.413 344.345ZM214.743 342.648H338.805L326.688 324.966H226.859L214.743 342.648Z" fill="#29275F"/>
<path d="M147.199 299.502H123.726C123.426 299.502 123.146 299.342 122.995 299.083C122.843 298.824 122.84 298.501 122.988 298.239L129.01 287.518C129.161 287.251 129.443 287.085 129.75 287.085H152.301C152.591 287.085 152.862 287.235 153.018 287.481C153.173 287.728 153.191 288.035 153.066 288.299L147.964 299.019C147.824 299.314 147.527 299.502 147.199 299.502ZM125.176 297.806H146.664L150.958 288.782H130.246L125.176 297.806Z" fill="#29275F"/>
<path d="M187.725 299.502H164.253C163.969 299.502 163.705 299.361 163.547 299.126C163.39 298.89 163.36 298.592 163.468 298.331L167.901 287.61C168.032 287.292 168.342 287.085 168.685 287.085H191.237C191.508 287.085 191.764 287.215 191.923 287.436C192.083 287.656 192.127 287.939 192.042 288.198L188.529 298.919C188.417 299.267 188.093 299.502 187.725 299.502ZM165.522 297.806H187.111L190.067 288.782H169.254L165.522 297.806Z" fill="#29275F"/>
<path d="M228.251 299.502H204.779C204.516 299.502 204.267 299.38 204.107 299.171C203.947 298.962 203.891 298.69 203.959 298.437L206.803 287.715C206.902 287.343 207.239 287.084 207.623 287.084H230.175C230.426 287.084 230.665 287.196 230.825 287.388C230.987 287.582 231.054 287.836 231.01 288.083L229.086 298.803C229.014 299.209 228.663 299.502 228.251 299.502ZM205.883 297.806H227.542L229.162 288.782H208.277L205.883 297.806Z" fill="#29275F"/>
<path d="M268.778 299.502H245.306C245.064 299.502 244.833 299.398 244.671 299.217C244.511 299.038 244.434 298.796 244.462 298.555L245.717 287.834C245.767 287.407 246.13 287.084 246.56 287.084H269.112C269.341 287.084 269.562 287.177 269.721 287.342C269.881 287.507 269.967 287.729 269.96 287.958L269.625 298.679C269.613 299.139 269.237 299.502 268.778 299.502ZM246.259 297.806H267.957L268.239 288.782H247.317L246.259 297.806Z" fill="#29275F"/>
<path d="M309.304 299.502H285.832C285.374 299.502 284.998 299.138 284.984 298.68L284.649 287.96C284.642 287.73 284.728 287.507 284.889 287.342C285.048 287.177 285.267 287.084 285.497 287.084H308.049C308.48 287.084 308.842 287.407 308.891 287.834L310.146 298.556C310.173 298.797 310.097 299.038 309.936 299.219C309.777 299.398 309.546 299.502 309.304 299.502ZM286.654 297.806H308.352L307.296 288.782H286.372L286.654 297.806Z" fill="#29275F"/>
<path d="M349.831 299.502H326.358C325.948 299.502 325.595 299.207 325.524 298.803L323.6 288.083C323.556 287.835 323.623 287.582 323.784 287.388C323.946 287.196 324.185 287.084 324.435 287.084H346.986C347.371 287.084 347.708 287.343 347.806 287.715L350.651 298.437C350.717 298.693 350.664 298.964 350.504 299.171C350.343 299.38 350.094 299.502 349.831 299.502ZM327.069 297.806H348.728L346.334 288.782H325.448L327.069 297.806Z" fill="#29275F"/>
<path d="M390.358 299.502H366.886C366.519 299.502 366.194 299.266 366.08 298.918L362.567 288.197C362.483 287.939 362.527 287.657 362.687 287.435C362.847 287.215 363.102 287.084 363.373 287.084H385.924C386.268 287.084 386.576 287.291 386.707 287.609L391.141 298.33C391.249 298.591 391.219 298.889 391.062 299.125C390.906 299.361 390.641 299.502 390.358 299.502ZM367.5 297.806H389.088L385.357 288.782H364.544L367.5 297.806Z" fill="#29275F"/>
<path d="M430.883 299.502H407.411C407.083 299.502 406.784 299.313 406.644 299.017L401.542 288.297C401.418 288.034 401.436 287.724 401.592 287.479C401.747 287.232 402.018 287.083 402.309 287.083H424.86C425.167 287.083 425.45 287.248 425.599 287.516L431.622 298.237C431.769 298.499 431.767 298.821 431.614 299.08C431.463 299.343 431.185 299.502 430.883 299.502ZM407.947 297.806H429.434L424.365 288.782H403.654L407.947 297.806Z" fill="#29275F"/>
<path d="M121.798 314.542H98.3257C98.0249 314.542 97.7455 314.381 97.594 314.122C97.4424 313.862 97.439 313.541 97.5872 313.279L103.61 302.558C103.76 302.291 104.043 302.125 104.349 302.125H126.901C127.192 302.125 127.462 302.274 127.618 302.521C127.773 302.767 127.791 303.075 127.667 303.339L122.565 314.06C122.423 314.353 122.125 314.542 121.798 314.542ZM99.7756 312.846H121.262L125.556 303.821H104.845L99.7756 312.846Z" fill="#29275F"/>
<path d="M162.324 314.542H138.853C138.569 314.542 138.306 314.401 138.148 314.165C137.99 313.93 137.961 313.631 138.068 313.37L142.501 302.649C142.632 302.331 142.942 302.124 143.284 302.124H165.836C166.108 302.124 166.363 302.254 166.523 302.473C166.682 302.694 166.726 302.977 166.641 303.236L163.129 313.956C163.017 314.307 162.691 314.542 162.324 314.542ZM140.121 312.845H161.709L164.666 303.821H143.852L140.121 312.845Z" fill="#29275F"/>
<path d="M202.851 314.542H179.379C179.115 314.542 178.866 314.42 178.707 314.211C178.546 314.001 178.492 313.73 178.559 313.477L181.403 302.756C181.501 302.384 181.838 302.125 182.223 302.125H204.774C205.025 302.125 205.263 302.237 205.424 302.428C205.586 302.622 205.652 302.875 205.608 303.123L203.684 313.843C203.613 314.248 203.261 314.542 202.851 314.542ZM180.482 312.846H202.142L203.761 303.821H182.877L180.482 312.846Z" fill="#29275F"/>
<path d="M243.377 314.542H219.905C219.663 314.542 219.432 314.438 219.271 314.257C219.11 314.077 219.033 313.835 219.061 313.595L220.316 302.875C220.365 302.447 220.728 302.125 221.158 302.125H243.709C243.938 302.125 244.158 302.218 244.318 302.382C244.478 302.548 244.564 302.77 244.557 302.999L244.223 313.721C244.211 314.179 243.836 314.542 243.377 314.542ZM220.859 312.846H242.555L242.837 303.821H221.915L220.859 312.846Z" fill="#29275F"/>
<path d="M283.902 314.542H260.431C259.973 314.542 259.598 314.178 259.583 313.72L259.249 302.998C259.243 302.768 259.329 302.547 259.488 302.381C259.647 302.217 259.867 302.124 260.098 302.124H282.648C283.079 302.124 283.44 302.446 283.491 302.874L284.745 313.594C284.772 313.835 284.696 314.076 284.536 314.257C284.375 314.438 284.145 314.542 283.902 314.542ZM261.253 312.845H282.95L281.894 303.821H260.972L261.253 312.845Z" fill="#29275F"/>
<path d="M324.43 314.542H300.959C300.548 314.542 300.196 314.247 300.124 313.843L298.2 303.123C298.156 302.875 298.224 302.622 298.385 302.428C298.546 302.236 298.784 302.125 299.035 302.125H321.587C321.971 302.125 322.308 302.384 322.407 302.756L325.25 313.478C325.318 313.732 325.263 314.004 325.103 314.212C324.941 314.42 324.692 314.542 324.43 314.542ZM301.667 312.846H323.326L320.933 303.821H300.047L301.667 312.846Z" fill="#29275F"/>
<path d="M364.955 314.542H341.485C341.119 314.542 340.793 314.306 340.679 313.957L337.165 303.237C337.081 302.978 337.125 302.695 337.284 302.474C337.444 302.255 337.699 302.125 337.97 302.125H360.522C360.866 302.125 361.174 302.332 361.306 302.65L365.738 313.371C365.847 313.633 365.816 313.931 365.659 314.167C365.504 314.401 365.238 314.542 364.955 314.542ZM342.099 312.846H363.687L359.956 303.821H339.142L342.099 312.846Z" fill="#29275F"/>
<path d="M405.482 314.542H382.01C381.684 314.542 381.385 314.353 381.244 314.058L376.141 303.336C376.016 303.074 376.034 302.765 376.19 302.519C376.345 302.272 376.617 302.123 376.907 302.123H399.459C399.766 302.123 400.048 302.288 400.199 302.556L406.22 313.277C406.367 313.539 406.364 313.861 406.212 314.12C406.062 314.383 405.784 314.542 405.482 314.542ZM382.547 312.846H404.033L398.964 303.822H378.251L382.547 312.846Z" fill="#29275F"/>
<path d="M445.17 314.542H421.699C421.372 314.542 421.073 314.353 420.932 314.058L415.829 303.336C415.704 303.074 415.723 302.765 415.879 302.519C416.034 302.272 416.305 302.123 416.596 302.123H439.146C439.453 302.123 439.736 302.288 439.886 302.556L445.908 313.277C446.055 313.539 446.053 313.861 445.901 314.12C445.75 314.383 445.472 314.542 445.17 314.542ZM422.235 312.846H443.721L438.652 303.822H417.939L422.235 312.846Z" fill="#29275F"/>
<path d="M373.416 44.1373V226.286C373.416 237.124 364.627 245.913 353.789 245.913H199.758C188.919 245.913 180.131 237.124 180.131 226.286V44.1373C180.131 33.2991 188.919 24.5103 199.758 24.5103H353.788C364.626 24.5103 373.416 33.2991 373.416 44.1373Z" fill="white"/>
<path d="M313.529 35.5451C313.529 38.2255 311.355 40.3992 308.674 40.3992C305.994 40.3992 303.82 38.2255 303.82 35.5451C303.82 32.8647 305.994 30.6909 308.674 30.6909C311.355 30.692 313.529 32.8647 313.529 35.5451Z" fill="#0091F0"/>
<path d="M334.858 35.5451C334.858 38.2255 332.684 40.3992 330.004 40.3992C327.323 40.3992 325.149 38.2255 325.149 35.5451C325.149 32.8647 327.323 30.6909 330.004 30.6909C332.684 30.692 334.858 32.8647 334.858 35.5451Z" fill="#A8DDFF"/>
<path d="M356.187 35.5451C356.187 38.2255 354.013 40.3992 351.333 40.3992C348.652 40.3992 346.479 38.2255 346.479 35.5451C346.479 32.8647 348.651 30.6909 351.333 30.6909C354.014 30.6909 356.187 32.8647 356.187 35.5451Z" fill="#29275F"/>
<path d="M353.788 246.762H199.759C188.468 246.762 179.283 237.576 179.283 226.286V44.1371C179.283 32.8477 188.469 23.6619 199.759 23.6619H353.789C365.078 23.6619 374.264 32.8477 374.264 44.1371V226.286C374.264 237.575 365.078 246.762 353.788 246.762ZM199.759 25.3583C189.403 25.3583 180.98 33.783 180.98 44.1371V226.286C180.98 236.64 189.404 245.066 199.759 245.066H353.789C364.143 245.066 372.568 236.641 372.568 226.286V44.1371C372.568 33.783 364.143 25.3583 353.789 25.3583H199.759Z" fill="#29275F"/>
<path d="M373.416 44.9855H180.131C179.662 44.9855 179.282 44.6055 179.282 44.1373C179.282 43.6691 179.662 43.2891 180.131 43.2891H373.416C373.884 43.2891 374.264 43.6691 374.264 44.1373C374.264 44.6055 373.884 44.9855 373.416 44.9855Z" fill="#29275F"/>
<path d="M246.761 68.8887L225.768 59.9992L204.776 68.8887V19.3857H246.761V68.8887Z" fill="#A8DDFF"/>
<path d="M243.219 80.5229H194.525V133.112H243.219V80.5229Z" fill="#0091F0"/>
<path d="M204.422 122V99.6847L211.107 92.9995H222.523V100.201H211.623V114.798H226.221V103.899H233.422V115.314L226.736 122H204.422Z" fill="white"/>
<path d="M233.422 92.9995H226.22V100.201H233.422V92.9995Z" fill="white"/>
<path d="M222.523 103.899H215.322V111.101H222.523V103.899Z" fill="white"/>
<path d="M359.022 80.5229H249.94V84.9915H359.022V80.5229Z" fill="#C7C7C7"/>
<path d="M359.022 92.4875H249.94V96.9561H359.022V92.4875Z" fill="#C7C7C7"/>
<path d="M359.022 104.451H249.94V108.919H359.022V104.451Z" fill="#C7C7C7"/>
<path d="M359.022 116.415H249.94V120.883H359.022V116.415Z" fill="#C7C7C7"/>
<path d="M312.982 128.379H249.94V132.848H312.982V128.379Z" fill="#C7C7C7"/>
<path d="M359.022 151.611H194.525V156.079H359.022V151.611Z" fill="#C7C7C7"/>
<path d="M359.022 163.574H194.525V168.043H359.022V163.574Z" fill="#C7C7C7"/>
<path d="M359.022 175.539H194.525V180.007H359.022V175.539Z" fill="#C7C7C7"/>
<path d="M359.022 187.502H194.525V191.971H359.022V187.502Z" fill="#C7C7C7"/>
<path d="M312.982 199.467H194.525V203.935H312.982V199.467Z" fill="#C7C7C7"/>
<path d="M358.349 58.616H282.612V71.1042H358.349V58.616Z" fill="#0091F0"/>
<path d="M281.461 234.539C281.336 234.539 281.211 234.512 281.095 234.456L263.767 226.191C263.344 225.99 263.164 225.483 263.366 225.06C263.567 224.638 264.075 224.459 264.496 224.66L281.461 232.75L298.425 224.66C298.851 224.455 299.354 224.637 299.556 225.06C299.759 225.483 299.579 225.99 299.157 226.191L281.827 234.456C281.711 234.512 281.586 234.539 281.461 234.539Z" fill="#29275F"/>
<path d="M125.003 92.758C127.136 92.758 128.864 91.0293 128.864 88.8968C128.864 86.7643 127.136 85.0356 125.003 85.0356C122.871 85.0356 121.142 86.7643 121.142 88.8968C121.142 91.0293 122.871 92.758 125.003 92.758Z" fill="#AFD4EF"/>
<path d="M143.655 92.758C141.523 92.758 139.794 91.0298 139.794 88.8968C139.794 86.7649 141.522 85.0356 143.655 85.0356C145.788 85.0356 147.516 86.7649 147.516 88.8968C147.516 91.0287 145.787 92.758 143.655 92.758Z" fill="#AFD4EF"/>
<path d="M125.003 111.41C127.136 111.41 128.864 109.681 128.864 107.549C128.864 105.416 127.136 103.688 125.003 103.688C122.871 103.688 121.142 105.416 121.142 107.549C121.142 109.681 122.871 111.41 125.003 111.41Z" fill="#AFD4EF"/>
<path d="M125.003 130.062C127.136 130.062 128.864 128.333 128.864 126.201C128.864 124.069 127.136 122.34 125.003 122.34C122.871 122.34 121.142 124.069 121.142 126.201C121.142 128.333 122.871 130.062 125.003 130.062Z" fill="#AFD4EF"/>
<path d="M125.003 148.714C127.136 148.714 128.864 146.986 128.864 144.853C128.864 142.721 127.136 140.992 125.003 140.992C122.871 140.992 121.142 142.721 121.142 144.853C121.142 146.986 122.871 148.714 125.003 148.714Z" fill="#AFD4EF"/>
<path d="M121.142 163.505C121.142 161.372 122.87 159.644 125.003 159.644C127.135 159.644 128.864 161.372 128.864 163.505C128.864 165.637 127.135 167.366 125.003 167.366C122.87 167.366 121.142 165.637 121.142 163.505Z" fill="#AFD4EF"/>
<path d="M143.655 111.41C141.523 111.41 139.794 109.682 139.794 107.549C139.794 105.416 141.522 103.688 143.655 103.688C145.788 103.688 147.516 105.416 147.516 107.549C147.516 109.681 145.787 111.41 143.655 111.41Z" fill="#AFD4EF"/>
<path d="M139.794 126.201C139.794 124.069 141.522 122.34 143.655 122.34C145.788 122.34 147.516 124.069 147.516 126.201C147.516 128.333 145.787 130.062 143.655 130.062C141.522 130.062 139.794 128.333 139.794 126.201Z" fill="#AFD4EF"/>
<path d="M139.794 144.853C139.794 142.721 141.522 140.992 143.655 140.992C145.788 140.992 147.516 142.72 147.516 144.853C147.516 146.986 145.787 148.714 143.655 148.714C141.522 148.714 139.794 146.985 139.794 144.853Z" fill="#AFD4EF"/>
<path d="M139.794 163.505C139.794 161.372 141.522 159.644 143.655 159.644C145.788 159.644 147.516 161.372 147.516 163.505C147.516 165.637 145.787 167.366 143.655 167.366C141.522 167.366 139.794 165.637 139.794 163.505Z" fill="#AFD4EF"/>
<path d="M125.003 186.017C127.136 186.017 128.864 184.289 128.864 182.156C128.864 180.024 127.136 178.295 125.003 178.295C122.871 178.295 121.142 180.024 121.142 182.156C121.142 184.289 122.871 186.017 125.003 186.017Z" fill="#AFD4EF"/>
<path d="M139.794 182.156C139.794 180.024 141.522 178.295 143.655 178.295C145.788 178.295 147.516 180.024 147.516 182.156C147.516 184.288 145.787 186.017 143.655 186.017C141.522 186.017 139.794 184.289 139.794 182.156Z" fill="#AFD4EF"/>
<path d="M410.532 92.9423C408.4 92.9423 406.67 91.213 406.67 89.0811C406.67 86.9492 408.4 85.22 410.532 85.22C412.663 85.22 414.393 86.9492 414.393 89.0811C414.393 91.213 412.665 92.9423 410.532 92.9423Z" fill="#AFD4EF"/>
<path d="M429.184 92.9423C427.052 92.9423 425.323 91.213 425.323 89.0811C425.323 86.9492 427.052 85.22 429.184 85.22C431.316 85.22 433.045 86.9492 433.045 89.0811C433.045 91.213 431.317 92.9423 429.184 92.9423Z" fill="#AFD4EF"/>
<path d="M410.532 111.595C412.664 111.595 414.393 109.866 414.393 107.733C414.393 105.601 412.664 103.872 410.532 103.872C408.399 103.872 406.67 105.601 406.67 107.733C406.67 109.866 408.399 111.595 410.532 111.595Z" fill="#AFD4EF"/>
<path d="M410.532 130.246C412.664 130.246 414.393 128.517 414.393 126.384C414.393 124.252 412.664 122.523 410.532 122.523C408.399 122.523 406.67 124.252 406.67 126.384C406.67 128.517 408.399 130.246 410.532 130.246Z" fill="#AFD4EF"/>
<path d="M410.532 148.898C412.664 148.898 414.393 147.169 414.393 145.036C414.393 142.904 412.664 141.175 410.532 141.175C408.399 141.175 406.67 142.904 406.67 145.036C406.67 147.169 408.399 148.898 410.532 148.898Z" fill="#AFD4EF"/>
<path d="M429.184 111.595C431.316 111.595 433.045 109.866 433.045 107.733C433.045 105.601 431.316 103.872 429.184 103.872C427.051 103.872 425.323 105.601 425.323 107.733C425.323 109.866 427.051 111.595 429.184 111.595Z" fill="#AFD4EF"/>
<path d="M429.184 130.246C431.316 130.246 433.045 128.517 433.045 126.384C433.045 124.252 431.316 122.523 429.184 122.523C427.051 122.523 425.323 124.252 425.323 126.384C425.323 128.517 427.051 130.246 429.184 130.246Z" fill="#AFD4EF"/>
<path d="M429.184 148.898C431.316 148.898 433.045 147.169 433.045 145.036C433.045 142.904 431.316 141.175 429.184 141.175C427.051 141.175 425.323 142.904 425.323 145.036C425.323 147.169 427.051 148.898 429.184 148.898Z" fill="#AFD4EF"/>
<path d="M391.271 92.2978C393.403 92.2978 395.132 90.5691 395.132 88.4366C395.132 86.3041 393.403 84.5754 391.271 84.5754C389.138 84.5754 387.41 86.3041 387.41 88.4366C387.41 90.5691 389.138 92.2978 391.271 92.2978Z" fill="#AFD4EF"/>
<path d="M391.271 110.951C393.404 110.951 395.132 109.222 395.132 107.09C395.132 104.957 393.404 103.229 391.271 103.229C389.139 103.229 387.41 104.957 387.41 107.09C387.41 109.222 389.139 110.951 391.271 110.951Z" fill="#AFD4EF"/>
<path d="M391.271 129.602C393.404 129.602 395.132 127.873 395.132 125.741C395.132 123.608 393.404 121.88 391.271 121.88C389.139 121.88 387.41 123.608 387.41 125.741C387.41 127.873 389.139 129.602 391.271 129.602Z" fill="#AFD4EF"/>
<path d="M387.41 144.393C387.41 142.261 389.139 140.532 391.271 140.532C393.403 140.532 395.132 142.261 395.132 144.393C395.132 146.526 393.403 148.254 391.271 148.254C389.139 148.254 387.41 146.526 387.41 144.393Z" fill="#AFD4EF"/>
<path d="M412.805 10.0371C412.805 11.2269 411.842 12.1893 410.654 12.1893H405.045V17.7978C405.045 18.9876 404.083 19.9501 402.894 19.9501C402.299 19.9501 401.763 19.7081 401.371 19.3213C400.984 18.93 400.742 18.3927 400.742 17.7978V12.1893H395.133C393.943 12.1893 392.981 11.2269 392.981 10.0371C392.981 9.44217 393.223 8.90608 393.61 8.51363C394.001 8.12684 394.538 7.88481 395.133 7.88481H400.742V2.27628C400.742 1.08649 401.704 0.124023 402.893 0.124023C403.488 0.124023 404.024 0.366053 404.416 0.752848C404.803 1.14417 405.045 1.68138 405.045 2.27628V7.88481H410.654C411.843 7.88594 412.805 8.8484 412.805 10.0371Z" fill="#AFD4EF"/>
<path d="M408.225 34.1948C404.488 34.1948 404.482 40.0035 408.225 40.0035C411.963 40.0047 411.969 34.1948 408.225 34.1948Z" fill="#AFD4EF"/>
<path d="M434.884 10.624C431.146 10.624 431.14 16.4327 434.884 16.4327C438.622 16.4327 438.627 10.624 434.884 10.624Z" fill="#CDD5DF"/>
<path d="M502.891 104.935C502.891 106.125 501.929 107.086 500.74 107.086H495.132V112.695C495.132 113.885 494.169 114.846 492.981 114.846C492.386 114.846 491.85 114.604 491.457 114.217C491.07 113.826 490.828 113.289 490.828 112.694V107.085H485.22C484.03 107.085 483.068 106.123 483.068 104.934C483.068 104.339 483.31 103.803 483.696 103.411C484.088 103.024 484.625 102.782 485.22 102.782H490.828V97.1733C490.828 95.9836 491.791 95.0222 492.98 95.0222C493.574 95.0222 494.111 95.2642 494.503 95.651C494.89 96.0424 495.132 96.5796 495.132 97.1745V102.783H500.74C501.929 102.784 502.891 103.747 502.891 104.935Z" fill="#AFD4EF"/>
<path d="M471.073 122.37C467.335 122.37 467.328 128.179 471.073 128.179C474.81 128.18 474.816 122.37 471.073 122.37Z" fill="#CDD5DF"/>
<path d="M474.224 79.8535C470.487 79.8535 470.481 85.6622 474.224 85.6622C477.962 85.6622 477.968 79.8535 474.224 79.8535Z" fill="#CDD5DF"/>
<path d="M157.428 35.5452C157.428 36.735 156.466 37.6975 155.277 37.6975H149.669V43.306C149.669 44.4958 148.706 45.4582 147.518 45.4582C146.923 45.4582 146.387 45.2162 145.994 44.8294C145.607 44.4381 145.365 43.9009 145.365 43.306V37.6975H139.757C138.567 37.6975 137.605 36.735 137.605 35.5452C137.605 34.9503 137.847 34.4142 138.233 34.0218C138.625 33.635 139.162 33.393 139.757 33.393H145.365V27.7844C145.365 26.5946 146.328 25.6333 147.518 25.6333C148.113 25.6333 148.649 25.8753 149.041 26.2621C149.428 26.6534 149.67 27.1907 149.67 27.7856V33.3941H155.278C156.466 33.3941 157.428 34.3565 157.428 35.5452Z" fill="#AFD4EF"/>
<path d="M122.388 28.3816C118.651 28.3816 118.645 34.1903 122.388 34.1903C126.126 34.1914 126.133 28.3816 122.388 28.3816Z" fill="#AFD4EF"/>
<path d="M163.085 8.03418C159.347 8.03418 159.34 13.8429 163.085 13.8429C166.822 13.8429 166.828 8.03418 163.085 8.03418Z" fill="#AFD4EF"/>
<path d="M69.0967 127.089C69.0967 128.279 68.1342 129.24 66.9455 129.24H61.337V134.848C61.337 136.038 60.3746 137 59.1848 137C58.5899 137 58.0538 136.758 57.6613 136.371C57.2745 135.979 57.0325 135.442 57.0325 134.847V129.239H51.424C50.2342 129.239 49.2717 128.276 49.2717 127.088C49.2717 126.493 49.5138 125.957 49.9006 125.564C50.2919 125.177 50.8291 124.935 51.424 124.935H57.0325V119.327C57.0325 118.137 57.995 117.176 59.1848 117.176C59.7797 117.176 60.3157 117.418 60.7082 117.805C61.095 118.196 61.337 118.733 61.337 119.328V124.937H66.9455C68.1353 124.937 69.0967 125.899 69.0967 127.089Z" fill="#AFD4EF"/>
<path d="M33.2469 120.431C29.509 120.431 29.5022 126.24 33.2469 126.24C36.9848 126.24 36.9904 120.431 33.2469 120.431Z" fill="#AFD4EF"/>
</svg>
