<svg width="256" height="41" viewBox="0 0 256 41" fill="none" xmlns="http://www.w3.org/2000/svg">
<g clip-path="url(#clip0_131_272)">
<path d="M45.5869 17.2521C45.6279 20.9821 44.8469 24.5471 43.3099 27.9531C41.1169 32.8031 35.8599 36.7681 31.0579 32.5471C27.1419 29.1071 26.4159 22.1221 20.5489 21.1001C12.7869 20.1601 12.5989 29.1481 7.5289 30.1641C1.8769 31.3101 0.00189711 21.8181 0.0848971 17.5071C0.167897 13.1971 1.3159 7.13709 6.2279 7.13709C11.8799 7.13709 12.2609 15.6841 19.4349 15.2211C26.5399 14.7371 26.6649 5.84609 31.3069 2.03909C35.3129 -1.24891 40.0239 1.16209 42.3829 5.12109C44.5689 8.78209 45.5309 13.0791 45.5799 17.2511H45.5869V17.2521ZM66.9019 31.7521V2.90209H69.6419V15.3801H86.5369V2.90209H89.2349V31.7521H86.5369V17.7001H69.6419V31.7521H66.9019ZM96.3899 40.4981L100.125 31.2131L92.0309 11.8141H94.8529L100.167 24.9541C100.471 25.7561 100.9 26.8201 101.453 28.1461C101.536 27.9521 101.619 27.7381 101.702 27.5031C101.786 27.2681 101.868 27.0541 101.951 26.8611C102.118 26.5011 102.263 26.1631 102.387 25.8451C102.512 25.5281 102.63 25.2171 102.74 24.9131L107.721 11.8141H110.42L99.0869 40.4981H96.3899ZM113.158 40.4991V11.8151H115.731V15.4621C116.395 14.2191 117.357 13.2031 118.616 12.4161C119.875 11.6281 121.28 11.2351 122.829 11.2351C124.684 11.2351 126.296 11.6841 127.665 12.5821C129.035 13.4801 130.087 14.7231 130.82 16.3121C131.553 17.9021 131.92 19.7041 131.92 21.7221C131.92 23.7391 131.54 25.5901 130.779 27.1931C130.018 28.7961 128.945 30.0531 127.562 30.9651C126.178 31.8771 124.601 32.3331 122.829 32.3331C121.335 32.3331 119.958 31.9731 118.699 31.2551C117.44 30.5371 116.451 29.4871 115.731 28.1051V40.4991H113.158ZM122.456 30.2601C123.812 30.2601 125.009 29.9011 126.046 29.1831C127.084 28.4641 127.88 27.4631 128.433 26.1771C128.987 24.8921 129.263 23.4071 129.263 21.7211C129.263 20.0361 128.98 18.6411 128.413 17.3691C127.845 16.0981 127.05 15.1101 126.026 14.4051C125.002 13.7011 123.812 13.3481 122.456 13.3481C121.1 13.3481 119.944 13.6941 118.907 14.3851C117.869 15.0751 117.06 16.0561 116.478 17.3281C115.897 18.5981 115.607 20.0631 115.607 21.7211C115.607 23.3801 115.897 24.8921 116.478 26.1771C117.06 27.4621 117.862 28.4641 118.886 29.1831C119.91 29.9011 121.1 30.2601 122.456 30.2601ZM144.205 32.3331C142.323 32.3331 140.67 31.9181 139.245 31.0891C137.82 30.2601 136.713 29.0441 135.924 27.4421C135.135 25.8391 134.741 23.9181 134.741 21.6801C134.741 19.6901 135.149 17.9011 135.965 16.3121C136.782 14.7231 137.896 13.4801 139.307 12.5821C140.718 11.6831 142.296 11.2341 144.039 11.2341C145.92 11.2341 147.526 11.6631 148.855 12.5191C150.182 13.3761 151.192 14.5851 151.885 16.1461C152.577 17.7081 152.922 19.5241 152.922 21.5971V22.1361H137.315C137.315 23.8491 137.605 25.3141 138.186 26.5301C138.767 27.7461 139.584 28.6711 140.635 29.3071C141.687 29.9431 142.891 30.2601 144.247 30.2601C145.852 30.2601 147.186 29.8801 148.252 29.1201C149.318 28.3601 149.975 27.2201 150.224 25.7001H152.797C152.604 26.9721 152.155 28.1051 151.448 29.1001C150.743 30.0941 149.774 30.8821 148.543 31.4621C147.311 32.0421 145.866 32.3331 144.205 32.3331ZM150.182 20.1881C150.155 18.1151 149.601 16.4581 148.523 15.2141C147.443 13.9701 145.949 13.3481 144.039 13.3481C142.13 13.3481 140.656 13.9911 139.452 15.2761C138.248 16.5611 137.564 18.1981 137.398 20.1881H150.182ZM156.904 31.7531V11.8151H159.478V15.7941C160.019 14.4817 160.918 13.3472 162.071 12.5191C163.247 11.6631 164.625 11.2351 166.202 11.2351C166.589 11.2351 166.963 11.2621 167.323 11.3171V13.8041C166.853 13.7491 166.438 13.7221 166.077 13.7221C164.75 13.7221 163.586 14.0191 162.591 14.6121C161.595 15.2071 160.827 16.0561 160.287 17.1621C159.747 18.2671 159.478 19.5521 159.478 21.0171V31.7531H156.904ZM173.714 31.2001L173.597 31.7601H165.454L165.571 31.2001C167.82 30.9581 168.74 30.3151 169.101 28.6371L173.673 7.11709C174.158 4.91309 173.473 4.55409 171.148 5.03009L171.265 4.47009L176.239 2.78509H176.8L171.299 28.6301C170.94 30.3151 171.543 30.9511 173.707 31.1931L173.714 31.2001ZM182.89 31.2001L182.771 31.7601H174.629L174.747 31.2001C176.994 30.9581 177.916 30.3151 178.275 28.6371L181.041 15.5311C181.526 13.2861 180.883 12.9681 178.516 13.4451L178.635 12.8851L183.609 11.2001H184.169L180.475 28.6301C180.114 30.3151 180.717 30.9501 182.883 31.1931L182.89 31.2001ZM184.252 3.95309C185.339 3.95309 186.059 4.79509 185.94 5.87309C185.781 6.95809 184.82 7.75909 183.775 7.75909C182.654 7.75909 181.885 6.95809 182.051 5.87309C182.17 4.78809 183.139 3.95309 184.259 3.95309H184.252ZM196.911 37.5351L199.146 27.2281C197.741 30.2741 194.815 32.3541 191.722 32.3541C186.748 32.3541 184.416 27.6631 185.904 20.6511C186.948 15.5591 191.522 11.1931 196.938 11.1931C199.429 11.1931 201.47 12.3131 202.314 13.9561L204.203 11.1931H204.764L199.118 37.5211C198.716 39.3241 200.163 39.6831 201.609 39.9251L201.49 40.4851H192.144L192.262 39.9251C194.952 39.6831 196.516 39.3251 196.918 37.5211L196.911 37.5351ZM193.051 30.8751C195.618 30.8751 198.184 28.6711 199.387 26.0251L201.075 18.1291C201.519 15.2831 200.156 12.3191 196.26 12.3191C192.366 12.3191 189.322 15.6831 188.319 20.6091C187.031 26.6611 188.837 30.8691 193.051 30.8691V30.8751ZM232.6 31.2001L232.482 31.7601H224.339L224.457 31.2001C226.705 30.9581 227.626 30.3151 227.985 28.6371L230.752 15.5311C231.237 13.2861 230.593 12.9681 228.227 13.4451L228.344 12.8851L233.32 11.2001H233.879L230.185 28.6301C229.825 30.3151 230.427 30.9501 232.593 31.1931L232.6 31.2001ZM233.962 3.95309C235.048 3.95309 235.768 4.79509 235.65 5.87309C235.492 6.95809 234.53 7.75909 233.486 7.75909C232.364 7.75909 231.596 6.95809 231.762 5.87309C231.881 4.78809 232.849 3.95309 233.969 3.95309H233.962ZM221.042 28.5881L222.889 19.7871L224.709 11.2071H224.148L219.174 12.8921L219.056 13.4521C221.381 12.9681 222.065 13.2921 221.581 15.5381L219.215 26.7161C216.607 29.1611 214.76 30.6061 212.511 30.6061C209.744 30.6061 208.298 28.7191 208.983 25.4791L212.033 11.2131H211.474L206.457 12.8991L206.34 13.4591C208.706 12.9751 209.35 13.2991 208.906 15.5451L206.742 25.8041C205.897 29.6101 207.827 32.3741 211.397 32.3741C213.763 32.3741 215.846 31.0541 219.049 27.6211L218.896 28.3461V28.3811H218.89L218.171 31.7801H223.338L223.455 31.1721C221.291 30.9301 220.689 30.2881 221.048 28.6091L221.042 28.5891V28.5881ZM254.294 10.4541L255.914 2.78509H255.353L250.379 4.47109L250.261 5.03109C252.586 4.54709 253.27 4.91309 252.786 7.11709L251.382 13.6451C250.496 12.1601 248.573 11.2001 246.324 11.2001C240.865 11.2001 236.334 15.5241 235.173 21.0171C233.768 27.6691 236.058 32.3531 241.074 32.3531C244.2 32.3531 247.176 30.2331 248.539 27.1861L248.178 28.9341L247.576 31.7521L252.745 31.7111L252.862 31.1511C250.696 30.9101 250.095 30.2671 250.455 28.5881L254.287 10.4541H254.294ZM248.774 25.9841C247.57 28.6711 245.002 30.8751 242.394 30.8751C238.181 30.8751 236.376 26.6681 237.579 20.9751C238.701 15.6831 241.911 12.3191 245.646 12.3191C249.632 12.3191 250.96 15.4761 250.434 18.3501L250.247 19.2201L248.781 25.9841H248.774Z" fill="#697586"/>
</g>
<defs>
<clipPath id="clip0_131_272">
<rect width="256" height="40" fill="white" transform="translate(0 0.5)"/>
</clipPath>
</defs>
</svg>
