<svg width="183" height="47" viewBox="0 0 183 47" fill="none" xmlns="http://www.w3.org/2000/svg">
<g clip-path="url(#clip0_131_232)">
<path d="M108.639 41.8978C107.33 41.8978 106.406 41.7048 105.444 41.3598C104.597 41.0528 103.596 40.3618 103.596 38.9398C103.596 37.5198 104.712 36.5598 105.906 36.5598C106.368 36.5598 106.637 36.6368 106.868 36.7138C107.369 36.8668 107.677 36.9438 108.1 36.9438C109.14 36.9438 109.64 36.7518 110.179 35.7148L110.372 35.2548L103.326 18.9718C103.172 18.5878 103.018 18.0118 103.018 17.6278C103.018 15.9768 104.288 14.8248 105.906 14.8248C107.369 14.8248 108.216 15.6308 108.716 17.0128L113.182 28.9948L117.495 17.0518C117.956 15.8228 118.804 14.8248 120.305 14.8248C121.807 14.8248 123.077 15.9768 123.077 17.5128C123.077 17.9728 122.923 18.6258 122.808 18.8948L115.608 36.1378C113.875 40.3228 112.143 41.8978 108.639 41.8978ZM171.967 36.0978C168.117 36.0978 165.229 34.9078 163.035 33.0268C162.496 32.5668 162.034 31.7598 162.034 30.9148C162.034 29.3788 163.343 28.0728 164.883 28.0728C165.73 28.0728 166.307 28.4188 166.769 28.8028C168.309 30.1078 169.926 30.7998 172.044 30.7998C174.277 30.7998 175.856 29.5318 175.856 27.5348V27.4578C175.856 25.2698 173.892 24.0408 170.581 24.0408H169.657C168.271 24.0408 167.116 22.8888 167.116 21.5058C167.116 20.6998 167.463 20.0088 168.387 19.0868L173.622 13.8268H165.345C163.959 13.8268 162.804 12.6738 162.804 11.2908C162.804 9.90878 163.959 8.75678 165.345 8.75678H178.474C180.206 8.75678 181.477 9.75478 181.477 11.3678C181.477 12.8278 180.784 13.6338 179.706 14.6708L174.431 19.7008C178.089 20.3158 181.67 22.2358 181.67 27.2278V27.3048C181.67 32.3748 177.974 36.0978 171.967 36.0978ZM147.997 32.9498V17.7428C147.997 17.1648 148.168 16.5998 148.49 16.1195C148.811 15.6393 149.269 15.2655 149.803 15.0458C150.52 14.7505 151.325 14.7509 152.041 15.047C152.758 15.343 153.328 15.9106 153.627 16.6258C153.774 16.9798 153.849 17.3598 153.849 17.7428V18.6648C154.696 16.6678 156.083 14.8248 157.815 14.8248C159.625 14.8248 160.664 16.0148 160.664 17.6658C160.664 19.2018 159.663 20.1238 158.47 20.3918C155.505 21.0838 153.849 23.3488 153.849 27.4968V32.9498C153.849 33.5277 153.678 34.0928 153.356 34.573C153.035 35.0533 152.578 35.427 152.043 35.6468C151.326 35.9437 150.52 35.9437 149.803 35.6468C149.087 35.3504 148.518 34.7822 148.22 34.0668C148.073 33.7127 147.997 33.3332 147.997 32.9498ZM130.599 23.7338H139.416C139.069 21.1218 137.529 19.3558 135.065 19.3558C132.639 19.3558 131.061 21.0838 130.599 23.7338ZM142.804 33.6028C140.994 35.1388 138.645 36.0988 135.643 36.0988C129.444 36.0988 124.862 31.7588 124.862 25.4618V25.3848C124.862 19.5098 129.059 14.6708 135.065 14.6708C141.957 14.6708 144.998 20.3158 144.998 24.5778C144.998 26.2678 143.805 27.3818 142.265 27.3818H130.676C131.253 30.0318 133.101 31.4138 135.719 31.4138C137.337 31.4138 138.684 30.9138 139.878 30.0308C140.301 29.7238 140.686 29.5708 141.302 29.5708C142.611 29.5708 143.574 30.5688 143.574 31.8748C143.576 32.201 143.509 32.524 143.376 32.822C143.243 33.12 143.048 33.3862 142.804 33.6028ZM93.8341 17.0398C94.4781 17.7128 94.9081 17.9238 95.0371 17.3348C95.2941 16.0298 96.1101 15.3988 97.4421 15.3988H97.5281C98.9461 15.3988 99.7621 16.1568 99.7621 17.5868V33.1968C99.7621 34.5848 98.9881 35.3418 97.5721 35.3418H97.4421C96.0681 35.3418 95.2941 34.8368 95.1661 33.8698C95.0361 33.0278 94.5211 32.9858 93.8771 33.6168C92.5451 34.9208 90.5701 35.9308 87.9501 35.9308C82.5801 35.9308 78.5861 31.5968 78.5861 25.7068C78.5861 19.4378 82.7091 14.8098 88.2501 14.8098C90.6561 14.8098 92.5451 15.7358 93.8341 17.0398ZM89.4101 31.2598C92.5771 30.8738 94.3501 28.1898 94.3501 25.3698C94.3501 22.5098 92.8461 19.5228 89.3671 19.5228C86.2911 19.5228 83.4671 20.8018 83.4671 25.3698C83.4671 29.9398 86.2431 31.6478 89.4101 31.2598ZM68.5271 33.1638V10.5068C68.5266 9.92878 68.6981 9.3637 69.0197 8.88343C69.3413 8.40317 69.7985 8.02943 70.3331 7.80978C71.0498 7.51339 71.8548 7.51327 72.5716 7.80945C73.2885 8.10562 73.8586 8.67392 74.1571 9.38978C74.3041 9.74378 74.3801 10.1228 74.3791 10.5068V33.1638C74.3791 34.7768 73.1511 35.9368 71.5331 35.9368C69.9161 35.9368 68.5271 34.7768 68.5271 33.1638Z" fill="#697586"/>
<path fill-rule="evenodd" clip-rule="evenodd" d="M24.8871 1.01302L30.6921 0.180017C40.3121 -1.19998 49.2311 5.46102 50.6131 15.056L52.1631 25.809C53.5451 35.404 46.8681 44.299 37.2481 45.679L31.4431 46.511C21.8231 47.89 12.9041 41.229 11.5231 31.635L9.97308 20.881C8.59008 11.286 15.2681 2.39102 24.8871 1.01102V1.01302ZM37.6811 14.22L36.5281 14.385C36.386 14.405 36.2493 14.4528 36.1258 14.5258C36.0022 14.5987 35.8943 14.6953 35.8082 14.8101C35.722 14.9248 35.6594 15.0554 35.6239 15.1944C35.5883 15.3334 35.5806 15.478 35.6011 15.62L36.2431 20.079C36.3291 20.675 36.8831 21.089 37.4811 21.003L38.6341 20.838C38.776 20.818 38.9127 20.7702 39.0361 20.6974C39.1596 20.6245 39.2675 20.528 39.3536 20.4133C39.4397 20.2987 39.5024 20.1682 39.538 20.0293C39.5736 19.8905 39.5814 19.7459 39.5611 19.604L38.9191 15.144C38.8773 14.8574 38.7234 14.5991 38.4913 14.4258C38.2592 14.2526 37.9677 14.1786 37.6811 14.22ZM23.5811 16.241L22.4281 16.406C22.2861 16.4261 22.1494 16.474 22.0259 16.547C21.9025 16.62 21.7946 16.7166 21.7085 16.8313C21.6224 16.946 21.5598 17.0766 21.5242 17.2155C21.4886 17.3544 21.4807 17.499 21.5011 17.641L22.1441 22.1C22.2301 22.696 22.7841 23.11 23.3821 23.024L24.5351 22.859C24.677 22.8388 24.8135 22.7908 24.9369 22.7178C25.0603 22.6447 25.168 22.5481 25.254 22.4334C25.34 22.3187 25.4026 22.1882 25.4381 22.0493C25.4736 21.9104 25.4814 21.7659 25.4611 21.624L24.8191 17.165C24.7773 16.8784 24.6234 16.6201 24.3913 16.4468C24.1592 16.2736 23.8677 16.1996 23.5811 16.241ZM24.8161 0.518017L25.7431 0.385017C24.3811 0.257017 22.9831 0.285017 21.5691 0.488017L15.7641 1.32002C6.14408 2.70002 -0.532923 11.595 0.849077 21.19L2.40008 31.943C3.78208 41.538 12.7001 48.198 22.3201 46.819L24.1651 46.555C17.4281 44.713 12.0851 39.045 11.0281 31.707L9.47808 20.953C8.05708 11.084 14.9251 1.93602 24.8181 0.518017H24.8161Z" fill="#697586"/>
</g>
<defs>
<clipPath id="clip0_131_232">
<rect width="182" height="47" fill="white" transform="translate(0.5)"/>
</clipPath>
</defs>
</svg>
