<svg width="256" height="49" viewBox="0 0 256 49" fill="none" xmlns="http://www.w3.org/2000/svg">
<g clip-path="url(#clip0_131_185)">
<path d="M225.558 24.636C224.236 23.761 222.777 23.139 221.397 22.361C220.502 21.855 219.549 21.408 218.772 20.766C217.449 19.677 217.722 17.539 219.102 16.606C221.086 15.283 224.372 16.022 224.722 18.725C224.722 18.783 224.78 18.822 224.838 18.822H227.833C227.911 18.822 227.969 18.764 227.949 18.686C227.794 16.819 227.074 15.264 225.752 14.272C224.488 13.319 223.049 12.813 221.513 12.813C213.599 12.813 212.88 21.194 217.138 23.838C217.624 24.15 221.805 26.25 223.283 27.163C224.761 28.077 225.227 29.75 224.586 31.072C224.002 32.277 222.486 33.114 220.969 33.016C219.316 32.919 218.033 32.025 217.586 30.625C217.508 30.372 217.469 29.885 217.469 29.672C217.467 29.6416 217.454 29.6129 217.433 29.5914C217.411 29.5698 217.382 29.5569 217.352 29.555H214.105C214.047 29.555 213.988 29.613 213.988 29.672C213.988 32.025 214.572 33.327 216.166 34.513C217.663 35.641 219.297 36.108 220.988 36.108C225.422 36.108 227.716 33.6 228.183 30.994C228.591 28.447 227.833 26.152 225.558 24.636ZM84.5671 13.241H81.5531C81.5282 13.2415 81.504 13.2491 81.4832 13.263C81.4625 13.2768 81.4462 13.2962 81.4361 13.319L78.7721 22.108C78.7644 22.1328 78.7489 22.1546 78.7279 22.17C78.707 22.1854 78.6816 22.1938 78.6556 22.1938C78.6296 22.1938 78.6042 22.1854 78.5832 22.17C78.5623 22.1546 78.5468 22.1328 78.5391 22.108L75.8751 13.319C75.8551 13.261 75.8171 13.241 75.7591 13.241H70.8001C70.7699 13.2431 70.7414 13.2562 70.7201 13.2777C70.6987 13.2992 70.6859 13.3277 70.6841 13.358V35.797C70.6841 35.855 70.7421 35.913 70.8001 35.913H74.0481C74.0782 35.9109 74.1065 35.898 74.1278 35.8767C74.1491 35.8554 74.162 35.8271 74.1641 35.797V18.744C74.1641 18.608 74.3591 18.588 74.3971 18.705L77.0811 27.552L77.2751 28.174C77.2951 28.233 77.3341 28.252 77.3921 28.252H79.8811C79.9391 28.252 79.9781 28.213 79.9981 28.174L80.1921 27.552L82.8751 18.705C82.9151 18.569 83.1091 18.608 83.1091 18.744V35.797C83.1091 35.855 83.1671 35.913 83.2251 35.913H86.4731C86.5032 35.9109 86.5315 35.898 86.5528 35.8767C86.5741 35.8554 86.587 35.8271 86.5891 35.797V13.357C86.587 13.3268 86.5739 13.2983 86.5524 13.277C86.5309 13.2556 86.5023 13.2429 86.4721 13.241H84.5671ZM175.838 13.241C175.813 13.2416 175.789 13.2493 175.769 13.2631C175.748 13.2769 175.732 13.2963 175.722 13.319L173.058 22.108C173.051 22.1332 173.035 22.1554 173.014 22.1711C172.993 22.1869 172.967 22.1954 172.941 22.1954C172.915 22.1954 172.889 22.1869 172.868 22.1711C172.847 22.1554 172.832 22.1332 172.824 22.108L170.161 13.319C170.141 13.261 170.102 13.241 170.044 13.241H165.105C165.047 13.241 164.988 13.3 164.988 13.358V35.797C164.988 35.855 165.047 35.913 165.105 35.913H168.352C168.382 35.9111 168.411 35.8983 168.432 35.877C168.454 35.8557 168.467 35.8272 168.469 35.797V18.744C168.469 18.608 168.663 18.588 168.702 18.705L171.386 27.552L171.58 28.174C171.599 28.233 171.638 28.252 171.697 28.252H174.186C174.211 28.2514 174.235 28.2437 174.255 28.2299C174.276 28.2161 174.292 28.1967 174.302 28.174L174.497 27.552L177.18 18.705C177.219 18.569 177.413 18.608 177.413 18.744V35.797C177.413 35.855 177.472 35.913 177.53 35.913H180.777C180.807 35.9111 180.836 35.8983 180.857 35.877C180.879 35.8557 180.892 35.8272 180.894 35.797V13.357C180.892 13.3268 180.879 13.2983 180.857 13.277C180.836 13.2556 180.807 13.2429 180.777 13.241H175.838ZM133.954 13.241H118.613C118.583 13.2429 118.554 13.2558 118.532 13.2774C118.511 13.2989 118.498 13.3276 118.496 13.358V16.158C118.496 16.216 118.554 16.275 118.613 16.275H124.543V35.797C124.543 35.855 124.602 35.913 124.66 35.913H127.907C127.937 35.9111 127.966 35.8983 127.987 35.877C128.009 35.8557 128.022 35.8272 128.024 35.797V16.275H133.954C133.984 16.2731 134.013 16.2602 134.035 16.2386C134.056 16.2171 134.069 16.1884 134.071 16.158V13.358C134.071 13.299 134.032 13.241 133.954 13.241ZM153.107 35.914H156.063C156.14 35.914 156.199 35.836 156.179 35.758L150.074 13.241C150.054 13.183 150.015 13.164 149.957 13.164H145.718C145.693 13.1645 145.669 13.172 145.649 13.1856C145.628 13.1993 145.612 13.2185 145.602 13.241L139.496 35.758C139.477 35.836 139.535 35.914 139.613 35.914H142.568C142.627 35.914 142.665 35.874 142.685 35.836L144.454 29.283C144.474 29.225 144.513 29.205 144.571 29.205H151.104C151.129 29.2054 151.153 29.213 151.174 29.2268C151.195 29.2406 151.211 29.2601 151.221 29.283L152.99 35.836C153.01 35.875 153.068 35.914 153.107 35.914ZM145.349 25.997L147.721 17.227C147.728 17.2016 147.743 17.1792 147.764 17.1633C147.786 17.1473 147.811 17.1387 147.838 17.1387C147.864 17.1387 147.89 17.1473 147.911 17.1633C147.932 17.1792 147.947 17.2016 147.954 17.227L150.327 25.997C150.346 26.075 150.288 26.152 150.21 26.152H145.465C145.388 26.152 145.329 26.075 145.349 25.997ZM203.509 35.914H206.465C206.543 35.914 206.601 35.836 206.582 35.758L200.476 13.241C200.457 13.183 200.418 13.164 200.359 13.164H196.121C196.096 13.1643 196.072 13.1717 196.051 13.1854C196.031 13.199 196.014 13.2183 196.004 13.241L189.898 35.758C189.879 35.836 189.937 35.914 190.015 35.914H192.971C192.996 35.9134 193.02 35.9057 193.04 35.8919C193.061 35.8781 193.077 35.8587 193.087 35.836L194.857 29.283C194.876 29.225 194.915 29.205 194.973 29.205H201.507C201.532 29.2056 201.556 29.2133 201.576 29.2271C201.597 29.2409 201.613 29.2603 201.623 29.283L203.393 35.836C203.403 35.8587 203.419 35.8781 203.44 35.8919C203.46 35.9057 203.484 35.9134 203.509 35.914ZM195.751 25.997L198.123 17.227C198.131 17.2017 198.146 17.1796 198.167 17.1638C198.188 17.1481 198.214 17.1396 198.24 17.1396C198.266 17.1396 198.292 17.1481 198.313 17.1638C198.334 17.1796 198.35 17.2017 198.357 17.227L200.729 25.997C200.748 26.075 200.69 26.152 200.612 26.152H195.868C195.79 26.152 195.732 26.075 195.751 25.997ZM99.7731 32.589V25.627C99.7731 25.569 99.8321 25.511 99.8901 25.511H108.543C108.601 25.511 108.66 25.452 108.66 25.394V22.594C108.66 22.536 108.601 22.477 108.543 22.477H99.8901C99.8598 22.4751 99.8313 22.4623 99.8098 22.441C99.7882 22.4197 99.7752 22.3912 99.7731 22.361V16.411C99.7731 16.352 99.8321 16.294 99.8901 16.294H109.729C109.787 16.294 109.846 16.236 109.846 16.177V13.377C109.846 13.319 109.787 13.261 109.729 13.261H96.4101C96.3798 13.2629 96.3513 13.2756 96.3298 13.297C96.3082 13.3183 96.2952 13.3468 96.2931 13.377V35.797C96.2931 35.855 96.3511 35.914 96.4101 35.914H110.137C110.167 35.9121 110.196 35.8992 110.218 35.8776C110.239 35.8561 110.252 35.8274 110.254 35.797V32.84C110.252 32.8098 110.239 32.7813 110.217 32.76C110.196 32.7386 110.167 32.7259 110.137 32.724H99.8711C99.8121 32.704 99.7741 32.665 99.7741 32.588L99.7731 32.589ZM255.23 35.72L243.991 24.11C243.972 24.0885 243.962 24.061 243.962 24.0325C243.962 24.004 243.972 23.9765 243.991 23.955L254.102 13.455C254.119 13.4396 254.13 13.4195 254.135 13.3974C254.14 13.3753 254.138 13.3522 254.13 13.3312C254.121 13.3102 254.107 13.2922 254.088 13.2797C254.069 13.2672 254.047 13.2606 254.024 13.261H249.882C249.844 13.261 249.824 13.281 249.805 13.3L241.23 22.205C241.215 22.2214 241.194 22.2328 241.172 22.2376C241.15 22.2425 241.127 22.2406 241.106 22.2322C241.085 22.2238 241.067 22.2092 241.054 22.1905C241.042 22.1717 241.035 22.1496 241.035 22.127V13.377C241.035 13.319 240.977 13.261 240.919 13.261H237.671C237.613 13.261 237.555 13.319 237.555 13.377V35.817C237.555 35.875 237.613 35.933 237.671 35.933H240.919C240.977 35.933 241.035 35.875 241.035 35.816V25.938C241.035 25.841 241.171 25.783 241.23 25.861L250.952 35.894C250.971 35.914 251.01 35.933 251.03 35.933H255.171C255.249 35.913 255.307 35.778 255.23 35.72Z" fill="#4B5565"/>
<path d="M48.6199 1.16699L28.9009 15.752L32.5779 7.15399L48.6199 1.16699Z" fill="#ADADAD" stroke="#ADADAD" stroke-width="0.303" stroke-linecap="round" stroke-linejoin="round"/>
<path d="M3.15607 1.16699L22.6931 15.872L19.1971 7.16899L3.15607 1.16699ZM41.5241 34.973L36.2721 42.986L47.5121 46.077L50.7221 35.153L41.5241 34.973ZM1.07007 35.153L4.26607 46.077L15.4761 42.986L10.2531 34.973L1.07007 35.153Z" fill="#B0B0B0" stroke="#B0B0B0" stroke-width="0.303" stroke-linecap="round" stroke-linejoin="round"/>
<path d="M14.8749 21.4398L11.7539 26.1498L22.8579 26.6608L22.4979 14.7008L14.8749 21.4538V21.4388V21.4398ZM36.9029 21.4538L29.1599 14.5518L28.9049 26.6608L40.0089 26.1508L36.9029 21.4538ZM15.4749 42.9868L22.2119 39.7448L16.4209 35.2438L15.4749 42.9868ZM29.5799 39.7298L36.2719 42.9868L35.3719 35.2288L29.5799 39.7298Z" fill="#B0B0B0" stroke="#B0B0B0" stroke-width="0.303" stroke-linecap="round" stroke-linejoin="round"/>
<path d="M36.2699 42.9871L29.5769 39.7461L30.1169 44.0971L30.0569 45.9431L36.2699 42.9871ZM15.4729 42.9871L21.7149 45.9431L21.6699 44.0971L22.2099 39.7461L15.4729 42.9871Z" fill="#A3A3A3" stroke="#A3A3A3" stroke-width="0.303" stroke-linecap="round" stroke-linejoin="round"/>
<path d="M21.822 32.3471L16.27 30.7271L20.2 28.9271L21.837 32.3471H21.822ZM29.939 32.3471L31.589 28.9111L35.536 30.7111L29.939 32.3621V32.3471Z" fill="#4B5565" stroke="#4B5565" stroke-width="0.303" stroke-linecap="round" stroke-linejoin="round"/>
<path d="M15.4759 42.9859L16.4509 34.9729L10.2539 35.1529L15.4759 42.9859ZM35.3279 34.9729L36.2729 42.9859L41.5249 35.1539L35.3279 34.9729ZM40.0239 26.1499L28.9199 26.6599L29.9399 32.3629L31.5909 28.9109L35.5379 30.7119L40.0239 26.1499ZM16.2709 30.7269L20.2019 28.9269L21.8379 32.3469L22.8729 26.6459L11.7689 26.1499L16.2709 30.7269Z" fill="#999999" stroke="#999999" stroke-width="0.303" stroke-linecap="round" stroke-linejoin="round"/>
<path d="M11.77 26.1499L16.421 35.2279L16.271 30.7269L11.769 26.1499H11.77ZM35.538 30.7269L35.358 35.2279L40.009 26.1499L35.538 30.7269ZM22.873 26.6609L21.823 32.3619L23.143 39.0849L23.443 30.2169L22.873 26.6609ZM28.905 26.6609L28.365 30.2009L28.635 39.0849L29.941 32.3469L28.906 26.6459L28.905 26.6609Z" fill="#B0B0B0" stroke="#B0B0B0" stroke-width="0.303" stroke-linecap="round" stroke-linejoin="round"/>
<path d="M29.9389 32.3481L28.6329 39.0851L29.5779 39.7451L35.3549 35.2441L35.5349 30.7271L29.9389 32.3481ZM16.2689 30.7281L16.4189 35.2281L22.2109 39.7301L23.1409 39.0851L21.8359 32.3481L16.2539 30.7281H16.2689Z" fill="#C2C2C2" stroke="#C2C2C2" stroke-width="0.303" stroke-linecap="round" stroke-linejoin="round"/>
<path d="M30.0729 45.9418L30.1179 44.0968L29.6079 43.6768H22.1649L21.6699 44.0968L21.7149 45.9418L15.4729 42.9858L17.6629 44.7868L22.0899 47.8328H29.6679L34.1089 44.7718L36.2689 42.9858L30.0579 45.9418H30.0729Z" fill="#8C8C8C" stroke="#8C8C8C" stroke-width="0.303" stroke-linecap="round" stroke-linejoin="round"/>
<path d="M29.5801 39.73L28.6341 39.085H23.1421L22.2121 39.745L21.6721 44.097L22.1671 43.677H29.6101L30.1201 44.097L29.5801 39.745V39.73Z" fill="#4B5565" stroke="#4B5565" stroke-width="0.303" stroke-linecap="round" stroke-linejoin="round"/>
<path d="M49.4611 16.697L51.1111 8.66902L48.6211 1.16702L29.5641 15.27L36.9021 21.438L47.2551 24.454L49.5361 21.798L48.5461 21.078L50.1211 19.637L48.9211 18.707L50.4961 17.507L49.4461 16.696H49.4611V16.697ZM0.664062 8.65402L2.34406 16.697L1.26406 17.492L2.87006 18.692L1.67006 19.638L3.23006 21.078L2.24006 21.798L4.52006 24.455L14.8741 21.453L22.2121 15.256L3.15506 1.16602L0.665063 8.65502L0.664062 8.65402Z" fill="#424242" stroke="#424242" stroke-width="0.303" stroke-linecap="round" stroke-linejoin="round"/>
<path d="M47.2561 24.4548L36.9031 21.4538L40.0231 26.1498L35.3731 35.2278L41.5241 35.1528H50.7221L47.2561 24.4548ZM14.8761 21.4388L4.52107 24.4548L1.07007 35.1538H10.2681L16.4211 35.2278L11.7691 26.1498L14.8901 21.4388H14.8751H14.8761ZM28.9051 26.6608L29.5801 15.2568L32.5811 7.15381H19.1971L22.1971 15.2568L22.8731 26.6608L23.1281 30.2308V39.0848H28.6351L28.6651 30.2318L28.9051 26.6608Z" fill="#C2C2C2" stroke="#C2C2C2" stroke-width="0.303" stroke-linecap="round" stroke-linejoin="round"/>
</g>
<defs>
<clipPath id="clip0_131_185">
<rect width="255" height="48" fill="white" transform="translate(0.5 0.5)"/>
</clipPath>
</defs>
</svg>
