<svg width="96" height="95" viewBox="0 0 96 95" fill="none" xmlns="http://www.w3.org/2000/svg">
<path d="M0.908203 47.5863C0.908203 8.80611 9.21993 0.494385 48.0001 0.494385C86.7803 0.494385 95.0921 8.80611 95.0921 47.5863C95.0921 86.3665 86.7803 94.6782 48.0001 94.6782C9.21993 94.6782 0.908203 86.3665 0.908203 47.5863Z" fill="white"/>
<g clip-path="url(#clip0_27_817)">
<path opacity="0.4" d="M25.9688 30.9358C25.9688 27.8979 28.4387 25.428 31.4766 25.428H64.5234C67.5613 25.428 70.0312 27.8979 70.0312 30.9358V55.7209C70.0312 58.7589 67.5613 61.2288 64.5234 61.2288H52.587L41.9414 69.2151C41.5283 69.5249 40.9689 69.5765 40.4956 69.3442C40.0223 69.1118 39.7383 68.6385 39.7383 68.1135V61.2288H31.4766C28.4387 61.2288 25.9688 58.7589 25.9688 55.7209L25.9688 30.9358ZM36.9844 39.886C36.9844 41.0306 37.9052 41.9514 39.0498 41.9514H56.9502C58.0948 41.9514 59.0156 41.0306 59.0156 39.886C59.0156 38.7414 58.0948 37.8206 56.9502 37.8206H39.0498C37.9052 37.8206 36.9844 38.7414 36.9844 39.886ZM36.9844 48.1477C36.9844 49.2923 37.9052 50.2131 39.0498 50.2131H48.6885C49.8331 50.2131 50.7539 49.2923 50.7539 48.1477C50.7539 47.0031 49.8331 46.0823 48.6885 46.0823H39.0498C37.9052 46.0823 36.9844 47.0031 36.9844 48.1477Z" fill="#0091F0"/>
<path d="M36.9844 39.886C36.9844 38.7414 37.9052 37.8206 39.0498 37.8206H56.9502C58.0948 37.8206 59.0156 38.7414 59.0156 39.886C59.0156 41.0306 58.0948 41.9514 56.9502 41.9514H39.0498C37.9052 41.9514 36.9844 41.0306 36.9844 39.886ZM36.9844 48.1477C36.9844 47.0031 37.9052 46.0823 39.0498 46.0823H48.6885C49.8331 46.0823 50.7539 47.0031 50.7539 48.1477C50.7539 49.2923 49.8331 50.2131 48.6885 50.2131H39.0498C37.9052 50.2131 36.9844 49.2923 36.9844 48.1477Z" fill="#0091F0"/>
</g>
<defs>
<clipPath id="clip0_27_817">
<rect width="44.0625" height="44.0625" fill="white" transform="translate(25.9688 25.428)"/>
</clipPath>
</defs>
</svg>
