<svg width="211" height="49" viewBox="0 0 211 49" fill="none" xmlns="http://www.w3.org/2000/svg">
<g clip-path="url(#clip0_131_228)">
<path fill-rule="evenodd" clip-rule="evenodd" d="M24.6799 48.5C37.9339 48.5 48.6799 37.754 48.6799 24.5C48.6799 11.246 37.9369 0.5 24.6799 0.5C11.4259 0.5 0.679932 11.246 0.679932 24.5C0.679932 37.754 11.4259 48.5 24.6799 48.5ZM40.3489 27.12V28.667C40.3487 28.7099 40.336 28.7518 40.3124 28.7877C40.2887 28.8236 40.2553 28.8518 40.2159 28.869C39.7329 29.076 38.0779 29.836 37.3899 30.792C37.0069 31.325 36.6439 31.908 36.2799 32.493C34.9699 34.593 33.6399 36.73 31.2949 36.73H18.7849C14.3519 36.73 10.7599 33.125 10.7599 28.677V28.534C10.7599 28.415 10.8559 28.319 10.9739 28.319H17.9479C18.0849 28.319 18.1869 28.448 18.1739 28.583C18.1249 29.037 18.2089 29.5 18.4239 29.922C18.6267 30.332 18.9401 30.6772 19.3287 30.9185C19.7172 31.1599 20.1655 31.2879 20.6229 31.288H24.0749V28.593H20.6619C20.6222 28.5923 20.5833 28.5808 20.5495 28.5597C20.5158 28.5387 20.4884 28.5089 20.4702 28.4735C20.452 28.4381 20.4438 28.3984 20.4464 28.3587C20.449 28.319 20.4623 28.2807 20.4849 28.248C20.5049 28.216 20.5269 28.184 20.5499 28.15L20.6079 28.065C20.9309 27.607 21.3919 26.894 21.8509 26.083C22.1639 25.535 22.4669 24.951 22.7109 24.364C22.7569 24.267 22.7939 24.167 22.8299 24.07L22.8399 24.044L22.8919 23.9C22.9409 23.766 22.9879 23.635 23.0249 23.506C23.0649 23.386 23.0979 23.26 23.1309 23.139L23.1529 23.057C23.2676 22.5407 23.323 22.0129 23.3179 21.484C23.3179 21.27 23.3079 21.045 23.2879 20.831C23.2747 20.5958 23.2517 20.3613 23.2189 20.128C23.196 19.918 23.164 19.7092 23.1229 19.502C23.0729 19.189 23.0049 18.878 22.9259 18.565L22.8989 18.446L22.8479 18.256C22.8079 18.109 22.7699 17.963 22.7209 17.813C22.5259 17.139 22.3019 16.483 22.0649 15.87C21.9777 15.6296 21.8833 15.3918 21.7819 15.157C21.6669 14.88 21.5519 14.623 21.4419 14.377L21.4399 14.376L21.3529 14.181C21.2882 14.051 21.2255 13.92 21.1649 13.788C21.0994 13.6438 21.0314 13.5008 20.9609 13.359L20.9009 13.237C20.8689 13.176 20.8389 13.116 20.8149 13.057L20.3929 12.277C20.3339 12.171 20.4329 12.045 20.5489 12.077L23.1869 12.792H23.1949C23.1974 12.7922 23.1998 12.7928 23.2019 12.794C23.2029 12.7942 23.2039 12.7942 23.2049 12.794L23.5519 12.891L23.9339 12.999L24.0739 13.039V11.47C24.0739 10.713 24.6809 10.099 25.4309 10.099C25.8059 10.099 26.1459 10.251 26.3909 10.501C26.6339 10.75 26.7869 11.09 26.7869 11.47V13.797L27.0679 13.877C27.0908 13.8839 27.1124 13.8943 27.1319 13.908L27.2259 13.979L27.4259 14.13L27.5499 14.233C27.9274 14.5337 28.294 14.8479 28.6489 15.175C28.7379 15.252 28.8239 15.331 28.9029 15.41C29.3319 15.81 29.8129 16.278 30.2709 16.796C30.4488 16.9971 30.6222 17.2022 30.7909 17.411C30.8914 17.5301 30.9888 17.6518 31.0829 17.776L31.1229 17.828C31.2529 17.999 31.3859 18.176 31.5039 18.359L31.5979 18.499C31.8275 18.8378 32.0381 19.189 32.2289 19.551C32.2959 19.686 32.3649 19.833 32.4239 19.979C32.5989 20.371 32.7369 20.77 32.8259 21.17C32.8529 21.256 32.8729 21.35 32.8829 21.434V21.454C32.9129 21.572 32.9229 21.698 32.9319 21.826C32.9913 22.4167 32.9178 23.0133 32.7169 23.572L32.6969 23.628C32.52 24.14 32.2834 24.6294 31.9919 25.086C31.9217 25.2094 31.847 25.3301 31.7679 25.448L31.6409 25.628C31.5979 25.688 31.5549 25.748 31.5139 25.808C31.4051 25.9592 31.2907 26.1063 31.1709 26.249C31.0649 26.395 30.9569 26.54 30.8389 26.669C30.6729 26.863 30.5159 27.049 30.3499 27.226C30.2508 27.344 30.1464 27.4575 30.0369 27.566C29.9469 27.668 29.8539 27.76 29.7669 27.846L29.7239 27.889C29.587 28.0256 29.447 28.1589 29.3039 28.289L29.0339 28.538C28.9934 28.573 28.9415 28.5922 28.8879 28.592H26.7879V31.287H29.4309C30.0219 31.287 30.5849 31.077 31.0379 30.693L31.0499 30.683C31.6219 30.1827 32.1639 29.6492 32.6729 29.085C32.6999 29.0552 32.735 29.034 32.7739 29.024L40.0749 26.913C40.1069 26.9039 40.1406 26.9023 40.1734 26.9084C40.2061 26.9145 40.237 26.9281 40.2635 26.9482C40.2901 26.9683 40.3116 26.9942 40.3265 27.024C40.3413 27.0539 40.349 27.0867 40.3489 27.12ZM12.5199 25.307L12.6239 25.144L18.8669 15.377C18.8875 15.3443 18.9166 15.3178 18.951 15.3004C18.9855 15.2829 19.024 15.2752 19.0625 15.2779C19.1011 15.2807 19.1381 15.2939 19.1697 15.3161C19.2013 15.3383 19.2263 15.3687 19.2419 15.404C20.2849 17.742 21.1849 20.649 20.7629 22.459C20.5829 23.204 20.0899 24.212 19.5349 25.144C19.4632 25.2799 19.3851 25.4124 19.3009 25.541C19.2815 25.5701 19.2551 25.5938 19.2242 25.6102C19.1934 25.6266 19.1589 25.6351 19.1239 25.635H12.7029C12.6644 25.6357 12.6264 25.6259 12.593 25.6066C12.5595 25.5874 12.532 25.5595 12.5132 25.5258C12.4944 25.4921 12.4851 25.454 12.4863 25.4155C12.4875 25.3769 12.4991 25.3394 12.5199 25.307Z" fill="#697586"/>
<path d="M72.066 36.0192C69.896 36.0192 67.902 35.5322 66.083 34.5602C64.313 33.6132 62.8268 32.2123 61.777 30.5012C60.725 28.7472 60.199 26.7812 60.199 24.6042C60.199 22.4262 60.725 20.4712 61.777 18.7382C62.8267 17.0268 64.3128 15.6255 66.083 14.6782C67.903 13.7062 69.897 13.2202 72.066 13.2202C74.236 13.2202 76.219 13.7062 78.016 14.6792C79.836 15.6512 81.26 17.0042 82.29 18.7382C83.342 20.4712 83.868 22.4262 83.868 24.6042C83.868 26.7812 83.342 28.7472 82.29 30.5012C81.2583 32.2156 79.7813 33.6183 78.016 34.5602C76.219 35.5322 74.236 36.0192 72.066 36.0192ZM72.066 31.0722C73.907 31.0722 75.376 30.4802 76.471 29.2962C77.589 28.1132 78.148 26.5482 78.148 24.6042C78.148 22.6382 77.589 21.0742 76.471 19.9112C75.375 18.7272 73.907 18.1352 72.066 18.1352C70.203 18.1352 68.713 18.7162 67.596 19.8792C66.5 21.0422 65.952 22.6162 65.952 24.6042C65.952 26.5692 66.5 28.1442 67.596 29.3282C68.713 30.4912 70.203 31.0722 72.066 31.0722ZM92.617 20.6082C93.165 19.7842 93.921 19.1182 94.885 18.6112C95.85 18.1032 96.978 17.8502 98.271 17.8502C99.783 17.8502 101.153 18.2202 102.381 18.9602C103.607 19.7002 104.572 20.7562 105.273 22.1302C105.996 23.5042 106.358 25.1002 106.358 26.9182C106.358 28.7362 105.996 30.3432 105.273 31.7382C104.572 33.1122 103.607 34.1792 102.381 34.9412C101.153 35.6812 99.783 36.0512 98.271 36.0512C97.001 36.0512 95.871 35.7972 94.885 35.2892C93.921 34.7822 93.165 34.1272 92.617 33.3232V41.0602H86.997V18.1032H92.617V20.6082ZM100.638 26.9182C100.638 25.5652 100.244 24.5082 99.454 23.7482C98.688 22.9652 97.734 22.5742 96.594 22.5742C95.477 22.5742 94.524 22.9652 93.734 23.7472C92.968 24.5292 92.584 25.5972 92.584 26.9502C92.584 28.3032 92.968 29.3702 93.734 30.1532C94.524 30.9352 95.477 31.3262 96.594 31.3262C97.713 31.3262 98.666 30.9352 99.454 30.1522C100.244 29.3492 100.638 28.2722 100.638 26.9182ZM126.596 26.6652C126.596 27.1722 126.563 27.7002 126.498 28.2502H113.776C113.863 29.3502 114.225 30.1952 114.86 30.7872C115.518 31.3572 116.318 31.6432 117.26 31.6432C118.663 31.6432 119.638 31.0722 120.186 29.9302H126.169C125.862 31.0932 125.288 32.1684 124.492 33.0702C123.704 34.0002 122.706 34.7302 121.501 35.2582C120.296 35.7862 118.948 36.0502 117.458 36.0502C115.661 36.0502 114.061 35.6802 112.658 34.9402C111.279 34.2231 110.138 33.1221 109.371 31.7702C108.582 30.3962 108.188 28.7892 108.188 26.9502C108.188 25.1102 108.571 23.5042 109.338 22.1302C110.105 20.7784 111.246 19.6774 112.625 18.9602C114.028 18.2202 115.639 17.8502 117.458 17.8502C119.233 17.8502 120.811 18.2092 122.191 18.9282C123.541 19.6177 124.661 20.6864 125.413 22.0032C126.202 23.3352 126.596 24.8892 126.596 26.6652ZM120.844 25.2382C120.844 24.3082 120.515 23.5682 119.857 23.0182C119.2 22.4682 118.378 22.1942 117.392 22.1942C116.449 22.1942 115.65 22.4582 114.992 22.9862C114.356 23.5152 113.962 24.2662 113.809 25.2382H120.844ZM140.739 17.9132C142.887 17.9132 144.596 18.5892 145.867 19.9422C147.16 21.2742 147.807 23.1122 147.807 25.4592V35.7962H142.218V26.1902C142.218 25.0062 141.9 24.0862 141.265 23.4302C140.629 22.7762 139.775 22.4482 138.701 22.4482C137.627 22.4482 136.773 22.7762 136.137 23.4312C135.502 24.0862 135.184 25.0062 135.184 26.1902V35.7972H129.562V18.1032H135.184V20.4492C135.754 19.6672 136.521 19.0542 137.485 18.6102C138.449 18.1452 139.534 17.9132 140.739 17.9132ZM160.062 36.0192C158.375 36.0192 156.862 35.7542 155.525 35.2262C154.189 34.6972 153.115 33.9162 152.304 32.8792C151.515 31.8442 151.098 30.5972 151.055 29.1382H157.037C157.125 29.9622 157.421 30.5962 157.925 31.0402C158.429 31.4632 159.087 31.6742 159.898 31.6742C160.731 31.6742 161.388 31.4942 161.87 31.1362C162.352 30.7552 162.593 30.2372 162.593 29.5822C162.593 29.0322 162.396 28.5782 162.002 28.2182C161.629 27.8582 161.158 27.5632 160.588 27.3312C160.04 27.0982 159.251 26.8342 158.221 26.5382C156.731 26.0942 155.514 25.6502 154.572 25.2062C153.63 24.7622 152.819 24.1062 152.139 23.2402C151.46 22.3732 151.12 21.2432 151.12 19.8472C151.12 17.7762 151.899 16.1582 153.455 14.9962C155.01 13.8122 157.037 13.2202 159.536 13.2202C162.078 13.2202 164.127 13.8122 165.683 14.9962C167.239 16.1582 168.072 17.7862 168.182 19.8792H162.1C162.056 19.1602 161.782 18.6002 161.278 18.1992C160.774 17.7762 160.128 17.5642 159.339 17.5642C158.659 17.5642 158.112 17.7442 157.695 18.1042C157.279 18.4422 157.071 18.9382 157.071 19.5942C157.071 20.3122 157.421 20.8722 158.123 21.2742C158.824 21.6762 159.919 22.1092 161.41 22.5742C162.9 23.0602 164.105 23.5252 165.026 23.9692C165.975 24.4185 166.807 25.0807 167.458 25.9042C168.138 26.7492 168.477 27.8382 168.477 29.1702C168.477 30.4382 168.138 31.5902 167.458 32.6262C166.801 33.6622 165.837 34.4862 164.566 35.0992C163.295 35.7122 161.793 36.0192 160.062 36.0192ZM189.229 26.6652C189.229 27.1722 189.196 27.7002 189.13 28.2502H176.408C176.496 29.3502 176.858 30.1952 177.493 30.7872C178.151 31.3572 178.951 31.6432 179.893 31.6432C181.296 31.6432 182.271 31.0722 182.819 29.9302H188.802C188.495 31.0932 187.921 32.1684 187.125 33.0702C186.336 34.0002 185.339 34.7302 184.134 35.2582C182.928 35.7862 181.58 36.0502 180.091 36.0502C178.293 36.0502 176.694 35.6802 175.291 34.9402C173.912 34.2234 172.77 33.1223 172.004 31.7702C171.215 30.3962 170.82 28.7892 170.82 26.9502C170.82 25.1102 171.204 23.5042 171.971 22.1302C172.737 20.7782 173.879 19.6771 175.258 18.9602C176.66 18.2202 178.271 17.8502 180.091 17.8502C181.866 17.8502 183.443 18.2092 184.824 18.9282C186.174 19.6177 187.294 20.6864 188.046 22.0032C188.835 23.3352 189.229 24.8892 189.229 26.6652ZM183.476 25.2382C183.476 24.3082 183.148 23.5682 182.49 23.0182C181.832 22.4682 181.011 22.1942 180.025 22.1942C179.083 22.1942 178.282 22.4582 177.625 22.9862C176.989 23.5152 176.595 24.2662 176.442 25.2382H183.476ZM191.078 26.9182C191.078 25.1002 191.429 23.5042 192.13 22.1302C192.853 20.7562 193.829 19.7002 195.056 18.9602C196.283 18.2202 197.653 17.8502 199.165 17.8502C200.458 17.8502 201.587 18.1032 202.551 18.6102C203.537 19.1182 204.293 19.7842 204.819 20.6082V18.1032H210.44V35.7972H204.819V33.2922C204.271 34.1162 203.504 34.7822 202.518 35.2892C201.554 35.7972 200.425 36.0502 199.132 36.0502C197.642 36.0502 196.283 35.6802 195.056 34.9402C193.829 34.1802 192.853 33.1122 192.13 31.7382C191.429 30.3432 191.078 28.7362 191.078 26.9182ZM204.819 26.9502C204.819 25.5972 204.425 24.5302 203.636 23.7472C202.869 22.9652 201.926 22.5742 200.809 22.5742C199.691 22.5742 198.737 22.9652 197.949 23.7472C197.182 24.5082 196.798 25.5652 196.798 26.9182C196.798 28.2712 197.182 29.3492 197.949 30.1532C198.737 30.9352 199.691 31.3262 200.809 31.3262C201.926 31.3262 202.869 30.9352 203.636 30.1522C204.425 29.3702 204.819 28.3022 204.819 26.9502Z" fill="#697586"/>
</g>
<defs>
<clipPath id="clip0_131_228">
<rect width="210" height="48" fill="white" transform="translate(0.5 0.5)"/>
</clipPath>
</defs>
</svg>
