<svg width="180" height="49" viewBox="0 0 180 49" fill="none" xmlns="http://www.w3.org/2000/svg">
<g clip-path="url(#clip0_131_244)">
<path d="M83.5506 26.6251C77.8346 26.6251 72.1186 26.5365 69.9918 26.5365C69.9474 21.9726 69.9918 16.8769 69.9918 11.6926C73.315 11.604 80.9806 11.5597 83.8608 11.5597C91.1719 11.5597 94.3623 13.5537 94.3623 19.181C94.3623 24.6755 91.2605 26.6251 83.5506 26.6251ZM64.5859 7.39453C64.7189 11.9142 64.7632 16.9655 64.7632 24.0108C64.7632 31.1004 64.7189 35.8416 64.5859 40.6271H70.3019C70.1247 38.0128 70.0361 34.6009 69.9918 30.7016C76.9927 30.8346 79.8286 30.8346 84.614 30.8346C94.185 30.8346 99.5465 27.5556 99.5465 19.0924C99.5465 10.319 94.185 7.39453 84.7913 7.39453H64.5859Z" fill="#697586"/>
<path d="M132.338 30.2588C132.338 34.3797 128.217 37.7029 119.31 37.7029C112.708 37.7029 110.316 36.1077 110.316 33.0947C110.316 29.9487 113.24 28.4864 120.462 28.4864C124.761 28.4864 128.793 28.708 132.338 29.1068V30.2588ZM132.471 35.0443C132.426 36.4622 132.382 37.9245 132.382 39.1208C132.382 40.4058 132.692 40.6274 133.756 40.6274H137.921C137.478 39.1208 137.301 35.8419 137.301 32.6959C137.301 29.4612 137.433 26.9799 137.433 23.9668C137.433 17.8963 133.756 13.6426 121.925 13.6426C111.024 13.6426 106.549 17.2317 106.638 23.9668C107.302 23.8782 108.189 23.8782 109.075 23.8782C109.961 23.8782 110.759 23.8782 111.379 23.9225C111.246 19.5801 113.949 17.3203 121.88 17.3203C130.255 17.3203 132.426 19.9789 132.426 24.2327C132.426 24.9859 132.426 25.9164 132.382 26.8913C129.591 26.3595 125.204 26.0051 119.798 26.0051C109.739 26.0051 105.441 28.4421 105.441 33.6707C105.441 38.8993 109.385 41.2477 117.627 41.2477C125.381 41.2477 130.432 38.9436 132.205 35L132.471 35.0443Z" fill="#697586"/>
<path d="M173.378 14.2627C171.915 17.2315 168.105 23.5235 165.491 28.3533C163.497 32.031 162.167 34.5567 161.148 36.3734H160.838C159.952 34.5567 158.667 31.9424 156.806 28.5748C154.191 23.7007 149.495 16.4782 148.475 14.2627H142.316C146.57 20.7763 153.97 33.7591 157.205 38.7218C157.869 38.6775 158.711 38.6775 159.597 38.6775L159.464 38.9434C157.16 42.6211 155.033 43.6402 151.622 43.6402C148.52 43.6402 146.083 42.754 143.734 41.2918C143.557 42.2666 142.715 44.748 142.361 45.5899C144.975 46.9192 147.767 47.8054 151.223 47.8054C157.869 47.8054 160.572 45.324 164.959 38.5003C168.725 32.9172 175.638 20.1559 179.271 14.2627H173.378Z" fill="#697586"/>
<path d="M14.6089 27.8283C15.9884 27.8283 17.3343 27.3686 18.4222 26.5273L9.67408 17.7793C7.56557 20.5046 8.07027 24.4301 10.7956 26.5386C11.8948 27.3686 13.2295 27.8283 14.6089 27.8283Z" fill="#697586"/>
<path d="M40.6273 21.5839C40.6273 20.2044 40.1674 18.8584 39.3263 17.7705L30.5781 26.5187C33.3036 28.6272 37.2177 28.1226 39.3263 25.3971C40.1674 24.3092 40.6273 22.9634 40.6273 21.5839Z" fill="#697586"/>
<path d="M45.0368 12.0605L41.1676 15.9299C44.2854 19.6646 43.792 25.2275 40.0571 28.3455C36.7823 31.0821 32.0268 31.0821 28.7519 28.3455L24.5012 32.5961L20.2618 28.3567C16.527 31.4746 10.9641 30.9812 7.84618 27.2463C5.10958 23.9714 5.10958 19.216 7.84618 15.9411L5.86103 13.9559L3.97682 12.0605C1.70006 15.8065 0.5 20.1133 0.5 24.4986C0.5 37.7553 11.2445 48.4999 24.5012 48.4999C37.7581 48.4999 48.5025 37.7553 48.5025 24.4986C48.5137 20.1133 47.3024 15.8065 45.0368 12.0605Z" fill="#697586"/>
<path d="M41.8626 7.93429C32.722 -1.65498 17.5362 -2.01388 7.94687 7.12678C7.66649 7.39595 7.39732 7.66512 7.13936 7.93429C6.54494 8.56236 5.98416 9.21287 5.45703 9.89702L24.501 28.9522L43.5449 9.89702C43.0291 9.21287 42.4571 8.56236 41.8626 7.93429ZM24.501 3.63875C30.1088 3.63875 35.3353 5.80334 39.2606 9.75121L24.501 24.5108L9.74136 9.75121C13.6668 5.80334 18.8932 3.63875 24.501 3.63875Z" fill="#697586"/>
</g>
<defs>
<clipPath id="clip0_131_244">
<rect width="180" height="48" fill="white" transform="translate(0 0.5)"/>
</clipPath>
</defs>
</svg>
