<svg width="205" height="41" viewBox="0 0 205 41" fill="none" xmlns="http://www.w3.org/2000/svg">
<g clip-path="url(#clip0_131_203)">
<path d="M56.293 36.4369H61.8653V30.9569C61.8653 28.3847 61.6424 27.4154 60.3423 24.806L61.048 24.4331C62.9426 28.8694 65.6174 30.4722 68.3664 30.4722C72.7871 30.4722 76.3162 26.5953 76.3162 20.5935C76.3162 14.8526 73.0842 10.6401 68.4406 10.6401C65.6917 10.6401 62.9426 12.2058 61.048 16.6792L60.3423 16.3064C61.2339 14.517 61.8653 12.8395 61.8653 11.2365H56.293V36.4369ZM61.8653 20.5562C61.8653 18.0958 63.7228 15.3745 66.4717 15.3745C68.7006 15.3745 70.521 17.2011 70.521 20.5188C70.521 23.7994 68.7749 25.7379 66.4346 25.7379C63.8342 25.7379 61.8653 23.0912 61.8653 20.5562Z" fill="#697586"/>
<path d="M78.3501 29.8756H83.9224V23.3145C83.9224 18.692 85.5571 15.4115 88.6031 15.4115C90.5349 15.4115 91.1294 16.7163 91.1294 19.9595V29.8756H96.7017V19.0649C96.7017 13.1748 94.5842 10.6398 90.5349 10.6398C86.3742 10.6398 84.9998 13.4358 83.4024 16.8281L82.6965 16.4553C83.6624 14.3677 83.9224 13.1003 83.9224 11.2363V4.78711H78.3501V29.8756Z" fill="#697586"/>
<path d="M104.845 30.4722C108.449 30.4722 110.566 28.0865 112.164 25.0296L112.832 25.3651C112.127 26.819 111.458 28.4965 111.458 29.8758H116.919V19.736C116.919 13.6969 114.393 10.6401 108.486 10.6401C102.691 10.6401 99.8302 13.5478 99.273 16.6046L104.623 17.5366C104.808 15.9336 106.108 14.8526 108.189 14.8526C110.269 14.8526 111.458 15.8964 111.458 17.1638C111.458 18.4313 110.232 19.0278 106.963 19.0651C102.133 19.1396 98.5671 20.8917 98.5671 24.6196C98.5671 27.6763 100.982 30.4722 104.845 30.4722ZM104.102 24.2467C104.102 21.3017 108.783 23.3521 111.347 21.0781V21.749C111.347 24.3958 109.006 26.3344 106.666 26.3344C105.44 26.3344 104.102 25.8124 104.102 24.2467Z" fill="#697586"/>
<path d="M119.127 29.8758H124.699V23.3147C124.699 18.6922 126.334 15.4117 129.38 15.4117C131.312 15.4117 131.906 16.7165 131.906 19.9597V29.8758H137.478V19.0651C137.478 13.175 135.361 10.6401 131.312 10.6401C127.151 10.6401 125.777 13.436 124.179 16.8283L123.473 16.4555C124.439 14.3679 124.699 13.1005 124.699 11.2365H119.127V29.8758Z" fill="#697586"/>
<path d="M152.32 29.95V25.3273C151.132 25.7375 147.825 26.4457 147.825 23.7245V15.7095H152.283V11.2361H147.825V6.24072L142.216 7.91826V11.2361H138.872V15.7095H142.216L142.253 24.1718C142.253 30.3973 147.788 31.292 152.32 29.95Z" fill="#697586"/>
<path d="M163.639 30.4722C169.286 30.4722 173.595 26.148 173.595 20.5188C173.595 14.9271 169.286 10.6401 163.639 10.6401C157.993 10.6401 153.646 14.9271 153.646 20.5188C153.646 26.148 157.993 30.4722 163.639 30.4722ZM159.404 20.5562C159.404 17.4621 161.15 15.2999 163.639 15.2999C166.128 15.2999 167.837 17.4621 167.837 20.5562C167.837 23.6503 166.128 25.8124 163.639 25.8124C161.15 25.8124 159.404 23.6503 159.404 20.5562Z" fill="#697586"/>
<path d="M175.322 29.8758H180.893V23.3147C180.893 18.5058 182.417 15.4117 184.868 15.4117C186.467 15.4117 186.986 16.6792 186.986 19.9597V29.8758H192.559V23.3147C192.559 18.804 194.193 15.4117 196.534 15.4117C198.093 15.4117 198.65 16.8656 198.65 19.9597V29.8758H204.224V19.0651C204.224 13.1377 202.291 10.6401 198.502 10.6401C194.565 10.6401 193.154 13.436 191.779 16.8656L191.109 16.5301C192.411 12.6158 189.586 10.6401 186.8 10.6401C183.124 10.6401 181.786 13.436 180.3 16.8283L179.631 16.4555C180.559 14.3679 180.893 13.1005 180.893 11.2365H175.322V29.8758Z" fill="#697586"/>
<path d="M6.51582 40.5C12.6454 40.5 17.2519 35.1691 20.0008 30.9566C19.6665 31.8886 19.4808 32.8205 19.4808 33.7154C19.4808 36.1757 20.8924 37.9279 23.6786 37.9279C27.5049 37.9279 31.5913 34.5727 33.7088 30.9566C33.5602 31.4786 33.486 31.9632 33.486 32.4105C33.486 34.1254 34.4518 35.2064 36.4206 35.2064C42.6245 35.2064 48.8656 24.2093 48.8656 14.5913C48.8656 7.09832 45.0763 0.5 35.5663 0.5C18.8492 0.5 0.832031 20.9288 0.832031 34.1254C0.832031 39.3071 3.61819 40.5 6.51582 40.5ZM29.8081 13.7712C29.8081 11.9073 30.8483 10.6025 32.3715 10.6025C33.8574 10.6025 34.8976 11.9073 34.8976 13.7712C34.8976 15.6351 33.8574 16.9772 32.3715 16.9772C30.8483 16.9772 29.8081 15.6351 29.8081 13.7712ZM37.7581 13.7712C37.7581 11.9073 38.7983 10.6025 40.3213 10.6025C41.8072 10.6025 42.8474 11.9073 42.8474 13.7712C42.8474 15.6351 41.8072 16.9772 40.3213 16.9772C38.7983 16.9772 37.7581 15.6351 37.7581 13.7712Z" fill="#697586"/>
</g>
<defs>
<clipPath id="clip0_131_203">
<rect width="204" height="40" fill="white" transform="translate(0.5 0.5)"/>
</clipPath>
</defs>
</svg>
