<svg width="247" height="49" viewBox="0 0 247 49" fill="none" xmlns="http://www.w3.org/2000/svg">
<g clip-path="url(#clip0_131_179)">
<path d="M60.213 13.2641C57.898 13.2641 55.453 14.3991 53.925 16.1461H53.837V5.18606H49.602V37.0621H53.488V34.8351H53.575C55.06 36.5381 57.767 37.7171 60.125 37.7171C66.239 37.7171 70.169 32.9141 70.169 25.4911C70.169 18.2851 66.064 13.2641 60.213 13.2641ZM59.47 33.8741C56.282 33.8741 53.837 31.6911 53.837 28.8091V22.6091C53.837 19.5091 56.282 17.1501 59.47 17.1501C63.618 17.1501 65.933 20.1631 65.933 25.4901C65.933 30.8621 63.618 33.8741 59.47 33.8741ZM35.845 13.2621C29.557 13.2621 25.235 18.2831 25.235 25.4881C25.235 32.8681 29.426 37.7151 35.845 37.7151C42.177 37.7151 46.325 32.8681 46.325 25.4881C46.325 18.2831 42.046 13.2621 35.845 13.2621ZM35.845 33.8721C31.872 33.8721 29.426 30.6421 29.426 25.4881C29.426 20.3361 31.872 17.1481 35.846 17.1481C39.688 17.1481 42.133 20.4231 42.133 25.4881C42.133 30.5981 39.688 33.8721 35.845 33.8721ZM23.27 15.3581C23.27 9.94306 19.253 6.49306 12.965 6.49306H1V37.0601H5.367V24.9641H11.611C16.414 24.9641 18.161 26.8861 18.161 32.2131V37.0601H22.397V32.2131C22.397 27.3351 20.912 24.4361 17.677 23.2431C20.991 22.0831 23.27 19.3491 23.27 15.3581ZM12.615 21.0781H5.367V10.4671H12.572C16.72 10.4671 18.86 12.2571 18.86 15.7941C18.86 19.2001 16.676 21.0781 12.615 21.0781ZM93.266 13.2621C90.821 13.2621 88.201 14.4411 86.935 16.1441H86.847V13.9171H82.7V37.0601H86.936V22.5201C86.936 19.2441 89.076 17.1921 92.438 17.1921C95.756 17.1921 97.328 19.1131 97.328 23.1301V37.0601H101.608V21.9081C101.608 16.5801 98.376 13.2621 93.268 13.2621H93.266ZM162.35 13.2621C156.061 13.2621 151.738 18.2831 151.738 25.4881C151.738 32.8681 155.93 37.7151 162.35 37.7151C168.681 37.7151 172.83 32.8681 172.83 25.4881C172.83 18.2831 168.55 13.2621 162.35 13.2621ZM162.35 33.8721C158.376 33.8721 155.93 30.6421 155.93 25.4881C155.93 20.3361 158.376 17.1481 162.35 17.1481C166.192 17.1481 168.638 20.4231 168.638 25.4881C168.638 30.5981 166.192 33.8721 162.35 33.8721ZM191.781 5.18606V16.1461H191.694C190.165 14.3561 187.764 13.2641 185.449 13.2641C179.598 13.2641 175.449 18.3731 175.449 25.4911C175.449 32.9141 179.381 37.7171 185.493 37.7171C187.852 37.7171 190.559 36.5381 192.043 34.8351H192.13V37.0621H196.018V5.18606H191.781ZM191.781 28.8091C191.781 31.6911 189.335 33.8751 186.148 33.8751C181.999 33.8751 179.686 30.8621 179.686 25.4911C179.686 20.1631 181.999 17.1511 186.148 17.1511C189.335 17.1511 191.781 19.5081 191.781 22.6091V28.8091ZM138.638 13.2621C132.35 13.2621 128.027 18.2831 128.027 25.4881C128.027 32.8681 132.219 37.7151 138.638 37.7151C144.97 37.7151 149.118 32.8681 149.118 25.4881C149.118 18.2831 144.839 13.2621 138.638 13.2621ZM138.638 33.8721C134.665 33.8721 132.219 30.6421 132.219 25.4881C132.219 20.3361 134.665 17.1481 138.638 17.1481C142.481 17.1481 144.926 20.4231 144.926 25.4881C144.926 30.5981 142.481 33.8721 138.638 33.8721ZM78.073 5.18606H73.488V9.68306H78.073V5.18606ZM116.719 13.2641C114.142 13.2641 111.522 14.4871 110.3 16.2341H110.212V5.18506H105.977V37.0611H110.212V22.5211C110.212 19.3761 112.483 17.1931 115.715 17.1931C118.902 17.1931 120.736 19.2891 120.736 22.9131V37.0611H124.972V21.8661C124.972 16.5831 121.784 13.2641 116.719 13.2641ZM77.896 13.9161H73.66V37.0591H77.896V13.9161ZM225.216 38.1601L224.897 38.2651C222.845 38.9461 219.81 39.9981 217.085 41.2521C216.94 41.3221 216.844 41.5141 216.844 41.5141L216.661 41.9371L216.652 41.9591C216.345 42.6531 215.927 43.6971 215.744 44.1251L215.604 44.4611C215.593 44.487 215.591 44.5157 215.597 44.5431C215.603 44.5705 215.618 44.5953 215.639 44.6141C215.666 44.6401 215.695 44.6541 215.73 44.6541C215.751 44.6532 215.772 44.6485 215.791 44.6401L216.119 44.4831C216.867 44.1291 217.81 43.5931 218.797 43.1211L218.831 43.1031C220.713 42.2131 222.836 41.2031 224.114 40.5931C224.114 40.5931 224.32 40.4831 224.424 40.2781L225.381 38.3571C225.394 38.3327 225.399 38.3052 225.396 38.278C225.393 38.2507 225.382 38.225 225.364 38.2041C225.347 38.1827 225.323 38.1671 225.297 38.1592C225.27 38.1514 225.242 38.1517 225.216 38.1601ZM217.566 35.1821L218.462 33.4571L218.488 33.4091C222.665 25.5413 227.714 18.1689 233.541 11.4311L233.703 11.2431C233.726 11.2138 233.741 11.1784 233.744 11.1411C233.748 11.1039 233.741 11.0664 233.724 11.0331C233.705 11.0003 233.678 10.9737 233.644 10.9568C233.61 10.9399 233.572 10.9334 233.535 10.9381L233.291 10.9731C229.42 11.5097 225.577 12.2339 221.776 13.1431C221.396 13.2481 221.152 13.4971 221.1 13.5531C218.237 16.9811 215.553 20.5553 213.059 24.2611C212.941 24.4497 212.894 24.6739 212.925 24.8941C212.951 25.0901 213.549 29.6971 214.458 33.2341C212.205 39.7191 210.192 48.2641 210.192 48.2641C210.184 48.2912 210.182 48.32 210.186 48.3481C210.191 48.3762 210.202 48.4029 210.218 48.4261C210.235 48.4495 210.257 48.4684 210.283 48.4813C210.309 48.4942 210.337 48.5006 210.366 48.5001H211.649C211.688 48.5005 211.727 48.4891 211.76 48.4674C211.793 48.4456 211.819 48.4145 211.834 48.3781L211.921 48.1381C213.23 44.5661 214.724 41.0381 216.375 37.5961C216.759 36.8021 217.566 35.1821 217.566 35.1821Z" fill="#697586"/>
<path d="M235.42 12.8398L235.415 12.5948C235.414 12.5577 235.401 12.5218 235.379 12.4916C235.358 12.4614 235.328 12.4382 235.293 12.4248C235.258 12.4124 235.22 12.4107 235.183 12.4199C235.147 12.4292 235.114 12.449 235.089 12.4768L234.927 12.6608C228.135 20.5114 222.422 29.2347 217.941 38.5988L217.836 38.8168C217.819 38.8506 217.813 38.8889 217.818 38.9265C217.823 38.9641 217.84 38.9991 217.866 39.0268C217.892 39.0534 217.926 39.0718 217.962 39.0796C217.998 39.0874 218.036 39.0844 218.071 39.0708L218.295 38.9788C222.081 37.4095 225.951 36.0495 229.886 34.9048C230.002 34.871 230.109 34.8141 230.202 34.7374C230.294 34.6607 230.37 34.5659 230.425 34.4588C232.123 31.1488 236.067 24.7388 236.067 24.7388C236.166 24.5948 236.14 24.3808 236.14 24.3808C236.14 24.3808 235.463 16.7168 235.42 12.8398Z" fill="#697586"/>
<path d="M244.214 1.78208C243.249 0.944079 241.848 0.552079 239.674 0.503079C237.699 0.459079 235.354 0.887079 232.695 1.76108C232.298 1.90108 231.978 2.12308 231.696 2.39808C228.975 4.95291 226.367 7.62511 223.879 10.4071L223.687 10.6171C223.662 10.6461 223.647 10.682 223.642 10.72C223.638 10.758 223.646 10.7964 223.664 10.8301C223.704 10.9001 223.788 10.9351 223.867 10.9181L224.145 10.8561C228.116 10.0052 232.127 9.3567 236.163 8.91308C236.294 8.89831 236.427 8.91179 236.552 8.95262C236.677 8.99345 236.792 9.06067 236.89 9.14975C236.987 9.23884 237.064 9.34771 237.115 9.46904C237.167 9.59036 237.191 9.72132 237.188 9.85308C237.123 13.7911 237.266 17.7471 237.617 21.6111L237.638 21.8651C237.646 21.9441 237.699 22.0051 237.779 22.0271C237.791 22.0311 237.805 22.0311 237.822 22.0351C237.853 22.0347 237.882 22.0274 237.91 22.0137C237.937 22.0001 237.961 21.9803 237.979 21.9561L238.122 21.7511C240.368 18.5528 242.781 15.4746 245.35 12.5291C245.638 12.2011 245.713 11.9961 245.765 11.6991C246.567 6.55508 245.324 2.74808 244.214 1.78208Z" fill="#697586"/>
</g>
<defs>
<clipPath id="clip0_131_179">
<rect width="246" height="48" fill="white" transform="translate(0.5 0.5)"/>
</clipPath>
</defs>
</svg>
