<svg width="544" height="378" viewBox="0 0 544 378" fill="none" xmlns="http://www.w3.org/2000/svg">
<path d="M265.273 377.206C398.124 377.206 505.821 356.095 505.821 330.054C505.821 304.013 398.124 282.902 265.273 282.902C132.422 282.902 24.7246 304.013 24.7246 330.054C24.7246 356.095 132.422 377.206 265.273 377.206Z" fill="#CDD5DF"/>
<path d="M482.363 360.437H57.6852C52.9473 360.437 49.1067 356.596 49.1067 351.857V348.246H490.943V351.857C490.943 356.595 487.101 360.437 482.363 360.437Z" fill="#29275F"/>
<path d="M444.847 280.978H95.2014L49.1067 348.247H490.943L444.847 280.978Z" fill="white"/>
<path d="M438.829 59.198H101.221C97.9937 59.198 95.3782 61.8135 95.3782 65.0405V280.978H444.672V65.0405C444.672 61.8135 442.056 59.198 438.829 59.198Z" fill="#29275F"/>
<path d="M433.982 77.5801H106.068V263.774H433.982V77.5801Z" fill="#697586"/>
<path d="M482.365 361.281H57.6853C52.4891 361.281 48.2612 357.053 48.2612 351.857V348.247C48.2612 347.781 48.6395 347.403 49.1057 347.403H490.942C491.408 347.403 491.786 347.781 491.786 348.247V351.857C491.788 357.053 487.561 361.281 482.365 361.281ZM49.9513 349.092V351.857C49.9513 356.122 53.4214 359.592 57.6864 359.592H482.365C486.63 359.592 490.099 356.122 490.099 351.857V349.092H49.9513Z" fill="#29275F"/>
<path d="M490.943 349.092H49.1066C48.7936 349.092 48.5054 348.918 48.359 348.641C48.2126 348.364 48.2329 348.029 48.4097 347.771L94.5044 280.502C94.662 280.272 94.9221 280.135 95.2013 280.135H444.847C445.125 280.135 445.386 280.272 445.544 280.502L491.639 347.771C491.816 348.03 491.835 348.364 491.688 348.641C491.544 348.917 491.256 349.092 490.943 349.092ZM50.7089 347.403H489.341L444.402 281.823H95.6461L50.7089 347.403Z" fill="#29275F"/>
<path d="M444.672 281.822H95.3781C94.912 281.822 94.5337 281.444 94.5337 280.978V65.0405C94.5337 61.353 97.5332 58.3535 101.221 58.3535H438.829C442.517 58.3535 445.517 61.353 445.517 65.0405V280.978C445.516 281.444 445.138 281.822 444.672 281.822ZM96.2226 280.134H443.827V65.0405C443.827 62.2842 441.585 60.0424 438.828 60.0424H101.221C98.4643 60.0424 96.2226 62.2842 96.2226 65.0405V280.134Z" fill="#29275F"/>
<path d="M433.982 264.617H106.068C105.602 264.617 105.223 264.239 105.223 263.773V77.58C105.223 77.1139 105.602 76.7356 106.068 76.7356H433.982C434.448 76.7356 434.826 77.1139 434.826 77.58V263.773C434.826 264.239 434.448 264.617 433.982 264.617ZM106.912 262.928H433.138V78.4245H106.912V262.928Z" fill="#29275F"/>
<path d="M359.861 271.482H180.189V279.644H359.861V271.482Z" fill="white"/>
<path d="M254.792 68.1852C254.792 71.2252 252.327 73.6888 249.288 73.6888C246.248 73.6888 243.784 71.2252 243.784 68.1852C243.784 65.1452 246.248 62.6816 249.288 62.6816C252.327 62.6816 254.792 65.1452 254.792 68.1852Z" fill="#0091F0"/>
<path d="M333.381 343.652H206.668C206.355 343.652 206.067 343.479 205.92 343.202C205.774 342.925 205.794 342.59 205.971 342.332L219.191 323.04C219.348 322.81 219.608 322.673 219.888 322.673H320.162C320.44 322.673 320.702 322.81 320.859 323.04L334.078 342.332C334.254 342.59 334.274 342.925 334.127 343.202C333.982 343.478 333.695 343.652 333.381 343.652ZM208.271 341.964H331.78L319.717 324.361H220.333L208.271 341.964Z" fill="#29275F"/>
<path d="M141.028 299.01H117.661C117.361 299.01 117.083 298.85 116.932 298.592C116.781 298.334 116.778 298.013 116.925 297.752L122.921 287.079C123.071 286.814 123.352 286.648 123.657 286.648H146.107C146.397 286.648 146.666 286.797 146.821 287.042C146.976 287.288 146.994 287.594 146.87 287.856L141.791 298.529C141.651 298.823 141.355 299.01 141.028 299.01ZM119.104 297.321H140.496L144.771 288.337H124.152L119.104 297.321Z" fill="#29275F"/>
<path d="M181.374 299.01H158.006C157.724 299.01 157.461 298.869 157.304 298.635C157.147 298.401 157.118 298.104 157.225 297.844L161.639 287.171C161.769 286.855 162.078 286.648 162.419 286.648H184.87C185.14 286.648 185.395 286.778 185.553 286.998C185.712 287.217 185.756 287.499 185.672 287.756L182.175 298.429C182.063 298.776 181.74 299.01 181.374 299.01ZM159.27 297.321H180.763L183.706 288.337H162.985L159.27 297.321Z" fill="#29275F"/>
<path d="M221.72 299.01H198.352C198.09 299.01 197.842 298.888 197.683 298.68C197.523 298.472 197.468 298.202 197.536 297.949L200.367 287.275C200.465 286.905 200.801 286.647 201.184 286.647H223.635C223.885 286.647 224.122 286.759 224.282 286.95C224.443 287.143 224.51 287.396 224.466 287.641L222.551 298.314C222.478 298.718 222.129 299.01 221.72 299.01ZM199.451 297.321H221.014L222.626 288.337H201.834L199.451 297.321Z" fill="#29275F"/>
<path d="M262.065 299.01H238.697C238.457 299.01 238.227 298.906 238.066 298.726C237.906 298.547 237.829 298.306 237.858 298.066L239.107 287.394C239.157 286.968 239.518 286.647 239.946 286.647H262.397C262.626 286.647 262.845 286.74 263.004 286.904C263.163 287.068 263.249 287.289 263.242 287.518L262.908 298.19C262.896 298.649 262.522 299.01 262.065 299.01ZM239.647 297.321H261.248L261.528 288.337H240.699L239.647 297.321Z" fill="#29275F"/>
<path d="M302.411 299.01H279.043C278.587 299.01 278.214 298.647 278.199 298.191L277.866 287.519C277.859 287.29 277.944 287.068 278.104 286.904C278.263 286.74 278.482 286.647 278.71 286.647H301.161C301.59 286.647 301.951 286.968 302 287.394L303.249 298.068C303.276 298.307 303.2 298.547 303.04 298.727C302.882 298.906 302.652 299.01 302.411 299.01ZM279.862 297.321H301.463L300.411 288.337H279.582L279.862 297.321Z" fill="#29275F"/>
<path d="M342.756 299.01H319.389C318.98 299.01 318.629 298.716 318.558 298.314L316.643 287.641C316.599 287.395 316.665 287.143 316.826 286.95C316.987 286.759 317.225 286.647 317.474 286.647H339.925C340.308 286.647 340.643 286.905 340.741 287.275L343.573 297.949C343.639 298.204 343.586 298.474 343.426 298.68C343.266 298.888 343.019 299.01 342.756 299.01ZM320.096 297.321H341.659L339.275 288.337H318.482L320.096 297.321Z" fill="#29275F"/>
<path d="M383.103 299.01H359.736C359.371 299.01 359.047 298.775 358.933 298.428L355.436 287.755C355.352 287.498 355.396 287.217 355.555 286.996C355.715 286.778 355.968 286.647 356.238 286.647H378.688C379.031 286.647 379.338 286.853 379.469 287.17L383.882 297.842C383.991 298.102 383.96 298.4 383.804 298.634C383.648 298.869 383.385 299.01 383.103 299.01ZM360.347 297.321H381.839L378.124 288.337H357.404L360.347 297.321Z" fill="#29275F"/>
<path d="M423.448 299.01H400.08C399.754 299.01 399.456 298.822 399.317 298.527L394.238 287.854C394.114 287.593 394.132 287.285 394.287 287.04C394.442 286.795 394.712 286.646 395.001 286.646H417.451C417.757 286.646 418.039 286.811 418.187 287.077L424.183 297.75C424.329 298.011 424.327 298.332 424.175 298.59C424.025 298.851 423.748 299.01 423.448 299.01ZM400.614 297.321H422.006L416.959 288.337H396.34L400.614 297.321Z" fill="#29275F"/>
<path d="M115.741 313.983H92.3733C92.0738 313.983 91.7957 313.823 91.6448 313.565C91.494 313.306 91.4906 312.986 91.6381 312.725L97.6337 302.052C97.7834 301.786 98.0649 301.621 98.3701 301.621H120.821C121.111 301.621 121.38 301.769 121.535 302.015C121.689 302.26 121.707 302.567 121.583 302.829L116.504 313.503C116.364 313.794 116.066 313.983 115.741 313.983ZM93.8168 312.294H115.207L119.482 303.31H98.8632L93.8168 312.294Z" fill="#29275F"/>
<path d="M156.086 313.983H132.72C132.437 313.983 132.175 313.842 132.017 313.608C131.861 313.373 131.832 313.076 131.939 312.816L136.351 302.142C136.482 301.826 136.79 301.62 137.131 301.62H159.583C159.853 301.62 160.107 301.749 160.266 301.968C160.425 302.187 160.469 302.469 160.384 302.727L156.887 313.399C156.776 313.748 156.451 313.983 156.086 313.983ZM133.982 312.294H155.474L158.417 303.31H137.697L133.982 312.294Z" fill="#29275F"/>
<path d="M196.432 313.983H173.065C172.802 313.983 172.554 313.861 172.396 313.653C172.236 313.444 172.182 313.174 172.248 312.922L175.08 302.249C175.178 301.879 175.513 301.621 175.896 301.621H198.346C198.596 301.621 198.834 301.732 198.994 301.923C199.155 302.115 199.221 302.367 199.177 302.614L197.262 313.287C197.191 313.69 196.841 313.983 196.432 313.983ZM174.163 312.294H195.726L197.339 303.31H176.547L174.163 312.294Z" fill="#29275F"/>
<path d="M236.778 313.983H213.41C213.169 313.983 212.939 313.879 212.778 313.699C212.619 313.52 212.542 313.279 212.57 313.04L213.819 302.367C213.868 301.942 214.23 301.621 214.658 301.621H237.108C237.336 301.621 237.555 301.713 237.715 301.876C237.873 302.042 237.959 302.263 237.952 302.491L237.62 313.165C237.608 313.621 237.234 313.983 236.778 313.983ZM214.359 312.294H235.959L236.24 303.31H215.411L214.359 312.294Z" fill="#29275F"/>
<path d="M277.122 313.983H253.756C253.3 313.983 252.926 313.62 252.911 313.164L252.579 302.49C252.572 302.262 252.658 302.041 252.817 301.875C252.976 301.712 253.194 301.62 253.424 301.62H275.874C276.303 301.62 276.662 301.941 276.713 302.366L277.961 313.039C277.988 313.279 277.913 313.519 277.753 313.699C277.593 313.879 277.363 313.983 277.122 313.983ZM254.574 312.294H276.174L275.123 303.31H254.294L254.574 312.294Z" fill="#29275F"/>
<path d="M317.469 313.983H294.103C293.694 313.983 293.344 313.689 293.272 313.287L291.357 302.614C291.313 302.367 291.38 302.115 291.54 301.923C291.701 301.731 291.938 301.621 292.188 301.621H314.639C315.022 301.621 315.357 301.879 315.455 302.249L318.286 312.923C318.353 313.176 318.299 313.447 318.139 313.654C317.978 313.861 317.731 313.983 317.469 313.983ZM294.808 312.294H316.37L313.988 303.31H293.195L294.808 312.294Z" fill="#29275F"/>
<path d="M357.814 313.983H334.448C334.083 313.983 333.759 313.747 333.645 313.4L330.147 302.728C330.064 302.47 330.108 302.188 330.265 301.969C330.425 301.75 330.679 301.621 330.949 301.621H353.4C353.742 301.621 354.05 301.827 354.18 302.143L358.593 312.817C358.701 313.077 358.67 313.374 358.514 313.609C358.36 313.842 358.095 313.983 357.814 313.983ZM335.06 312.294H356.551L352.837 303.31H332.115L335.06 312.294Z" fill="#29275F"/>
<path d="M398.159 313.983H374.793C374.467 313.983 374.17 313.795 374.029 313.501L368.949 302.827C368.825 302.566 368.843 302.258 368.999 302.013C369.153 301.767 369.423 301.619 369.713 301.619H392.164C392.469 301.619 392.75 301.783 392.9 302.05L398.895 312.723C399.041 312.984 399.038 313.305 398.887 313.563C398.737 313.824 398.46 313.983 398.159 313.983ZM375.326 312.294H396.717L391.671 303.31H371.05L375.326 312.294Z" fill="#29275F"/>
<path d="M437.671 313.983H414.304C413.979 313.983 413.682 313.795 413.541 313.501L408.461 302.827C408.337 302.566 408.355 302.258 408.51 302.013C408.664 301.767 408.935 301.619 409.224 301.619H431.674C431.979 301.619 432.261 301.783 432.41 302.05L438.406 312.723C438.552 312.984 438.55 313.305 438.398 313.563C438.248 313.824 437.971 313.983 437.671 313.983ZM414.838 312.294H436.228L431.182 303.31H410.562L414.838 312.294Z" fill="#29275F"/>
<path d="M366.421 44.7836V226.12C366.421 236.91 357.671 245.66 346.882 245.66H193.537C182.747 245.66 173.998 236.91 173.998 226.12V44.7836C173.998 33.9938 182.747 25.2441 193.537 25.2441H346.88C357.67 25.2441 366.421 33.9938 366.421 44.7836Z" fill="white"/>
<path d="M283.09 166.996C274.814 158.72 261.397 158.72 253.121 166.996C244.845 175.271 244.845 188.688 253.121 196.964C260.193 204.036 271.02 205.063 279.185 200.048L299.673 220.536C301.603 222.466 304.732 222.466 306.662 220.536C308.591 218.606 308.591 215.477 306.662 213.547L286.173 193.059C291.189 184.895 290.162 174.068 283.09 166.996ZM280.247 194.121C273.541 200.827 262.669 200.827 255.964 194.121C249.258 187.416 249.258 176.544 255.964 169.838C262.669 163.133 273.541 163.133 280.247 169.838C286.952 176.544 286.952 187.416 280.247 194.121Z" fill="#545C80"/>
<path d="M201.262 193.825H196.658C195.336 193.825 194.264 192.753 194.264 191.431C194.264 190.109 195.336 189.037 196.658 189.037H201.262C202.584 189.037 203.656 190.109 203.656 191.431C203.656 192.753 202.584 193.825 201.262 193.825Z" fill="#565454"/>
<path d="M221.417 193.825H211.339C210.017 193.825 208.945 192.753 208.945 191.431C208.945 190.109 210.017 189.037 211.339 189.037H221.417C222.739 189.037 223.81 190.109 223.81 191.431C223.81 192.753 222.739 193.825 221.417 193.825Z" fill="#565454"/>
<path d="M236.097 193.825H231.494C230.172 193.825 229.1 192.753 229.1 191.431C229.1 190.109 230.172 189.037 231.494 189.037H236.097C237.419 189.037 238.491 190.109 238.491 191.431C238.491 192.753 237.419 193.825 236.097 193.825Z" fill="#565454"/>
<path d="M307.644 193.825H303.04C301.718 193.825 300.646 192.753 300.646 191.431C300.646 190.109 301.718 189.037 303.04 189.037H307.644C308.966 189.037 310.038 190.109 310.038 191.431C310.038 192.753 308.966 193.825 307.644 193.825Z" fill="#565454"/>
<path d="M342.83 193.825H334.034C332.712 193.825 331.64 192.753 331.64 191.431C331.64 190.109 332.712 189.037 334.034 189.037H342.83C344.152 189.037 345.224 190.109 345.224 191.431C345.224 192.753 344.152 193.825 342.83 193.825ZM325.237 193.825H316.44C315.118 193.825 314.046 192.753 314.046 191.431C314.046 190.109 315.118 189.037 316.44 189.037H325.237C326.559 189.037 327.631 190.109 327.631 191.431C327.631 192.753 326.559 193.825 325.237 193.825Z" fill="#565454"/>
<path d="M306.616 36.23C306.616 38.8984 304.452 41.0625 301.784 41.0625C299.115 41.0625 296.951 38.8984 296.951 36.23C296.951 33.5615 299.115 31.3975 301.784 31.3975C304.452 31.3986 306.616 33.5615 306.616 36.23Z" fill="#0091F0"/>
<path d="M327.85 36.23C327.85 38.8984 325.686 41.0625 323.018 41.0625C320.349 41.0625 318.185 38.8984 318.185 36.23C318.185 33.5615 320.349 31.3975 323.018 31.3975C325.686 31.3986 327.85 33.5615 327.85 36.23Z" fill="#A8DDFF"/>
<path d="M349.084 36.23C349.084 38.8984 346.92 41.0625 344.252 41.0625C341.583 41.0625 339.419 38.8984 339.419 36.23C339.419 33.5615 341.582 31.3975 344.252 31.3975C346.921 31.3975 349.084 33.5615 349.084 36.23Z" fill="#29275F"/>
<path d="M346.696 246.505H193.354C182.113 246.505 172.97 237.36 172.97 226.12V44.7836C172.97 33.5445 182.115 24.3997 193.354 24.3997H346.697C357.936 24.3997 367.081 33.5445 367.081 44.7836V226.12C367.081 237.359 357.936 246.505 346.696 246.505ZM193.354 26.0886C183.045 26.0886 174.659 34.4757 174.659 44.7836V226.12C174.659 236.428 183.046 244.816 193.354 244.816H346.697C357.005 244.816 365.392 236.429 365.392 226.12V44.7836C365.392 34.4757 357.005 26.0886 346.697 26.0886H193.354Z" fill="#29275F"/>
<path d="M366.237 45.6281H173.813C173.347 45.6281 172.969 45.2498 172.969 44.7837C172.969 44.3175 173.347 43.9392 173.813 43.9392H366.237C366.703 43.9392 367.081 44.3175 367.081 44.7837C367.081 45.2498 366.703 45.6281 366.237 45.6281Z" fill="#29275F"/>
<path d="M240.146 69.4248L219.247 60.5749L198.348 69.4248V20.1426H240.146V69.4248Z" fill="#A8DDFF"/>
<path d="M236.477 81H188V133.355H236.477V81Z" fill="#0091F0"/>
<path d="M198 122V99.6852L204.685 93H216.101V100.201H205.201V114.799H219.799V103.899H227V115.315L220.314 122H198Z" fill="white"/>
<path d="M227 93H219.798V100.201H227V93Z" fill="white"/>
<path d="M216.101 103.9H208.9V111.101H216.101V103.9Z" fill="white"/>
<path d="M351.907 81.0076H243.312V85.4561H351.907V81.0076Z" fill="#C7C7C7"/>
<path d="M351.907 92.9189H243.312V97.3675H351.907V92.9189Z" fill="#C7C7C7"/>
<path d="M351.907 104.829H243.312V109.278H351.907V104.829Z" fill="#C7C7C7"/>
<path d="M351.907 116.739H243.312V121.188H351.907V116.739Z" fill="#C7C7C7"/>
<path d="M306.073 128.65H243.312V133.099H306.073V128.65Z" fill="#C7C7C7"/>
<path d="M351.237 59.198H275.838V71.6306H351.237V59.198Z" fill="#0091F0"/>
<path d="M118.932 93.1879C121.055 93.1879 122.776 91.4669 122.776 89.3439C122.776 87.221 121.055 85.5 118.932 85.5C116.809 85.5 115.088 87.221 115.088 89.3439C115.088 91.4669 116.809 93.1879 118.932 93.1879Z" fill="#9AA4B2"/>
<path d="M137.501 93.1879C135.378 93.1879 133.657 91.4674 133.657 89.3439C133.657 87.2215 135.377 85.5 137.501 85.5C139.624 85.5 141.345 87.2215 141.345 89.3439C141.345 91.4663 139.623 93.1879 137.501 93.1879Z" fill="#9AA4B2"/>
<path d="M118.932 111.757C121.055 111.757 122.776 110.036 122.776 107.913C122.776 105.79 121.055 104.069 118.932 104.069C116.809 104.069 115.088 105.79 115.088 107.913C115.088 110.036 116.809 111.757 118.932 111.757Z" fill="#9AA4B2"/>
<path d="M118.932 130.326C121.055 130.326 122.776 128.605 122.776 126.482C122.776 124.359 121.055 122.638 118.932 122.638C116.809 122.638 115.088 124.359 115.088 126.482C115.088 128.605 116.809 130.326 118.932 130.326Z" fill="#9AA4B2"/>
<path d="M118.932 148.895C121.055 148.895 122.776 147.174 122.776 145.051C122.776 142.928 121.055 141.207 118.932 141.207C116.809 141.207 115.088 142.928 115.088 145.051C115.088 147.174 116.809 148.895 118.932 148.895Z" fill="#9AA4B2"/>
<path d="M115.088 163.62C115.088 161.496 116.808 159.776 118.932 159.776C121.054 159.776 122.776 161.496 122.776 163.62C122.776 165.742 121.054 167.464 118.932 167.464C116.808 167.464 115.088 165.742 115.088 163.62Z" fill="#9AA4B2"/>
<path d="M137.501 111.757C135.378 111.757 133.657 110.036 133.657 107.913C133.657 105.789 135.377 104.069 137.501 104.069C139.624 104.069 141.345 105.789 141.345 107.913C141.345 110.035 139.623 111.757 137.501 111.757Z" fill="#9AA4B2"/>
<path d="M133.657 126.482C133.657 124.359 135.377 122.638 137.501 122.638C139.624 122.638 141.345 124.359 141.345 126.482C141.345 128.604 139.623 130.326 137.501 130.326C135.377 130.326 133.657 128.604 133.657 126.482Z" fill="#9AA4B2"/>
<path d="M133.657 145.051C133.657 142.929 135.377 141.207 137.501 141.207C139.624 141.207 141.345 142.927 141.345 145.051C141.345 147.174 139.623 148.895 137.501 148.895C135.377 148.895 133.657 147.173 133.657 145.051Z" fill="#9AA4B2"/>
<path d="M133.657 163.62C133.657 161.496 135.377 159.776 137.501 159.776C139.624 159.776 141.345 161.496 141.345 163.62C141.345 165.742 139.623 167.464 137.501 167.464C135.377 167.464 133.657 165.742 133.657 163.62Z" fill="#9AA4B2"/>
<path d="M118.932 186.031C121.055 186.031 122.776 184.31 122.776 182.187C122.776 180.064 121.055 178.344 118.932 178.344C116.809 178.344 115.088 180.064 115.088 182.187C115.088 184.31 116.809 186.031 118.932 186.031Z" fill="#9AA4B2"/>
<path d="M133.657 182.187C133.657 180.065 135.377 178.344 137.501 178.344C139.624 178.344 141.345 180.065 141.345 182.187C141.345 184.31 139.623 186.031 137.501 186.031C135.377 186.031 133.657 184.311 133.657 182.187Z" fill="#9AA4B2"/>
<path d="M403.186 93.3712C401.064 93.3712 399.343 91.6497 399.343 89.5273C399.343 87.4049 401.064 85.6833 403.186 85.6833C405.309 85.6833 407.03 87.4049 407.03 89.5273C407.03 91.6497 405.31 93.3712 403.186 93.3712Z" fill="#9AA4B2"/>
<path d="M421.755 93.3712C419.633 93.3712 417.911 91.6497 417.911 89.5273C417.911 87.4049 419.633 85.6833 421.755 85.6833C423.878 85.6833 425.599 87.4049 425.599 89.5273C425.599 91.6497 423.879 93.3712 421.755 93.3712Z" fill="#9AA4B2"/>
<path d="M403.186 111.94C405.309 111.94 407.03 110.219 407.03 108.096C407.03 105.973 405.309 104.252 403.186 104.252C401.064 104.252 399.343 105.973 399.343 108.096C399.343 110.219 401.064 111.94 403.186 111.94Z" fill="#9AA4B2"/>
<path d="M403.186 130.508C405.309 130.508 407.03 128.787 407.03 126.664C407.03 124.541 405.309 122.82 403.186 122.82C401.064 122.82 399.343 124.541 399.343 126.664C399.343 128.787 401.064 130.508 403.186 130.508Z" fill="#9AA4B2"/>
<path d="M403.186 149.077C405.309 149.077 407.03 147.356 407.03 145.233C407.03 143.11 405.309 141.389 403.186 141.389C401.064 141.389 399.343 143.11 399.343 145.233C399.343 147.356 401.064 149.077 403.186 149.077Z" fill="#9AA4B2"/>
<path d="M421.755 111.94C423.878 111.94 425.599 110.219 425.599 108.096C425.599 105.973 423.878 104.252 421.755 104.252C419.632 104.252 417.911 105.973 417.911 108.096C417.911 110.219 419.632 111.94 421.755 111.94Z" fill="#9AA4B2"/>
<path d="M421.755 130.508C423.878 130.508 425.599 128.787 425.599 126.664C425.599 124.541 423.878 122.82 421.755 122.82C419.632 122.82 417.911 124.541 417.911 126.664C417.911 128.787 419.632 130.508 421.755 130.508Z" fill="#9AA4B2"/>
<path d="M421.755 149.077C423.878 149.077 425.599 147.356 425.599 145.233C425.599 143.11 423.878 141.389 421.755 141.389C419.632 141.389 417.911 143.11 417.911 145.233C417.911 147.356 419.632 149.077 421.755 149.077Z" fill="#9AA4B2"/>
<path d="M384.012 92.7294C386.135 92.7294 387.856 91.0084 387.856 88.8854C387.856 86.7625 386.135 85.0415 384.012 85.0415C381.889 85.0415 380.168 86.7625 380.168 88.8854C380.168 91.0084 381.889 92.7294 384.012 92.7294Z" fill="#9AA4B2"/>
<path d="M384.012 111.299C386.135 111.299 387.856 109.578 387.856 107.456C387.856 105.333 386.135 103.612 384.012 103.612C381.889 103.612 380.168 105.333 380.168 107.456C380.168 109.578 381.889 111.299 384.012 111.299Z" fill="#9AA4B2"/>
<path d="M384.012 129.867C386.135 129.867 387.856 128.146 387.856 126.023C387.856 123.9 386.135 122.179 384.012 122.179C381.889 122.179 380.168 123.9 380.168 126.023C380.168 128.146 381.889 129.867 384.012 129.867Z" fill="#9AA4B2"/>
<path d="M380.168 144.592C380.168 142.47 381.889 140.749 384.012 140.749C386.134 140.749 387.856 142.47 387.856 144.592C387.856 146.716 386.134 148.436 384.012 148.436C381.889 148.436 380.168 146.716 380.168 144.592Z" fill="#9AA4B2"/>
<path d="M405.45 10.8356C405.45 12.0201 404.491 12.9783 403.308 12.9783H397.724V18.5618C397.724 19.7463 396.766 20.7045 395.583 20.7045C394.991 20.7045 394.457 20.4635 394.066 20.0784C393.681 19.6889 393.44 19.154 393.44 18.5618V12.9783H387.857C386.672 12.9783 385.714 12.0201 385.714 10.8356C385.714 10.2434 385.955 9.70969 386.34 9.31899C386.73 8.93392 387.265 8.69297 387.857 8.69297H393.44V3.10945C393.44 1.92497 394.398 0.966797 395.582 0.966797C396.174 0.966797 396.708 1.20775 397.098 1.59282C397.484 1.98239 397.724 2.51721 397.724 3.10945V8.69297H403.308C404.492 8.6941 405.45 9.65227 405.45 10.8356Z" fill="#AFD4EF"/>
<path d="M400.891 34.8857C397.169 34.8857 397.164 40.6685 400.891 40.6685C404.612 40.6697 404.618 34.8857 400.891 34.8857Z" fill="#AFD4EF"/>
<path d="M427.43 11.4199C423.709 11.4199 423.703 17.2027 427.43 17.2027C431.151 17.2027 431.157 11.4199 427.43 11.4199Z" fill="#CDD5DF"/>
<path d="M495.135 105.311C495.135 106.495 494.176 107.452 492.993 107.452H487.41V113.036C487.41 114.22 486.451 115.177 485.268 115.177C484.676 115.177 484.142 114.936 483.751 114.551C483.366 114.162 483.125 113.627 483.125 113.035V107.451H477.542C476.357 107.451 475.399 106.493 475.399 105.31C475.399 104.717 475.64 104.184 476.025 103.793C476.415 103.408 476.95 103.167 477.542 103.167H483.125V97.5834C483.125 96.3989 484.083 95.4419 485.267 95.4419C485.859 95.4419 486.393 95.6828 486.783 96.0679C487.169 96.4575 487.41 96.9923 487.41 97.5845V103.168H492.993C494.176 103.169 495.135 104.127 495.135 105.311Z" fill="#AFD4EF"/>
<path d="M463.458 122.668C459.737 122.668 459.73 128.451 463.458 128.451C467.179 128.452 467.185 122.668 463.458 122.668Z" fill="#CDD5DF"/>
<path d="M466.596 80.3408C462.875 80.3408 462.869 86.1236 466.596 86.1236C470.317 86.1236 470.323 80.3408 466.596 80.3408Z" fill="#CDD5DF"/>
<path d="M151.212 36.23C151.212 37.4145 150.254 38.3727 149.071 38.3727H143.487V43.9562C143.487 45.1407 142.529 46.0988 141.346 46.0988C140.753 46.0988 140.22 45.8579 139.829 45.4728C139.444 45.0832 139.203 44.5484 139.203 43.9562V38.3727H133.619C132.435 38.3727 131.477 37.4145 131.477 36.23C131.477 35.6378 131.718 35.1041 132.103 34.7134C132.492 34.3283 133.027 34.0873 133.619 34.0873H139.203V28.5038C139.203 27.3193 140.161 26.3623 141.346 26.3623C141.938 26.3623 142.472 26.6033 142.862 26.9883C143.247 27.3779 143.488 27.9127 143.488 28.505V34.0885H149.072C150.254 34.0885 151.212 35.0466 151.212 36.23Z" fill="#AFD4EF"/>
<path d="M116.328 29.0981C112.607 29.0981 112.602 34.881 116.328 34.881C120.05 34.8821 120.056 29.0981 116.328 29.0981Z" fill="#AFD4EF"/>
<path d="M156.843 8.84155C153.122 8.84155 153.115 14.6244 156.843 14.6244C160.564 14.6244 160.57 8.84155 156.843 8.84155Z" fill="#AFD4EF"/>
<path d="M63.2744 127.366C63.2744 128.55 62.3162 129.507 61.1328 129.507H55.5493V135.091C55.5493 136.275 54.5912 137.232 53.4067 137.232C52.8144 137.232 52.2807 136.991 51.89 136.606C51.505 136.217 51.264 135.682 51.264 135.09V129.506H45.6805C44.496 129.506 43.5378 128.548 43.5378 127.365C43.5378 126.772 43.7788 126.239 44.1639 125.848C44.5534 125.463 45.0883 125.222 45.6805 125.222H51.264V119.638C51.264 118.454 52.2222 117.497 53.4067 117.497C53.9989 117.497 54.5326 117.738 54.9233 118.123C55.3084 118.512 55.5493 119.047 55.5493 119.639V125.223H61.1328C62.3173 125.223 63.2744 126.181 63.2744 127.366Z" fill="#AFD4EF"/>
<path d="M27.5845 120.737C23.8632 120.737 23.8565 126.52 27.5845 126.52C31.3057 126.52 31.3113 120.737 27.5845 120.737Z" fill="#AFD4EF"/>
<path d="M477.414 258.148C514.036 258.148 543.725 228.46 543.725 191.838C543.725 155.215 514.036 125.527 477.414 125.527C440.792 125.527 411.104 155.215 411.104 191.838C411.104 228.46 440.792 258.148 477.414 258.148Z" fill="#0091F0"/>
<path d="M477.414 251.37C510.293 251.37 536.946 224.716 536.946 191.837C536.946 158.959 510.293 132.305 477.414 132.305C444.535 132.305 417.882 158.959 417.882 191.837C417.882 224.716 444.535 251.37 477.414 251.37Z" fill="white"/>
<path d="M478.402 209.527L454.007 195.115L478.402 229.5L502.818 195.115L478.402 209.527Z" fill="#CBEAFF"/>
<path d="M502.804 190.491L478.402 204.909L454 190.491L478.402 150L502.804 190.491Z" fill="#CBEAFF"/>
<path d="M502.804 190.491L478.402 179.397V150L502.804 190.491ZM502.818 195.115L478.402 229.5V209.527L502.818 195.115ZM478.402 179.397V204.909L454.007 190.491L478.402 179.397Z" fill="#53BAFF"/>
<path d="M502.804 190.49L478.402 204.909V179.397L502.804 190.49Z" fill="#0091F0"/>
<path d="M66.5859 258.148C103.208 258.148 132.896 228.46 132.896 191.838C132.896 155.215 103.208 125.527 66.5859 125.527C29.9637 125.527 0.275635 155.215 0.275635 191.838C0.275635 228.46 29.9637 258.148 66.5859 258.148Z" fill="#545C80"/>
<path d="M66.5862 251.37C99.465 251.37 126.118 224.716 126.118 191.837C126.118 158.959 99.465 132.305 66.5862 132.305C33.7075 132.305 7.05396 158.959 7.05396 191.837C7.05396 224.716 33.7075 251.37 66.5862 251.37Z" fill="#EFEFEF"/>
<path d="M32.1657 179.969V163.088C29.0243 165.5 26.9098 166.705 25.8214 166.705C25.3019 166.705 24.8411 166.498 24.4392 166.084C24.0374 165.67 23.8364 165.191 23.8364 164.646C23.8364 164.016 24.0341 163.552 24.4301 163.255C24.8258 162.959 25.5247 162.575 26.5265 162.105C28.0225 161.4 29.219 160.658 30.116 159.879C31.0126 159.1 31.8072 158.228 32.4995 157.263C33.1918 156.299 33.6432 155.705 33.8536 155.482C34.0636 155.26 34.4593 155.149 35.0411 155.149C35.6962 155.149 36.2219 155.402 36.618 155.909C37.0136 156.416 37.2117 157.115 37.2117 158.005V179.245C37.2117 181.731 36.3646 182.974 34.6702 182.974C33.9155 182.974 33.3094 182.72 32.8523 182.214C32.3943 181.707 32.1657 180.958 32.1657 179.969Z" fill="#545C80"/>
<path d="M64.7958 169.173C64.7958 171.201 64.6721 172.944 64.4249 174.404C64.1774 175.863 63.7202 177.186 63.0522 178.374C62.211 179.833 61.123 180.959 59.7874 181.75C58.4519 182.541 56.9678 182.937 55.3352 182.937C53.4555 182.937 51.7704 182.406 50.2802 181.342C48.7899 180.278 47.6677 178.807 46.9135 176.927C46.5302 175.9 46.2484 174.766 46.0693 173.523C45.8898 172.28 45.8003 170.935 45.8003 169.488C45.8003 167.621 45.8993 165.939 46.0969 164.443C46.2946 162.947 46.604 161.66 47.0244 160.584C47.7539 158.803 48.8147 157.446 50.2059 156.512C51.5972 155.579 53.2574 155.112 55.1867 155.112C56.4603 155.112 57.6168 155.319 58.6557 155.733C59.6946 156.148 60.6064 156.753 61.392 157.551C62.1771 158.348 62.8418 159.335 63.386 160.509C64.3259 162.55 64.7958 165.438 64.7958 169.173ZM59.7132 168.802C59.7132 166.539 59.577 164.687 59.3051 163.246C59.0328 161.805 58.5752 160.717 57.9324 159.981C57.2892 159.245 56.3988 158.877 55.2613 158.877C53.6287 158.877 52.4941 159.7 51.8575 161.345C51.2205 162.99 50.9019 165.525 50.9019 168.95C50.9019 171.276 51.0377 173.18 51.31 174.664C51.5819 176.148 52.0394 177.27 52.6827 178.03C53.3255 178.791 54.1973 179.171 55.2981 179.171C56.4356 179.171 57.3259 178.776 57.9692 177.984C58.612 177.192 59.0637 176.061 59.3233 174.589C59.5832 173.118 59.7132 171.188 59.7132 168.802Z" fill="#545C80"/>
<path d="M77.3174 179.969V163.088C74.1759 165.5 72.0614 166.705 70.973 166.705C70.4536 166.705 69.9927 166.498 69.5908 166.084C69.189 165.67 68.988 165.191 68.988 164.646C68.988 164.016 69.1857 163.552 69.5817 163.255C69.9774 162.959 70.6763 162.575 71.6781 162.105C73.1741 161.4 74.3707 160.658 75.2676 159.879C76.1642 159.1 76.9588 158.228 77.6516 157.263C78.3439 156.299 78.7952 155.705 79.0057 155.482C79.2157 155.26 79.6113 155.149 80.1931 155.149C80.8483 155.149 81.3739 155.402 81.77 155.909C82.1657 156.416 82.3637 157.115 82.3637 158.005V179.245C82.3637 181.731 81.5167 182.974 79.8222 182.974C79.0676 182.974 78.4615 182.72 78.0043 182.214C77.5459 181.707 77.3174 180.958 77.3174 179.969Z" fill="#545C80"/>
<path d="M109.947 169.173C109.947 171.201 109.823 172.944 109.576 174.404C109.329 175.863 108.871 177.186 108.204 178.374C107.362 179.833 106.274 180.959 104.939 181.75C103.603 182.541 102.119 182.937 100.487 182.937C98.6064 182.937 96.9218 182.406 95.4316 181.342C93.9413 180.278 92.819 178.807 92.0648 176.927C91.6811 175.9 91.3997 174.766 91.2207 173.523C91.0412 172.28 90.9517 170.935 90.9517 169.488C90.9517 167.621 91.0507 165.939 91.2483 164.443C91.4459 162.947 91.7554 161.66 92.1758 160.584C92.9053 158.803 93.966 157.446 95.3573 156.512C96.7485 155.579 98.4088 155.112 100.338 155.112C101.612 155.112 102.768 155.319 103.807 155.733C104.846 156.148 105.758 156.753 106.543 157.551C107.329 158.348 107.993 159.335 108.537 160.509C109.477 162.55 109.947 165.438 109.947 169.173ZM104.865 168.802C104.865 166.539 104.728 164.687 104.456 163.246C104.184 161.805 103.727 160.717 103.084 159.981C102.441 159.245 101.55 158.877 100.413 158.877C98.7801 158.877 97.6455 159.7 97.0089 161.345C96.3718 162.99 96.0537 165.525 96.0537 168.95C96.0537 171.276 96.1895 173.18 96.4618 174.664C96.7337 176.148 97.1912 177.27 97.8345 178.03C98.4773 178.791 99.3495 179.171 100.45 179.171C101.588 179.171 102.479 178.776 103.121 177.984C103.764 177.192 104.216 176.061 104.475 174.589C104.735 173.118 104.865 171.188 104.865 168.802Z" fill="#545C80"/>
<path d="M42.2203 214.762C42.2203 216.79 42.0965 218.534 41.8494 219.993C41.6018 221.452 41.1443 222.776 40.4767 223.963C39.6355 225.422 38.5475 226.548 37.2119 227.339C35.8764 228.131 34.3923 228.527 32.7597 228.527C30.8799 228.527 29.1949 227.995 27.7047 226.931C26.2144 225.868 25.0921 224.396 24.3375 222.516C23.9542 221.49 23.6729 220.355 23.4934 219.112C23.3139 217.87 23.2244 216.524 23.2244 215.078C23.2244 213.21 23.3234 211.528 23.521 210.032C23.7186 208.536 24.0281 207.25 24.4485 206.173C25.178 204.393 26.2387 203.036 27.63 202.102C29.0212 201.168 30.6815 200.701 32.6107 200.701C33.8844 200.701 35.0409 200.908 36.0798 201.322C37.1187 201.737 38.0305 202.343 38.8161 203.14C39.6012 203.938 40.2659 204.924 40.8101 206.099C41.75 208.139 42.2203 211.027 42.2203 214.762ZM37.1376 214.391C37.1376 212.128 37.0015 210.276 36.7296 208.835C36.4573 207.394 35.9997 206.306 35.3569 205.57C34.7137 204.835 33.8233 204.467 32.6858 204.467C31.0532 204.467 29.9186 205.289 29.282 206.934C28.6449 208.579 28.3268 211.114 28.3268 214.54C28.3268 216.865 28.4626 218.769 28.7349 220.253C29.0068 221.737 29.4643 222.859 30.1076 223.62C30.7504 224.381 31.6222 224.761 32.723 224.761C33.8605 224.761 34.7508 224.365 35.3941 223.574C36.0369 222.782 36.4886 221.65 36.7482 220.179C37.0077 218.707 37.1376 216.778 37.1376 214.391Z" fill="#545C80"/>
<path d="M64.7958 214.762C64.7958 216.79 64.6721 218.534 64.4249 219.993C64.1774 221.452 63.7202 222.776 63.0522 223.963C62.211 225.422 61.123 226.548 59.7874 227.339C58.4519 228.131 56.9678 228.527 55.3352 228.527C53.4555 228.527 51.7704 227.995 50.2802 226.931C48.7899 225.868 47.6677 224.396 46.9135 222.516C46.5302 221.49 46.2484 220.355 46.0693 219.112C45.8898 217.87 45.8003 216.524 45.8003 215.078C45.8003 213.21 45.8993 211.528 46.0969 210.032C46.2946 208.536 46.604 207.25 47.0244 206.173C47.7539 204.393 48.8147 203.036 50.2059 202.102C51.5972 201.168 53.2574 200.701 55.1867 200.701C56.4603 200.701 57.6168 200.908 58.6557 201.322C59.6946 201.737 60.6064 202.343 61.392 203.14C62.1771 203.938 62.8418 204.924 63.386 206.099C64.3259 208.139 64.7958 211.027 64.7958 214.762ZM59.7132 214.391C59.7132 212.128 59.577 210.276 59.3051 208.835C59.0328 207.394 58.5752 206.306 57.9324 205.57C57.2892 204.835 56.3988 204.467 55.2613 204.467C53.6287 204.467 52.4941 205.289 51.8575 206.934C51.2205 208.579 50.9019 211.114 50.9019 214.54C50.9019 216.865 51.0377 218.769 51.31 220.253C51.5819 221.737 52.0394 222.859 52.6827 223.62C53.3255 224.381 54.1973 224.761 55.2981 224.761C56.4356 224.761 57.3259 224.365 57.9692 223.574C58.612 222.782 59.0637 221.65 59.3233 220.179C59.5832 218.707 59.7132 216.778 59.7132 214.391Z" fill="#545C80"/>
<path d="M77.3174 225.558V208.678C74.1759 211.089 72.0614 212.295 70.973 212.295C70.4536 212.295 69.9927 212.088 69.5908 211.674C69.189 211.259 68.988 210.78 68.988 210.236C68.988 209.605 69.1857 209.142 69.5817 208.845C69.9774 208.548 70.6763 208.165 71.6781 207.695C73.1741 206.99 74.3707 206.248 75.2676 205.469C76.1642 204.69 76.9588 203.818 77.6516 202.853C78.3439 201.889 78.7952 201.295 79.0057 201.073C79.2157 200.85 79.6113 200.739 80.1931 200.739C80.8483 200.739 81.3739 200.993 81.77 201.499C82.1657 202.006 82.3637 202.705 82.3637 203.596V224.836C82.3637 227.321 81.5167 228.564 79.8222 228.564C79.0676 228.564 78.4615 228.31 78.0043 227.804C77.5459 227.296 77.3174 226.548 77.3174 225.558Z" fill="#545C80"/>
</svg>
