<svg width="636" height="412" viewBox="0 0 636 412" fill="none" xmlns="http://www.w3.org/2000/svg">
<g opacity="0.5">
<path d="M9.21749 205.663H216.683V201.568H9.21749C8.42035 200.057 6.77178 199.011 4.86607 199.011C2.18322 199.011 0.000366211 201.077 0.000366211 203.614C0.000366211 206.151 2.18322 208.217 4.86607 208.217C6.77178 208.217 8.42035 207.174 9.21749 205.66V205.663ZM2.5975 203.614C2.5975 202.431 3.61465 201.468 4.86607 201.468C6.1175 201.468 7.1375 202.431 7.1375 203.614C7.1375 204.797 6.12036 205.763 4.86607 205.763C3.61179 205.763 2.5975 204.8 2.5975 203.614Z" fill="#9AA4B2"/>
<path d="M34.5575 216.857H216.683V212.762H34.5575C33.7603 211.251 32.1117 210.205 30.206 210.205C27.5232 210.205 25.3403 212.271 25.3403 214.808C25.3403 217.345 27.5232 219.411 30.206 219.411C32.1117 219.411 33.7603 218.368 34.5575 216.854V216.857ZM27.9375 214.811C27.9375 213.628 28.9546 212.662 30.206 212.662C31.4575 212.662 32.4775 213.625 32.4775 214.811C32.4775 215.997 31.4603 216.957 30.206 216.957C28.9518 216.957 27.9375 215.994 27.9375 214.811Z" fill="#9AA4B2"/>
<path d="M170.28 276.008H216.686V271.914H170.28C169.483 270.403 167.835 269.357 165.929 269.357C163.246 269.357 161.063 271.423 161.063 273.96C161.063 276.497 163.246 278.563 165.929 278.563C167.835 278.563 169.483 277.52 170.28 276.006V276.008ZM163.657 273.96C163.657 272.777 164.675 271.811 165.926 271.811C167.177 271.811 168.197 272.774 168.197 273.96C168.197 275.146 167.18 276.106 165.926 276.106C164.672 276.106 163.657 275.143 163.657 273.96Z" fill="#9AA4B2"/>
<path d="M122.578 256.986C122.578 256.471 122.483 255.98 122.32 255.52L151.258 228.143H216.686V224.048H149.809L149.638 223.885L119.26 252.623C118.772 252.468 118.252 252.38 117.712 252.38C115.029 252.38 112.846 254.446 112.846 256.983C112.846 259.52 115.029 261.586 117.712 261.586C120.395 261.586 122.578 259.52 122.578 256.983V256.986ZM115.44 256.986C115.44 255.803 116.458 254.837 117.709 254.837C118.96 254.837 119.98 255.8 119.98 256.986C119.98 258.171 118.963 259.131 117.709 259.131C116.455 259.131 115.44 258.168 115.44 256.986Z" fill="#9AA4B2"/>
<path d="M83.8632 299.34H123.62V299.325L123.638 299.34L160.529 264.437H216.686V260.343H158.709V260.368L121.846 295.245H83.8661C83.0689 293.734 81.4204 292.688 79.5146 292.688C76.8318 292.688 74.6489 294.754 74.6489 297.291C74.6489 299.828 76.8318 301.894 79.5146 301.894C81.4204 301.894 83.0689 300.851 83.8661 299.337L83.8632 299.34ZM77.2404 297.291C77.2404 296.108 78.2575 295.143 79.5089 295.143C80.7604 295.143 81.7804 296.105 81.7804 297.291C81.7804 298.477 80.7632 299.437 79.5089 299.437C78.2546 299.437 77.2404 298.474 77.2404 297.291Z" fill="#9AA4B2"/>
<path d="M62.5229 286.75H121.023V286.736L121.04 286.75L157.932 251.847H216.683V247.753H156.132V247.759L119.246 282.656H62.5229C61.7258 281.145 60.0772 280.099 58.1715 280.099C55.4886 280.099 53.3058 282.165 53.3058 284.702C53.3058 287.239 55.4886 289.305 58.1715 289.305C60.0772 289.305 61.7258 288.262 62.5229 286.747V286.75ZM55.9029 284.705C55.9029 283.519 56.9201 282.556 58.1715 282.556C59.4229 282.556 60.4429 283.519 60.4429 284.705C60.4429 285.89 59.4258 286.85 58.1715 286.85C56.9172 286.85 55.9029 285.887 55.9029 284.705Z" fill="#9AA4B2"/>
<path d="M77.7347 274.219H118.429V274.204L118.446 274.219L155.337 239.316H216.686V235.221H153.54V235.227L116.655 270.124H77.7375C76.9404 268.61 75.2918 267.567 73.3861 267.567C70.7032 267.567 68.5204 269.633 68.5204 272.17C68.5204 274.707 70.7032 276.773 73.3861 276.773C75.2918 276.773 76.9404 275.73 77.7375 274.216L77.7347 274.219ZM71.1118 272.173C71.1118 270.987 72.1289 270.024 73.3804 270.024C74.6318 270.024 75.6518 270.987 75.6518 272.173C75.6518 273.359 74.6347 274.319 73.3804 274.319C72.1261 274.319 71.1118 273.356 71.1118 272.173Z" fill="#9AA4B2"/>
<path d="M81.2834 348.183H121.04V348.169L121.058 348.183L157.949 313.28H216.686V309.186H156.129V309.212L119.266 344.089H81.2862C80.4891 342.577 78.8405 341.532 76.9348 341.532C74.2519 341.532 72.0691 343.597 72.0691 346.135C72.0691 348.672 74.2519 350.737 76.9348 350.737C78.8405 350.737 80.4891 349.695 81.2862 348.18L81.2834 348.183ZM74.6605 346.137C74.6605 344.955 75.6777 343.989 76.9291 343.989C78.1805 343.989 79.2005 344.952 79.2005 346.137C79.2005 347.323 78.1834 348.283 76.9291 348.283C75.6748 348.283 74.6605 347.32 74.6605 346.137Z" fill="#9AA4B2"/>
<path d="M59.9432 335.599H118.443V335.585L118.46 335.599L155.352 300.696H216.686V296.602H153.555V296.608L116.669 331.505H59.946C59.1489 329.993 57.5003 328.948 55.5946 328.948C52.9117 328.948 50.7289 331.013 50.7289 333.55C50.7289 336.088 52.9117 338.153 55.5946 338.153C57.5003 338.153 59.1489 337.11 59.946 335.596L59.9432 335.599ZM53.3203 333.55C53.3203 332.368 54.3375 331.402 55.5889 331.402C56.8403 331.402 57.8603 332.365 57.8603 333.55C57.8603 334.736 56.8432 335.696 55.5889 335.696C54.3346 335.696 53.3203 334.733 53.3203 333.55Z" fill="#9AA4B2"/>
<path d="M75.1518 323.067H115.846V323.053L115.863 323.067L152.754 288.164H216.686V284.07H150.957V284.076L114.072 318.973H75.1546C74.3575 317.461 72.7089 316.416 70.8032 316.416C68.1204 316.416 65.9375 318.481 65.9375 321.019C65.9375 323.556 68.1204 325.621 70.8032 325.621C72.7089 325.621 74.3575 324.579 75.1546 323.064L75.1518 323.067ZM68.5289 321.022C68.5289 319.839 69.5461 318.873 70.7975 318.873C72.0489 318.873 73.0689 319.836 73.0689 321.022C73.0689 322.207 72.0518 323.167 70.7975 323.167C69.5432 323.167 68.5289 322.204 68.5289 321.022Z" fill="#9AA4B2"/>
<path d="M34.5577 194.271H216.683V190.177H34.5577C33.7606 188.665 32.112 187.619 30.2063 187.619C27.5234 187.619 25.3406 189.685 25.3406 192.222C25.3406 194.759 27.5234 196.825 30.2063 196.825C32.112 196.825 33.7606 195.782 34.5577 194.268V194.271ZM27.9377 192.222C27.9377 191.039 28.9549 190.077 30.2063 190.077C31.4577 190.077 32.4777 191.039 32.4777 192.222C32.4777 193.405 31.4606 194.371 30.2063 194.371C28.952 194.371 27.9377 193.408 27.9377 192.222Z" fill="#9AA4B2"/>
<path d="M170.28 135.122H216.686V131.028H170.28C169.483 129.516 167.834 128.471 165.929 128.471C163.246 128.471 161.063 130.536 161.063 133.074C161.063 135.611 163.246 137.676 165.929 137.676C167.834 137.676 169.483 136.634 170.28 135.119V135.122ZM163.657 133.074C163.657 131.891 164.674 130.928 165.926 130.928C167.177 130.928 168.197 131.891 168.197 133.074C168.197 134.256 167.18 135.222 165.926 135.222C164.671 135.222 163.657 134.259 163.657 133.074Z" fill="#9AA4B2"/>
<path d="M149.809 182.985H216.686V178.89H151.258L122.32 151.513C122.486 151.053 122.578 150.559 122.578 150.047C122.578 147.51 120.395 145.445 117.712 145.445C115.029 145.445 112.846 147.51 112.846 150.047C112.846 152.585 115.029 154.65 117.712 154.65C118.255 154.65 118.775 154.562 119.26 154.407L149.638 183.147L149.809 182.985ZM115.44 150.05C115.44 148.865 116.458 147.905 117.709 147.905C118.96 147.905 119.98 148.867 119.98 150.05C119.98 151.233 118.963 152.199 117.709 152.199C116.455 152.199 115.44 151.236 115.44 150.05Z" fill="#9AA4B2"/>
<path d="M216.686 142.6H160.529L123.638 107.697L123.621 107.711V107.697H83.8635C83.0663 106.185 81.4178 105.14 79.5121 105.14C76.8292 105.14 74.6464 107.205 74.6464 109.743C74.6464 112.28 76.8292 114.345 79.5121 114.345C81.4178 114.345 83.0663 113.303 83.8635 111.788H121.843L158.706 146.665V146.691H216.683V142.597L216.686 142.6ZM79.5121 111.891C78.2606 111.891 77.2435 110.928 77.2435 109.743C77.2435 108.557 78.2606 107.597 79.5121 107.597C80.7635 107.597 81.7835 108.56 81.7835 109.743C81.7835 110.925 80.7664 111.891 79.5121 111.891Z" fill="#9AA4B2"/>
<path d="M216.687 155.185H157.935L121.044 120.282L121.027 120.297V120.282H62.5265C61.7293 118.771 60.0808 117.725 58.175 117.725C55.4922 117.725 53.3093 119.791 53.3093 122.328C53.3093 124.865 55.4922 126.931 58.175 126.931C60.0808 126.931 61.7293 125.888 62.5265 124.374H119.249L156.135 159.271V159.277H216.687V155.182V155.185ZM58.1722 124.477C56.9208 124.477 55.9036 123.514 55.9036 122.328C55.9036 121.142 56.9208 120.182 58.1722 120.182C59.4236 120.182 60.4436 121.145 60.4436 122.328C60.4436 123.511 59.4265 124.477 58.1722 124.477Z" fill="#9AA4B2"/>
<path d="M216.687 167.716H155.338L118.447 132.813L118.43 132.831V132.813H77.7352C76.9381 131.302 75.2895 130.256 73.3838 130.256C70.7009 130.256 68.5181 132.322 68.5181 134.859C68.5181 137.396 70.7009 139.462 73.3838 139.462C75.2895 139.462 76.9381 138.419 77.7352 136.905H116.652L153.538 171.802V171.808H216.684V167.713L216.687 167.716ZM73.3809 137.008C72.1295 137.008 71.1124 136.045 71.1124 134.859C71.1124 133.673 72.1295 132.713 73.3809 132.713C74.6324 132.713 75.6524 133.676 75.6524 134.859C75.6524 136.042 74.6352 137.008 73.3809 137.008Z" fill="#9AA4B2"/>
<path d="M216.687 93.75H157.95L121.058 58.8472L121.041 58.8615V58.8472H81.2838C80.4867 57.3358 78.8381 56.29 76.9324 56.29C74.2495 56.29 72.0667 58.3558 72.0667 60.8929C72.0667 63.43 74.2495 65.4958 76.9324 65.4958C78.8381 65.4958 80.4867 64.4529 81.2838 62.9386H119.264L156.127 97.8158V97.8415H216.684V93.7472L216.687 93.75ZM76.9295 63.0415C75.6781 63.0415 74.6609 62.0786 74.6609 60.8929C74.6609 59.7072 75.6781 58.7472 76.9295 58.7472C78.1809 58.7472 79.201 59.71 79.201 60.8929C79.201 62.0758 78.1838 63.0415 76.9295 63.0415Z" fill="#9AA4B2"/>
<path d="M216.686 106.339H155.352L118.46 71.436L118.443 71.4503V71.436H59.9432C59.1461 69.9246 57.4975 68.8789 55.5918 68.8789C52.9089 68.8789 50.7261 70.9446 50.7261 73.4818C50.7261 76.0189 52.9089 78.0846 55.5918 78.0846C57.4975 78.0846 59.1461 77.0418 59.9432 75.5275H116.666L153.552 110.425V110.43H216.683V106.336L216.686 106.339ZM55.5889 75.6303C54.3375 75.6303 53.3204 74.6675 53.3204 73.4818C53.3204 72.296 54.3375 71.3361 55.5889 71.3361C56.8404 71.3361 57.8603 72.2989 57.8603 73.4818C57.8603 74.6646 56.8432 75.6303 55.5889 75.6303Z" fill="#9AA4B2"/>
<path d="M216.686 118.87H152.754L115.863 83.9668L115.846 83.984V83.9668H75.1514C74.3542 82.4554 72.7056 81.4097 70.7999 81.4097C68.1171 81.4097 65.9342 83.4754 65.9342 86.0125C65.9342 88.5497 68.1171 90.6154 70.7999 90.6154C72.7056 90.6154 74.3542 89.5725 75.1514 88.0582H114.069L150.954 122.955V122.961H216.683V118.867L216.686 118.87ZM70.7999 88.1611C69.5485 88.1611 68.5313 87.1982 68.5313 86.0125C68.5313 84.8268 69.5485 83.8668 70.7999 83.8668C72.0514 83.8668 73.0714 84.8297 73.0714 86.0125C73.0714 87.1954 72.0542 88.1611 70.7999 88.1611Z" fill="#9AA4B2"/>
<path d="M626.789 205.663H419.323V201.568H626.789C627.586 200.057 629.235 199.011 631.14 199.011C633.823 199.011 636.006 201.077 636.006 203.614C636.006 206.151 633.823 208.217 631.14 208.217C629.235 208.217 627.586 207.174 626.789 205.66V205.663ZM633.409 203.614C633.409 202.431 632.392 201.468 631.14 201.468C629.889 201.468 628.869 202.431 628.869 203.614C628.869 204.797 629.886 205.763 631.14 205.763C632.395 205.763 633.409 204.8 633.409 203.614Z" fill="#9AA4B2"/>
<path d="M601.441 216.857H419.315V212.763H601.441C602.238 211.251 603.887 210.206 605.792 210.206C608.475 210.206 610.658 212.271 610.658 214.808C610.658 217.346 608.475 219.411 605.792 219.411C603.887 219.411 602.238 218.368 601.441 216.854V216.857ZM608.061 214.811C608.061 213.628 607.044 212.663 605.792 212.663C604.541 212.663 603.521 213.626 603.521 214.811C603.521 215.997 604.538 216.957 605.792 216.957C607.047 216.957 608.061 215.994 608.061 214.811Z" fill="#9AA4B2"/>
<path d="M465.718 276.009H419.312V271.914H465.718C466.515 270.403 468.163 269.357 470.069 269.357C472.752 269.357 474.935 271.423 474.935 273.96C474.935 276.497 472.752 278.563 470.069 278.563C468.163 278.563 466.515 277.52 465.718 276.006V276.009ZM472.34 273.96C472.34 272.777 471.323 271.811 470.072 271.811C468.82 271.811 467.8 272.774 467.8 273.96C467.8 275.146 468.818 276.106 470.072 276.106C471.326 276.106 472.34 275.143 472.34 273.96Z" fill="#9AA4B2"/>
<path d="M513.421 256.986C513.421 256.472 513.515 255.98 513.678 255.52L484.741 228.143H419.312V224.049H486.189L486.361 223.886L516.738 252.623C517.226 252.469 517.746 252.38 518.286 252.38C520.969 252.38 523.152 254.446 523.152 256.983C523.152 259.52 520.969 261.586 518.286 261.586C515.604 261.586 513.421 259.52 513.421 256.983V256.986ZM520.558 256.986C520.558 255.803 519.541 254.837 518.289 254.837C517.038 254.837 516.018 255.8 516.018 256.986C516.018 258.172 517.035 259.132 518.289 259.132C519.544 259.132 520.558 258.169 520.558 256.986Z" fill="#9AA4B2"/>
<path d="M552.135 299.34H512.378V299.326L512.361 299.34L475.469 264.438H419.312V260.343H477.289V260.369L514.152 295.246H552.132C552.929 293.735 554.578 292.689 556.484 292.689C559.167 292.689 561.349 294.755 561.349 297.292C561.349 299.829 559.167 301.895 556.484 301.895C554.578 301.895 552.929 300.852 552.132 299.338L552.135 299.34ZM558.758 297.292C558.758 296.109 557.741 295.143 556.489 295.143C555.238 295.143 554.218 296.106 554.218 297.292C554.218 298.478 555.235 299.438 556.489 299.438C557.744 299.438 558.758 298.475 558.758 297.292Z" fill="#9AA4B2"/>
<path d="M573.475 286.751H514.975V286.736L514.958 286.751L478.066 251.848H419.315V247.753H479.866V247.759L516.752 282.656H573.475C574.272 281.145 575.921 280.099 577.826 280.099C580.509 280.099 582.692 282.165 582.692 284.702C582.692 287.239 580.509 289.305 577.826 289.305C575.921 289.305 574.272 288.262 573.475 286.748V286.751ZM580.095 284.705C580.095 283.519 579.078 282.556 577.826 282.556C576.575 282.556 575.555 283.519 575.555 284.705C575.555 285.891 576.572 286.851 577.826 286.851C579.081 286.851 580.095 285.888 580.095 284.705Z" fill="#9AA4B2"/>
<path d="M558.263 274.22H517.569V274.205L517.552 274.22L480.661 239.317H419.312V235.222H482.458V235.228L519.343 270.125H558.26C559.058 268.611 560.706 267.568 562.612 267.568C565.295 267.568 567.478 269.634 567.478 272.171C567.478 274.708 565.295 276.774 562.612 276.774C560.706 276.774 559.058 275.731 558.26 274.217L558.263 274.22ZM564.886 272.174C564.886 270.988 563.869 270.025 562.618 270.025C561.366 270.025 560.346 270.988 560.346 272.174C560.346 273.36 561.363 274.32 562.618 274.32C563.872 274.32 564.886 273.357 564.886 272.174Z" fill="#9AA4B2"/>
<path d="M554.715 348.186H514.958V348.171L514.94 348.186L478.049 313.283H419.312V309.188H479.869V309.214L516.732 344.091H554.712C555.509 342.58 557.157 341.534 559.063 341.534C561.746 341.534 563.929 343.6 563.929 346.137C563.929 348.674 561.746 350.74 559.063 350.74C557.157 350.74 555.509 349.697 554.712 348.183L554.715 348.186ZM561.337 346.14C561.337 344.957 560.32 343.991 559.069 343.991C557.817 343.991 556.797 344.954 556.797 346.14C556.797 347.326 557.815 348.286 559.069 348.286C560.323 348.286 561.337 347.323 561.337 346.14Z" fill="#9AA4B2"/>
<path d="M576.055 335.599H517.555V335.585L517.538 335.599L480.646 300.696H419.312V296.602H482.444V296.608L519.329 331.505H576.052C576.849 329.993 578.498 328.948 580.404 328.948C583.086 328.948 585.269 331.013 585.269 333.55C585.269 336.088 583.086 338.153 580.404 338.153C578.498 338.153 576.849 337.11 576.052 335.596L576.055 335.599ZM582.678 333.55C582.678 332.368 581.661 331.402 580.409 331.402C579.158 331.402 578.138 332.365 578.138 333.55C578.138 334.736 579.155 335.696 580.409 335.696C581.664 335.696 582.678 334.733 582.678 333.55Z" fill="#9AA4B2"/>
<path d="M560.846 323.068H520.152V323.054L520.135 323.068L483.243 288.165H419.312V284.071H485.04V284.077L521.926 318.974H560.843C561.64 317.462 563.289 316.417 565.194 316.417C567.877 316.417 570.06 318.482 570.06 321.02C570.06 323.557 567.877 325.622 565.194 325.622C563.289 325.622 561.64 324.58 560.843 323.065L560.846 323.068ZM567.469 321.022C567.469 319.84 566.452 318.874 565.2 318.874C563.949 318.874 562.929 319.837 562.929 321.022C562.929 322.208 563.946 323.168 565.2 323.168C566.454 323.168 567.469 322.205 567.469 321.022Z" fill="#9AA4B2"/>
<path d="M601.441 194.271H419.316V190.177H601.441C602.238 188.665 603.887 187.619 605.793 187.619C608.476 187.619 610.658 189.685 610.658 192.222C610.658 194.759 608.476 196.825 605.793 196.825C603.887 196.825 602.238 195.782 601.441 194.268V194.271ZM608.061 192.222C608.061 191.039 607.044 190.077 605.793 190.077C604.541 190.077 603.521 191.039 603.521 192.222C603.521 193.405 604.538 194.371 605.793 194.371C607.047 194.371 608.061 193.408 608.061 192.222Z" fill="#9AA4B2"/>
<path d="M465.718 135.123H419.312V131.029H465.718C466.515 129.518 468.164 128.472 470.069 128.472C472.752 128.472 474.935 130.538 474.935 133.075C474.935 135.612 472.752 137.678 470.069 137.678C468.164 137.678 466.515 136.635 465.718 135.12V135.123ZM472.341 133.075C472.341 131.892 471.324 130.929 470.072 130.929C468.821 130.929 467.801 131.892 467.801 133.075C467.801 134.258 468.818 135.223 470.072 135.223C471.326 135.223 472.341 134.26 472.341 133.075Z" fill="#9AA4B2"/>
<path d="M486.189 182.985H419.312V178.891H484.741L513.678 151.513C513.512 151.053 513.421 150.559 513.421 150.048C513.421 147.511 515.604 145.445 518.287 145.445C520.969 145.445 523.152 147.511 523.152 150.048C523.152 152.585 520.969 154.651 518.287 154.651C517.744 154.651 517.224 154.562 516.738 154.408L486.361 183.148L486.189 182.985ZM520.558 150.051C520.558 148.865 519.541 147.905 518.289 147.905C517.038 147.905 516.018 148.868 516.018 150.051C516.018 151.233 517.035 152.199 518.289 152.199C519.544 152.199 520.558 151.236 520.558 150.051Z" fill="#9AA4B2"/>
<path d="M419.312 142.6H475.469L512.36 107.697L512.378 107.711V107.697H552.135C552.932 106.185 554.58 105.14 556.486 105.14C559.169 105.14 561.352 107.205 561.352 109.743C561.352 112.28 559.169 114.345 556.486 114.345C554.58 114.345 552.932 113.303 552.135 111.788H514.155L477.292 146.665V146.691H419.315V142.597L419.312 142.6ZM556.486 111.891C557.737 111.891 558.755 110.928 558.755 109.743C558.755 108.557 557.737 107.597 556.486 107.597C555.235 107.597 554.215 108.56 554.215 109.743C554.215 110.925 555.232 111.891 556.486 111.891Z" fill="#9AA4B2"/>
<path d="M419.312 155.186H478.063L514.955 120.283L514.972 120.298V120.283H573.472C574.269 118.772 575.921 117.726 577.824 117.726C580.506 117.726 582.689 119.792 582.689 122.329C582.689 124.866 580.506 126.932 577.824 126.932C575.918 126.932 574.269 125.889 573.472 124.375H516.749L479.863 159.272V159.278H419.312V155.183V155.186ZM577.826 124.478C579.078 124.478 580.095 123.515 580.095 122.329C580.095 121.143 579.078 120.183 577.826 120.183C576.575 120.183 575.555 121.146 575.555 122.329C575.555 123.512 576.572 124.478 577.826 124.478Z" fill="#9AA4B2"/>
<path d="M419 167.46H480.348L517.24 132.557L517.257 132.574V132.557H557.951C558.749 131.046 560.397 130 562.303 130C564.986 130 567.168 132.066 567.168 134.603C567.168 137.14 564.986 139.206 562.303 139.206C560.397 139.206 558.749 138.163 557.951 136.649H519.034L482.148 171.546V171.551H419.003V167.457L419 167.46ZM562.306 136.751C563.557 136.751 564.574 135.789 564.574 134.603C564.574 133.417 563.557 132.457 562.306 132.457C561.054 132.457 560.034 133.42 560.034 134.603C560.034 135.786 561.051 136.751 562.306 136.751Z" fill="#9AA4B2"/>
<path d="M419.313 93.751H478.05L514.942 58.8482L514.959 58.8624V58.8482H554.716C555.513 57.3367 557.162 56.291 559.068 56.291C561.751 56.291 563.933 58.3567 563.933 60.8939C563.933 63.431 561.751 65.4967 559.068 65.4967C557.162 65.4967 555.513 64.4539 554.716 62.9396H516.736L479.873 97.8167V97.8424H419.316V93.7482L419.313 93.751ZM559.071 63.0424C560.322 63.0424 561.339 62.0796 561.339 60.8939C561.339 59.7082 560.322 58.7482 559.071 58.7482C557.819 58.7482 556.799 59.711 556.799 60.8939C556.799 62.0767 557.816 63.0424 559.071 63.0424Z" fill="#9AA4B2"/>
<path d="M419.312 106.339H480.646L517.538 71.4365L517.555 71.4508V71.4365H576.055C576.852 69.9251 578.5 68.8794 580.406 68.8794C583.089 68.8794 585.272 70.9451 585.272 73.4823C585.272 76.0194 583.089 78.0851 580.406 78.0851C578.5 78.0851 576.852 77.0423 576.055 75.528H519.332L482.446 110.425V110.431H419.315V106.337L419.312 106.339ZM580.409 75.6308C581.66 75.6308 582.677 74.668 582.677 73.4823C582.677 72.2965 581.66 71.3365 580.409 71.3365C579.157 71.3365 578.137 72.2994 578.137 73.4823C578.137 74.6651 579.155 75.6308 580.409 75.6308Z" fill="#9AA4B2"/>
<path d="M419.312 118.87H483.244L520.135 83.9675L520.152 83.9847V83.9675H560.846C561.644 82.4561 563.292 81.4104 565.198 81.4104C567.881 81.4104 570.064 83.4761 570.064 86.0133C570.064 88.5504 567.881 90.6161 565.198 90.6161C563.292 90.6161 561.644 89.5733 560.846 88.059H521.929L485.044 122.956V122.962H419.315V118.868L419.312 118.87ZM565.198 88.1618C566.449 88.1618 567.466 87.199 567.466 86.0133C567.466 84.8275 566.449 83.8675 565.198 83.8675C563.946 83.8675 562.926 84.8304 562.926 86.0133C562.926 87.1961 563.944 88.1618 565.198 88.1618Z" fill="#9AA4B2"/>
</g>
<g filter="url(#filter0_d_6_130)">
<path d="M437.623 28.1558H198.377C192.854 28.1558 188.377 32.6329 188.377 38.1558V368.879C188.377 374.401 192.854 378.879 198.377 378.879H437.623C443.146 378.879 447.623 374.401 447.623 368.879V38.1558C447.623 32.6329 443.146 28.1558 437.623 28.1558Z" fill="white"/>
</g>
<path d="M358.616 181.213H206.64V188.565H358.616V181.213Z" fill="#D9DEE6"/>
<path d="M394.851 195.886H206.599V203.237H394.851V195.886Z" fill="#D9DEE6"/>
<path d="M429.279 210.553H206.599V217.905H429.279V210.553Z" fill="#D9DEE6"/>
<path d="M348.185 225.224H206.599V232.575H348.185V225.224Z" fill="#D9DEE6"/>
<path d="M397.065 252.585H206.64V259.936H397.065V252.585Z" fill="#D9DEE6"/>
<path d="M429.4 267.255H206.64V274.606H429.4V267.255Z" fill="#D9DEE6"/>
<path d="M301.854 281.928H206.64V289.279H301.854V281.928Z" fill="#D9DEE6"/>
<path d="M416.988 137.199H206.64V144.55H416.988V137.199Z" fill="#D9DEE6"/>
<path d="M358.616 151.871H206.64V159.222H358.616V151.871Z" fill="#D9DEE6"/>
<path d="M333.854 166.542H206.64V173.893H333.854V166.542Z" fill="#D9DEE6"/>
<path d="M407.953 166.542H374.341V173.893H407.953V166.542Z" fill="#D9DEE6"/>
<path d="M419.68 49.4321H217C211.477 49.4321 207 53.9093 207 59.4321V119.366C207 124.889 211.477 129.366 217 129.366H419.68C425.202 129.366 429.68 124.889 429.68 119.366V59.4321C429.68 53.9093 425.202 49.4321 419.68 49.4321Z" fill="#0091F0"/>
<path d="M207.535 129.362V67.8579L225.961 49.4321H257.424V69.2805H227.383V109.514H267.617V79.4729H287.465V110.936L269.037 129.362H207.535Z" fill="white" fill-opacity="0.16"/>
<path d="M287.465 49.4321H267.617V69.2805H287.465V49.4321Z" fill="white" fill-opacity="0.16"/>
<path d="M257.424 79.4729H237.576V99.3213H257.424V79.4729Z" fill="white" fill-opacity="0.16"/>
<path d="M271.876 340.568H214.361V341.062H271.876V340.568Z" fill="#808080"/>
<path d="M228.936 356.862C227.736 356.862 226.745 356.536 226.019 355.894C224.219 354.299 223.853 350.788 225.165 347.728C227.145 343.111 233.096 339.525 239.522 336.411C238.228 335.228 236.682 333.696 235.471 332.202C235.451 332.256 235.428 332.311 235.408 332.362C234.573 334.454 233.368 336.074 232.099 336.805C231.168 337.345 229.331 337.871 227.496 335.345C227.036 334.714 226.605 334.099 226.205 333.528C225.188 332.085 223.796 330.111 223.351 330.111C223.351 330.111 223.345 330.111 223.342 330.111C223.162 330.219 222.745 331.068 223.031 336.565C223.042 336.802 222.862 337.002 222.625 337.016C222.391 337.028 222.188 336.848 222.173 336.611C221.876 330.828 222.259 329.582 223.071 329.302C224.036 328.971 225.056 330.414 226.905 333.039C227.305 333.608 227.733 334.216 228.191 334.845C229.305 336.376 230.442 336.776 231.671 336.065C233.053 335.265 234.222 333.262 234.851 331.402C233.922 330.134 233.319 328.948 233.411 328.088C233.465 327.579 233.748 327.194 234.225 326.971L234.273 326.951C235.056 326.694 235.685 326.945 235.993 327.636C236.382 328.508 236.191 329.922 235.799 331.231C237.022 332.811 238.779 334.608 240.345 336.014C242.133 335.162 243.948 334.345 245.713 333.548C246.568 333.162 247.413 332.782 248.242 332.402C246.551 330.805 245.288 329.134 244.748 327.485C244.122 325.571 244.482 323.828 245.819 322.305C249.293 318.345 255.839 320.334 257.87 322.051C259.119 323.108 259.67 324.211 259.513 325.331C259.153 327.894 255.059 330.176 249.765 332.642C251.071 333.762 252.645 334.891 254.453 335.999C258.508 338.488 263.293 340.582 266.648 341.328C266.879 341.379 267.025 341.608 266.973 341.839C266.922 342.071 266.693 342.216 266.462 342.165C262.002 341.171 253.959 337.434 248.933 333.025C248.005 333.451 247.045 333.885 246.068 334.325C244.416 335.068 242.722 335.834 241.048 336.625C241.442 336.962 241.813 337.265 242.153 337.522C244.419 339.251 245.985 340.931 243.908 345.385C241.048 351.516 234.922 355.776 230.613 356.671C230.019 356.794 229.459 356.856 228.939 356.856L228.936 356.862ZM240.211 337.031C233.811 340.111 227.856 343.628 225.953 348.068C224.799 350.759 225.079 353.916 226.588 355.254C227.633 356.182 229.256 356.085 230.436 355.839C234.599 354.976 240.488 350.696 243.128 345.031C245.079 340.845 243.482 339.625 241.631 338.211C241.288 337.948 240.793 337.539 240.211 337.031ZM251.353 320.845C249.751 320.845 247.871 321.274 246.465 322.876C245.328 324.174 245.033 325.596 245.565 327.225C246.053 328.722 247.256 330.356 249.068 332.028C254.156 329.671 258.356 327.416 258.665 325.219C258.779 324.399 258.339 323.579 257.316 322.711C256.47 321.996 254.533 321.145 252.462 320.911C252.116 320.871 251.745 320.845 251.356 320.845H251.353ZM234.565 327.762C234.376 327.856 234.285 327.982 234.265 328.182C234.211 328.694 234.559 329.459 235.156 330.345C235.391 329.345 235.428 328.476 235.211 327.988C235.125 327.796 235.005 327.622 234.565 327.759V327.762Z" fill="#808080"/>
<path d="M383.387 363.977C378.438 362.126 373.81 359.326 369.633 355.655C365.636 352.143 362.136 347.912 359.227 343.077C356.358 338.306 354.133 333.055 352.61 327.472C351.061 321.783 350.273 315.86 350.273 309.869C350.273 306.812 350.484 303.72 350.898 300.68L351.953 292.966L359.521 295.295C362.293 296.146 365.178 296.577 368.101 296.577C373.081 296.577 378.05 295.277 382.467 292.817L385.767 290.98L389.067 292.82C389.116 292.849 389.164 292.872 389.213 292.9L389.227 292.909C389.296 292.946 389.367 292.983 389.436 293.02C393.758 295.352 398.598 296.583 403.427 296.583C406.35 296.583 409.236 296.152 412.007 295.3L419.576 292.972L420.633 300.686C421.05 303.726 421.258 306.817 421.258 309.875C421.258 315.812 420.487 321.686 418.964 327.329C417.47 332.866 415.281 338.08 412.461 342.829C409.604 347.637 406.161 351.857 402.23 355.375C398.124 359.046 393.57 361.875 388.693 363.777L388.573 363.823C388.436 363.877 388.293 363.935 388.147 363.986L385.764 364.877L383.384 363.986L383.387 363.977Z" fill="url(#paint0_linear_6_130)"/>
<path d="M384.975 359.891C380.538 358.231 376.375 355.708 372.604 352.396C368.95 349.185 365.741 345.302 363.067 340.853C360.404 336.425 358.335 331.542 356.918 326.339C355.47 321.019 354.732 315.476 354.732 309.865C354.732 307.002 354.93 304.105 355.318 301.259L355.67 298.688L358.192 299.465C361.395 300.451 364.73 300.948 368.104 300.948C373.855 300.948 379.581 299.451 384.67 296.616L385.77 296.005L386.87 296.619C386.952 296.665 387.035 296.708 387.115 296.753C387.175 296.785 387.235 296.816 387.295 296.851C392.275 299.533 397.852 300.951 403.432 300.951C406.807 300.951 410.141 300.451 413.344 299.468L415.867 298.691L416.218 301.262C416.607 304.111 416.807 307.005 416.807 309.868C416.807 315.428 416.084 320.922 414.661 326.199C413.269 331.356 411.235 336.208 408.615 340.613C405.987 345.036 402.829 348.911 399.232 352.131C395.524 355.448 391.427 357.993 387.052 359.702L386.927 359.751C386.807 359.796 386.687 359.845 386.567 359.891L385.772 360.188L384.978 359.891H384.975Z" fill="url(#paint1_linear_6_130)"/>
<path d="M414.01 301.549C410.587 302.601 407.044 303.135 403.432 303.135C397.438 303.135 391.538 301.627 386.224 298.764C386.072 298.681 385.918 298.604 385.767 298.518C380.335 301.544 374.267 303.135 368.104 303.135C364.492 303.135 360.949 302.604 357.527 301.549C357.149 304.304 356.958 307.09 356.958 309.864C356.958 331.924 368.752 351.475 385.767 357.844C385.918 357.787 386.069 357.727 386.224 357.667C402.992 351.124 414.575 331.727 414.575 309.864C414.575 307.09 414.384 304.304 414.007 301.549H414.01Z" fill="url(#paint2_linear_6_130)"/>
<path d="M427.97 307.289L411.892 296.429L384.072 331.232L370.715 314.78L361.412 320.077L384.158 344.592L427.97 307.289Z" fill="url(#paint3_linear_6_130)"/>
<path d="M417.564 296.057L411.893 296.429L427.97 307.289L433.641 306.917L417.564 296.057Z" fill="url(#paint4_linear_6_130)"/>
<path d="M376.387 314.409L370.716 314.78L384.073 331.232L387.036 327.523L376.387 314.409Z" fill="url(#paint5_linear_6_130)"/>
<path d="M384.158 344.593L389.832 344.221L433.641 306.918L427.969 307.29L384.158 344.593Z" fill="url(#paint6_linear_6_130)"/>
<path d="M382.632 76.7202V81.6522H372.336V86.9802H380.04V91.7682H372.336V101.992H366.18V76.7202H382.632Z" fill="white"/>
<path d="M355.369 97.5282H345.937L344.425 101.992H337.981L347.125 76.7202H354.253L363.397 101.992H356.881L355.369 97.5282ZM353.785 92.7762L350.653 83.5242L347.557 92.7762H353.785Z" fill="white"/>
<path d="M329.041 101.992L323.785 92.4522H322.309V101.992H316.153V76.7202H326.485C328.477 76.7202 330.169 77.0682 331.561 77.7642C332.977 78.4602 334.033 79.4202 334.729 80.6442C335.425 81.8442 335.773 83.1882 335.773 84.6762C335.773 86.3562 335.293 87.8562 334.333 89.1762C333.397 90.4962 332.005 91.4322 330.157 91.9842L335.989 101.992H329.041ZM322.309 88.0962H326.125C327.253 88.0962 328.093 87.8202 328.645 87.2682C329.221 86.7162 329.509 85.9362 329.509 84.9282C329.509 83.9682 329.221 83.2122 328.645 82.6602C328.093 82.1082 327.253 81.8322 326.125 81.8322H322.309V88.0962Z" fill="white"/>
<path d="M305.507 84.7121C305.051 83.8721 304.391 83.2361 303.527 82.8041C302.687 82.3481 301.691 82.1201 300.539 82.1201C298.547 82.1201 296.951 82.7801 295.751 84.1001C294.551 85.3961 293.951 87.1361 293.951 89.3201C293.951 91.6481 294.575 93.4721 295.823 94.7921C297.095 96.0881 298.835 96.7361 301.043 96.7361C302.555 96.7361 303.827 96.3521 304.859 95.5841C305.915 94.8161 306.683 93.7121 307.163 92.2721H299.351V87.7361H312.743V93.4601C312.287 94.9961 311.507 96.4241 310.403 97.7441C309.323 99.0641 307.943 100.132 306.263 100.948C304.583 101.764 302.687 102.172 300.575 102.172C298.079 102.172 295.847 101.632 293.879 100.552C291.935 99.4481 290.411 97.9241 289.307 95.9801C288.227 94.0361 287.687 91.8161 287.687 89.3201C287.687 86.8241 288.227 84.6041 289.307 82.6601C290.411 80.6921 291.935 79.1681 293.879 78.0881C295.823 76.9841 298.043 76.4321 300.539 76.4321C303.563 76.4321 306.107 77.1641 308.171 78.6281C310.259 80.0921 311.639 82.1201 312.311 84.7121H305.507Z" fill="white"/>
<path d="M270.848 101.992L265.7 94.2522L261.164 101.992H254.18L262.28 89.1402L254 76.7202H261.164L266.24 84.3522L270.704 76.7202H277.688L269.66 89.4642L278.012 101.992H270.848Z" fill="white"/>
<defs>
<filter id="filter0_d_6_130" x="154.377" y="-1.84424" width="327.246" height="418.723" filterUnits="userSpaceOnUse" color-interpolation-filters="sRGB">
<feFlood flood-opacity="0" result="BackgroundImageFix"/>
<feColorMatrix in="SourceAlpha" type="matrix" values="0 0 0 0 0 0 0 0 0 0 0 0 0 0 0 0 0 0 127 0" result="hardAlpha"/>
<feOffset dy="4"/>
<feGaussianBlur stdDeviation="17"/>
<feComposite in2="hardAlpha" operator="out"/>
<feColorMatrix type="matrix" values="0 0 0 0 0 0 0 0 0 0 0 0 0 0 0 0 0 0 0.15 0"/>
<feBlend mode="normal" in2="BackgroundImageFix" result="effect1_dropShadow_6_130"/>
<feBlend mode="normal" in="SourceGraphic" in2="effect1_dropShadow_6_130" result="shape"/>
</filter>
<linearGradient id="paint0_linear_6_130" x1="385.636" y1="289.88" x2="386.156" y2="368.075" gradientUnits="userSpaceOnUse">
<stop stop-color="#57D816"/>
<stop offset="1" stop-color="#19972A"/>
</linearGradient>
<linearGradient id="paint1_linear_6_130" x1="385.701" y1="294.479" x2="385.995" y2="362.588" gradientUnits="userSpaceOnUse">
<stop stop-color="#19972A"/>
<stop offset="1" stop-color="#57D816"/>
</linearGradient>
<linearGradient id="paint2_linear_6_130" x1="385.767" y1="298.518" x2="385.767" y2="357.847" gradientUnits="userSpaceOnUse">
<stop stop-color="#1A5300"/>
<stop offset="1" stop-color="#001200"/>
</linearGradient>
<linearGradient id="paint3_linear_6_130" x1="378.567" y1="342.552" x2="406.541" y2="292.469" gradientUnits="userSpaceOnUse">
<stop stop-color="#ADE434"/>
<stop offset="0.2" stop-color="#93DC36"/>
<stop offset="1" stop-color="#2EBE41"/>
</linearGradient>
<linearGradient id="paint4_linear_6_130" x1="414.23" y1="295.309" x2="431.044" y2="307.843" gradientUnits="userSpaceOnUse">
<stop stop-color="#ADE434"/>
<stop offset="0.2" stop-color="#93DC36"/>
<stop offset="1" stop-color="#2EBE41"/>
</linearGradient>
<linearGradient id="paint5_linear_6_130" x1="373.299" y1="313.549" x2="385.819" y2="330.618" gradientUnits="userSpaceOnUse">
<stop stop-color="#47B40F"/>
<stop offset="1" stop-color="#10771E"/>
</linearGradient>
<linearGradient id="paint6_linear_6_130" x1="430.844" y1="305.97" x2="387.127" y2="345.39" gradientUnits="userSpaceOnUse">
<stop stop-color="#10771E"/>
<stop offset="1" stop-color="#47B40F"/>
</linearGradient>
</defs>
</svg>
